<svg width="21" height="21" viewBox="0 0 21 21" fill="none" xmlns="http://www.w3.org/2000/svg">
<path d="M11.3164 18.2403C16.3533 18.2403 20.4366 14.157 20.4366 9.12013C20.4366 4.08322 16.3533 0 11.3164 0C6.27953 0 2.19631 4.08322 2.19631 9.12013C2.19631 14.157 6.27953 18.2403 11.3164 18.2403Z" fill="#FFF291"/>
<path d="M9.82013 19.7363C14.857 19.7363 18.9403 15.6531 18.9403 10.6162C18.9403 5.57931 14.857 1.49609 9.82013 1.49609C4.78322 1.49609 0.700001 5.57931 0.700001 10.6162C0.700001 15.6531 4.78322 19.7363 9.82013 19.7363Z" stroke="#F29945" stroke-width="1.4" stroke-miterlimit="10" stroke-linecap="round" stroke-linejoin="round"/>
<path d="M6.02227 10.1844L8.10867 14.3572L19.036 4.04639" stroke="#F29945" stroke-width="1.4" stroke-miterlimit="10" stroke-linecap="round" stroke-linejoin="round"/>
</svg>
