<svg width="335" height="41" viewBox="0 0 335 41" fill="none" xmlns="http://www.w3.org/2000/svg">
<defs>
<linearGradient id="paint0_linear_1_3622" x1="19.3612" y1="21.0216" x2="19.3612" y2="40.5915" gradientUnits="userSpaceOnUse">
<stop stop-color="#F29945"/>
<stop offset="1" stop-color="#FF820D"/>
</linearGradient>
<linearGradient id="paint1_linear_1_3622" x1="60.3288" y1="25.8127" x2="60.3288" y2="40.6362" gradientUnits="userSpaceOnUse">
<stop stop-color="#F29945"/>
<stop offset="1" stop-color="#FF820D"/>
</linearGradient>
<linearGradient id="paint2_linear_1_3622" x1="101.144" y1="21.3344" x2="101.144" y2="40.5468" gradientUnits="userSpaceOnUse">
<stop stop-color="#F29945"/>
<stop offset="1" stop-color="#FF820D"/>
</linearGradient>
<linearGradient id="paint3_linear_1_3622" x1="142.025" y1="21" x2="142.025" y2="41" gradientUnits="userSpaceOnUse">
<stop stop-color="#F29945"/>
<stop offset="1" stop-color="#FF820D"/>
</linearGradient>
<linearGradient id="paint4_linear_1_3622" x1="186.697" y1="21.1547" x2="186.697" y2="40.4517" gradientUnits="userSpaceOnUse">
<stop stop-color="#F29945"/>
<stop offset="1" stop-color="#FF820D"/>
</linearGradient>
<linearGradient id="paint5_linear_1_3622" x1="229.812" y1="21.0352" x2="229.812" y2="38.5284" gradientUnits="userSpaceOnUse">
<stop stop-color="#F29945"/>
<stop offset="1" stop-color="#FF820D"/>
</linearGradient>
<linearGradient id="paint6_linear_1_3622" x1="272.544" y1="21.6228" x2="272.544" y2="39.6179" gradientUnits="userSpaceOnUse">
<stop stop-color="#F29945"/>
<stop offset="1" stop-color="#FF820D"/>
</linearGradient>
<linearGradient id="paint7_linear_1_3622" x1="315.569" y1="21.3373" x2="315.569" y2="40.7707" gradientUnits="userSpaceOnUse">
<stop stop-color="#F29945"/>
<stop offset="1" stop-color="#FF820D"/>
</linearGradient>
<filter id="white-outline" x="-10%" y="-10%" width="120%" height="120%">
  <feMorphology in="SourceAlpha" result="dilated" operator="dilate" radius="2"/>
  <feFlood flood-color="white" result="white"/>
  <feComposite in="white" in2="dilated" operator="in" result="outline"/>
  <feGaussianBlur in="outline" stdDeviation="1" result="blurred"/>
  <feMerge>
    <feMergeNode in="blurred"/>
    <feMergeNode in="SourceGraphic"/>
  </feMerge>
</filter>
</defs>
<g filter="url(#white-outline)">
<path d="M0 32.5678V3.42747C0 3.19806 0.139009 3.05817 0.366984 3.05817H12.3718C16.7256 3.05817 20.2063 3.93664 23.9651 8.59194C24.1931 8.86611 24.3766 8.77658 24.3766 8.45205C24.3321 8.22265 24.3321 7.99324 24.3321 7.75823C24.3321 3.65687 27.5405 0.473145 31.5272 0.473145C35.514 0.473145 38.7223 3.65687 38.7223 7.75823C38.7223 12.2289 35.742 14.9986 31.5272 14.9986C30.2428 14.9986 29.0529 14.7244 28.0464 14.2152C27.774 14.0753 27.635 14.1705 27.8185 14.4446C30.8433 20.0231 34.2796 28.1867 38.5388 40.1774C38.6334 40.4069 38.4944 40.5915 38.2163 40.5915H32.7172C32.5337 40.5915 32.3502 40.4964 32.3057 40.267C22.2248 11.0315 17.871 8.26741 11.1819 8.26741H5.72717C5.4992 8.26741 5.36019 8.40729 5.36019 8.6367V32.5678C5.36019 32.7972 5.22118 32.9371 4.9932 32.9371H0.366984C0.139009 32.9371 0 32.7972 0 32.5678ZM31.5272 10.388C33.0841 10.388 34.2741 9.42004 34.2741 7.75823C34.2741 6.19155 33.0841 4.98856 31.5272 4.98856C30.1093 4.98856 28.8694 6.18595 28.8694 7.75823C28.8694 9.42004 30.1093 10.388 31.5272 10.388Z" fill="url(#paint0_linear_1_3622)"/>
<path d="M49.8377 10.5726L53.869 28.7853C53.9135 29.0595 53.78 29.1994 53.5465 29.1994H49.1038C48.9203 29.1994 48.7368 29.0595 48.6923 28.8748L44.7055 10.6621C44.661 10.3879 44.8001 10.248 45.028 10.248H49.4263C49.6098 10.248 49.7933 10.3879 49.8377 10.5726ZM47.5914 35.5165C67.6642 35.5165 71.1006 31.9634 71.1006 23.3914V11.3559C71.1006 11.1265 71.2396 10.9866 71.4675 10.9866H75.5933C75.8213 10.9866 75.9603 11.1265 75.9603 11.3559V24.1748C75.9603 33.491 72.8465 40.6362 49.1983 40.6362C48.9703 40.6362 48.8313 40.5466 48.7868 40.362L47.2744 35.9361C47.1799 35.7067 47.3189 35.5221 47.5969 35.5221L47.5914 35.5165ZM54.5084 10.248H58.9067C59.0902 10.248 59.2737 10.3879 59.3182 10.5726L63.3049 28.7853C63.3494 29.0595 63.216 29.1994 62.9824 29.1994H58.5842C58.4007 29.1994 58.2172 29.0595 58.1727 28.8748L54.1859 10.6621C54.1415 10.3879 54.2749 10.248 54.5084 10.248Z" fill="url(#paint1_linear_1_3622)"/>
<path d="M87.0489 1.16138H91.7697C91.9976 1.16138 92.1367 1.30126 92.1367 1.53067V13.8907C92.1367 14.0754 92.2312 14.2152 92.4592 14.3048L115.279 21.5003C115.507 21.5954 115.601 21.7297 115.601 21.9144V26.8047C115.601 27.0341 115.418 27.174 115.19 27.0844L92.5537 19.984C92.3257 19.8889 92.1422 20.0288 92.1422 20.2582V40.1775C92.1422 40.4069 92.0032 40.5468 91.7752 40.5468H87.0545C86.8265 40.5468 86.6875 40.4069 86.6875 40.1775V1.53627C86.6875 1.30686 86.8265 1.16697 87.0545 1.16697L87.0489 1.16138Z" fill="url(#paint2_linear_1_3622)"/>
<path d="M162.628 34.4591C162.856 34.4591 162.995 34.599 162.995 34.7836V39.3046C162.995 39.4893 162.812 39.5844 162.628 39.534C161.711 39.3046 160.293 39.1647 158.552 39.1647H137.796C135.961 39.1647 134.632 39.3494 133.72 39.5788C133.536 39.5788 133.353 39.4837 133.353 39.299V34.778C133.353 34.5934 133.536 34.4535 133.72 34.4535C134.682 34.7277 136.055 34.8675 137.796 34.8675H145.858C146.042 34.8675 146.225 34.7277 146.225 34.543V24.354C146.225 24.2141 146.042 24.0294 145.858 24.0294H140.131C138.53 24.0294 137.201 24.119 136.283 24.4435C136.1 24.4435 135.961 24.3484 135.961 24.119V19.8777C135.961 19.6483 136.1 19.5084 136.283 19.5532C137.245 19.7826 138.485 19.9672 140.042 19.9225H145.864C146.047 19.9225 146.231 19.7826 146.231 19.5979V11.7142C146.231 11.4847 146.047 11.3449 145.864 11.3449H139.308C137.473 11.3896 136.1 11.4847 135.232 11.7589C135.049 11.8037 134.865 11.619 134.865 11.4847V9.87329C134.865 9.59912 134.454 9.54877 134.359 9.82853C133.903 11.7197 133.303 13.4263 132.524 14.8979C132.157 15.4966 132.018 16.2352 132.018 16.9737V40.6307C132.018 40.8154 131.835 41 131.696 41H127.342C127.114 41 126.975 40.8154 126.975 40.6307V21.7242C126.975 21.45 126.653 21.2653 126.469 21.45C125.507 22.0487 124.545 22.6026 123.489 23.1566C123.261 23.2517 123.077 23.2013 122.938 23.0167L121.103 19.3741C121.009 19.1895 121.059 18.9601 121.192 18.9153C128.021 14.9035 129.989 10.2929 130.906 0.238176C130.906 0.0982938 131.045 -0.0359957 131.229 0.00876676L135.627 1.02152C135.766 1.06628 135.9 1.20616 135.9 1.39081C135.627 3.14214 135.444 4.70883 135.121 6.23075C135.121 6.46016 135.26 6.73992 135.533 6.78468C136.45 6.96933 137.734 7.05885 139.291 7.10921H149.1C149.372 7.10921 149.467 6.6504 149.194 6.46575C147.087 5.54253 144.518 4.66966 141.493 3.97584C141.31 3.88072 141.221 3.70167 141.31 3.56179L143.189 0.613061C143.284 0.428416 143.417 0.383652 143.601 0.428415C147.587 1.53629 151.068 2.91833 154.093 4.48501C154.321 4.58013 154.365 4.75919 154.277 4.99419L153.176 6.56087C153.037 6.74552 153.176 7.11481 153.498 7.11481H157.346C159.27 7.07005 160.554 6.8854 161.561 6.70076C161.7 6.65599 161.833 6.79588 161.833 6.97493V11.4959C161.833 11.6358 161.694 11.8205 161.511 11.7701C160.549 11.4959 159.125 11.4008 157.385 11.3561H151.013C150.874 11.3561 150.69 11.4959 150.69 11.7253V19.6091C150.69 19.7938 150.874 19.9337 151.013 19.9337H156.284C157.935 19.9337 159.264 19.749 160.226 19.5644C160.41 19.5196 160.549 19.6539 160.549 19.7938V24.1301C160.549 24.3595 160.41 24.4547 160.226 24.4547C159.264 24.1301 157.935 24.0406 156.378 24.0406H151.018C150.879 24.0406 150.696 24.2253 150.696 24.3651V34.5542C150.696 34.7388 150.879 34.8787 151.018 34.8787H158.441C160.41 34.8787 161.694 34.7388 162.612 34.4647L162.628 34.4591Z" fill="url(#paint3_linear_1_3622)"/>
<path d="M169.881 13.2473H186.057C186.285 13.2473 186.424 13.1074 186.424 12.878V8.40732C186.424 8.17791 186.285 8.03803 186.057 8.03803H167.863C167.635 8.03803 167.496 7.89814 167.496 7.66874V3.98143C167.496 3.75202 167.635 3.61214 167.863 3.61214H186.057C186.285 3.61214 186.424 3.47226 186.424 3.24285V1.26211C186.424 1.0327 186.563 0.892822 186.791 0.892822H190.733C190.961 0.892822 191.1 1.0327 191.1 1.26211V3.24285C191.1 3.47226 191.239 3.61214 191.467 3.61214H205.307C205.535 3.61214 205.674 3.75202 205.674 3.98143V7.66874C205.674 7.89814 205.535 8.03803 205.307 8.03803H191.467C191.239 8.03803 191.1 8.17791 191.1 8.40732V12.878C191.1 13.1074 191.239 13.2473 191.467 13.2473H203.338C203.566 13.2473 203.705 13.3871 203.705 13.6166V17.3039C203.705 17.5333 203.566 17.6732 203.338 17.6732H191.467C191.239 17.6732 191.1 17.813 191.1 18.0424V21.6402C191.1 21.8249 191.194 22.0095 191.378 22.099C196.416 24.2197 200.68 28.4609 205.813 35.9306C205.952 36.1153 205.907 36.2999 205.768 36.4398L202.699 39.5732C202.515 39.7578 202.332 39.7578 202.193 39.5284C198.295 33.1162 194.909 29.4737 191.517 27.4034C191.289 27.2635 191.105 27.4034 191.105 27.6776V30.7214C191.105 36.2999 188.403 40.4517 180.151 40.4517C172.867 40.4517 168.052 37.8219 168.052 30.2626C168.052 23.621 174.925 20.1631 180.285 20.1631C182.392 20.1631 184.272 20.3029 186.012 20.5771C186.285 20.5771 186.424 20.4372 186.424 20.2078V18.0424C186.424 17.813 186.285 17.6732 186.057 17.6732H169.881C169.654 17.6732 169.514 17.5333 169.514 17.3039V13.6166C169.514 13.3871 169.654 13.2473 169.881 13.2473ZM180.146 35.7964C185.139 35.7964 186.424 32.7077 186.424 29.7534V25.6968C186.424 25.5122 186.329 25.3275 186.101 25.2828C184.222 24.9135 182.253 24.824 180.146 24.824C175.564 24.824 172.723 27.6384 172.723 30.313C172.723 32.9875 174.925 35.8019 180.146 35.8019V35.7964Z" fill="url(#paint4_linear_1_3622)"/>
<path d="M211.666 8.63112C211.666 8.40171 211.805 8.26184 212.033 8.26184H216.203C216.431 8.26184 216.57 8.40171 216.57 8.63112V30.1675C216.57 33.9499 219.823 34.778 228.303 30.0723C228.581 29.8877 228.759 30.0276 228.759 30.3018V35.0522C228.759 35.2368 228.664 35.3767 228.436 35.511C220.646 40.446 211.666 39.3829 211.666 31.9132V8.62553V8.63112Z" fill="url(#paint5_linear_1_3622)"/>
<path d="M231.416 6.28109L233.385 2.86795C233.479 2.68331 233.663 2.63855 233.891 2.68331C242.687 5.17322 247.958 8.95565 247.958 18.4509V33.0658C247.958 33.2952 247.819 33.4351 247.591 33.4351H243.193C242.965 33.4351 242.826 33.2952 242.826 33.0658V19.7378C242.826 11.5295 240.029 9.31375 231.6 6.77907C231.327 6.68395 231.277 6.49931 231.416 6.2699V6.28109Z" fill="url(#paint5_linear_1_3622)"/>
<path d="M254.414 13.8907H290.662C290.89 13.8907 291.029 14.0305 291.029 14.26V20.2525C291.029 30.2569 286.492 39.5284 257.717 39.6179C257.489 39.6179 257.35 39.478 257.306 39.2934L255.704 34.6381C255.61 34.4087 255.749 34.224 256.027 34.224C279.948 34.1289 285.997 28.4608 285.997 19.2845C285.997 19.0551 285.858 18.9153 285.63 18.9153H254.426C254.198 18.9153 254.059 18.7754 254.059 18.546V14.26C254.059 14.0305 254.198 13.8907 254.426 13.8907H254.414ZM255.788 3.09732C255.788 2.86791 255.927 2.72803 256.155 2.72803H288.828C289.055 2.72803 289.194 2.86791 289.194 3.09732V7.2938C289.194 7.5232 289.055 7.66309 288.828 7.66309H256.155C255.927 7.66309 255.788 7.5232 255.788 7.2938V3.09732Z" fill="url(#paint6_linear_1_3622)"/>
<path d="M296.5 6.6953H312.403C312.631 6.6953 312.77 6.55541 312.77 6.32601V1.53083C312.77 1.30142 312.909 1.16153 313.137 1.16153H317.535C317.763 1.16153 317.902 1.30142 317.902 1.53083V6.32601C317.902 6.55541 318.041 6.6953 318.269 6.6953H324.18C324.408 6.6953 324.547 6.55541 324.547 6.32601V1.34618C324.547 1.11677 324.686 0.976892 324.914 0.976892H327.894C328.122 0.976892 328.261 1.11677 328.261 1.34618V6.32601C328.261 6.55541 328.4 6.6953 328.628 6.6953H329.59C329.818 6.6953 329.957 6.55541 329.957 6.32601V1.30142C329.957 1.07201 330.096 0.932129 330.324 0.932129H333.393C333.621 0.932129 333.76 1.07201 333.76 1.30142V6.32601C333.76 6.55541 333.899 6.6953 334.127 6.6953H334.633C334.861 6.6953 335 6.83517 335 7.06458V11.3506C335 11.58 334.861 11.7199 334.633 11.7199H318.274C318.046 11.7199 317.907 11.8598 317.907 12.0892V40.4014C317.907 40.6308 317.768 40.7707 317.54 40.7707H313.142C312.914 40.7707 312.775 40.6308 312.775 40.4014V12.0892C312.775 11.8598 312.636 11.7199 312.408 11.7199H296.506C296.278 11.7199 296.139 11.58 296.139 11.3506V7.06458C296.139 6.83517 296.278 6.6953 296.506 6.6953H296.5ZM299.297 15.8716C299.341 15.6422 299.436 15.5471 299.664 15.5471H304.34C304.568 15.5471 304.752 15.687 304.707 15.9611L301.682 37.9115C301.638 38.1409 301.543 38.236 301.315 38.236H296.639C296.411 38.236 296.228 38.0962 296.272 37.822L299.297 15.8716ZM326.654 15.5471H331.419C331.647 15.5471 331.742 15.6366 331.786 15.8716L334.811 37.822C334.855 38.1018 334.672 38.236 334.444 38.236H329.679C329.451 38.236 329.356 38.1409 329.312 37.9115L326.287 15.9611C326.242 15.6814 326.426 15.5471 326.654 15.5471Z" fill="url(#paint7_linear_1_3622)"/>
</g>
</svg>
