<svg width="320" height="72" viewBox="0 0 320 72" fill="none" xmlns="http://www.w3.org/2000/svg">
<g filter="url(#filter0_d_119_504)">
<rect x="10" y="8" width="300" height="52" rx="26" fill="#24E567"/>
<rect x="10" y="8" width="300" height="52" rx="26" fill="url(#paint0_linear_119_504)" fill-opacity="0.2" style="mix-blend-mode:plus-darker"/>
<g filter="url(#filter1_d_119_504)">
<path d="M49.1797 40V24.5508H51.7578V37.8125H58.75V40H49.1797ZM60.6836 40V24.5508H63.2617V40H60.6836ZM66.6992 40V24.5508H69.3945L74.0625 33.0469L75.7812 36.1719H75.8789C75.6836 34.8047 75.5859 33.3203 75.5859 31.7188V24.5508H78.1641V40H75.4688L70.8008 31.6602L69.082 28.4375H68.9844C69.1797 29.9609 69.2773 31.4453 69.2773 32.8906V40H66.6992ZM81.6211 40V24.5508H91.7578V26.7578H84.1992V30.9375H91.0156V33.1055H84.1992V37.8125H91.9531V40H81.6211ZM93.6328 27.6758L109.707 25.7617L110.059 28.0078C108.652 28.112 107.266 28.2747 105.898 28.4961C104.74 28.8737 103.77 29.5508 102.988 30.5273C102.207 31.4909 101.816 32.5781 101.816 33.7891C101.816 34.5052 101.934 35.1367 102.168 35.6836C102.402 36.2174 102.708 36.6471 103.086 36.9727C103.477 37.2852 103.965 37.5456 104.551 37.7539C105.15 37.9622 105.742 38.112 106.328 38.2031C106.927 38.2812 107.617 38.3398 108.398 38.3789L107.676 40.4688C102.181 40.3776 99.4336 38.151 99.4336 33.7891C99.4336 32.8906 99.6289 32.0247 100.02 31.1914C100.41 30.3451 100.938 29.6094 101.602 28.9844C100.911 29.0625 100.104 29.1602 99.1797 29.2773C98.2682 29.3815 97.2982 29.4987 96.2695 29.6289C95.2539 29.7461 94.5378 29.8307 94.1211 29.8828L93.6328 27.6758ZM106.602 30.1367L107.871 29.0039C108.939 29.9023 109.909 30.931 110.781 32.0898L109.531 33.2227C108.568 31.9987 107.591 30.9701 106.602 30.1367ZM104.609 31.6016L105.879 30.4688C106.96 31.3672 107.936 32.4023 108.809 33.5742L107.559 34.707C106.595 33.4831 105.612 32.4479 104.609 31.6016ZM156.719 37.7539C156.719 38.1185 156.816 38.418 157.012 38.6523C157.207 38.8867 157.467 39.0039 157.793 39.0039C158.118 39.0039 158.366 38.8802 158.535 38.6328C158.704 38.3854 158.789 38.0599 158.789 37.6562V35.1758C158.19 35.4492 157.695 35.8203 157.305 36.2891C156.914 36.7448 156.719 37.2331 156.719 37.7539ZM165.078 27.5977L166.543 25.918C168.04 26.8685 169.349 27.9427 170.469 29.1406L168.926 30.7617C167.702 29.4857 166.419 28.431 165.078 27.5977ZM154.395 37.8516C154.395 37.2005 154.531 36.582 154.805 35.9961C155.091 35.3971 155.462 34.8828 155.918 34.4531C156.374 34.0234 156.842 33.6589 157.324 33.3594C157.806 33.0469 158.294 32.793 158.789 32.5977V30.0391C157.357 30.2214 156.25 30.332 155.469 30.3711L155.312 28.1641C156.003 28.125 157.161 28.0078 158.789 27.8125V24.5508L161.172 24.375V27.4609C162.396 27.2266 163.379 27.0117 164.121 26.8164L164.297 29.0234C163.216 29.2708 162.174 29.4857 161.172 29.668V31.7969C162.083 31.5495 163.112 31.4258 164.258 31.4258C166.029 31.4258 167.513 31.8685 168.711 32.7539C169.922 33.6263 170.527 34.9219 170.527 36.6406C170.527 37.9167 170.137 38.9193 169.355 39.6484C168.574 40.3776 167.526 40.7422 166.211 40.7422C165.43 40.7422 164.714 40.5664 164.062 40.2148C163.411 39.8763 162.91 39.4271 162.559 38.8672L164.355 37.5C164.928 38.2422 165.573 38.6133 166.289 38.6133C166.875 38.6133 167.331 38.4375 167.656 38.0859C167.982 37.7214 168.145 37.2396 168.145 36.6406C168.145 35.7552 167.78 35.0326 167.051 34.4727C166.322 33.9128 165.378 33.6328 164.219 33.6328C163.138 33.6328 162.122 33.8086 161.172 34.1602V37.7148C161.172 38.7174 160.846 39.5378 160.195 40.1758C159.557 40.8268 158.73 41.1523 157.715 41.1523C156.712 41.1523 155.905 40.8529 155.293 40.2539C154.694 39.668 154.395 38.8672 154.395 37.8516ZM179.639 32.64H186.399V38.96H179.639V37H184.139V34.62H179.639V32.64ZM178.599 32.64H180.819V40.1H178.599V32.64ZM175.339 26.68H180.339V28.3H175.339V26.68ZM184.619 26.68H189.659V28.3H184.619V26.68ZM188.659 23.78H191.099V38.92C191.099 39.5867 191.019 40.1067 190.859 40.48C190.699 40.8533 190.412 41.14 189.999 41.34C189.572 41.54 189.039 41.6667 188.399 41.72C187.759 41.7733 186.972 41.8 186.039 41.8C186.025 41.56 185.972 41.2933 185.879 41C185.785 40.7067 185.685 40.4067 185.579 40.1C185.472 39.8067 185.352 39.5533 185.219 39.34C185.619 39.3667 186.019 39.3867 186.419 39.4C186.819 39.4 187.172 39.4 187.479 39.4C187.799 39.3867 188.025 39.38 188.159 39.38C188.345 39.38 188.472 39.3467 188.539 39.28C188.619 39.2 188.659 39.0667 188.659 38.88V23.78ZM175.519 23.78H181.859V31.26H175.519V29.44H179.599V25.6H175.519V23.78ZM189.959 23.78V25.6H185.479V29.48H189.959V31.28H183.199V23.78H189.959ZM174.159 23.78H176.539V41.8H174.159V23.78ZM195.176 32.8906C195.176 30.4688 195.286 28.1836 195.508 26.0352L197.891 26.3867C197.669 28.6914 197.559 30.8529 197.559 32.8711C197.559 36.1914 197.949 37.8516 198.73 37.8516C199.108 37.8516 199.44 37.6042 199.727 37.1094C200.026 36.6146 200.312 35.8594 200.586 34.8438L202.656 35.7422C201.953 38.6198 200.651 40.0586 198.75 40.0586C198.047 40.0586 197.461 39.9023 196.992 39.5898C196.523 39.2643 196.159 38.776 195.898 38.125C195.638 37.474 195.449 36.7318 195.332 35.8984C195.228 35.0651 195.176 34.0625 195.176 32.8906ZM206.133 27.7344L208.281 26.7773C208.906 27.8451 209.453 29.1862 209.922 30.8008C210.391 32.4154 210.658 33.9453 210.723 35.3906L208.438 36.25C208.385 34.7786 208.138 33.2617 207.695 31.6992C207.266 30.1237 206.745 28.8021 206.133 27.7344ZM217.579 29.46H227.599V31.58H217.579V29.46ZM217.319 38.96H227.659V41.08H217.319V38.96ZM216.259 33.58H229.019V41.82H226.539V35.68H218.619V41.82H216.259V33.58ZM222.499 25.38C221.952 26.1667 221.259 26.9667 220.419 27.78C219.592 28.5933 218.665 29.3733 217.639 30.12C216.625 30.8667 215.572 31.54 214.479 32.14C214.372 31.9533 214.232 31.74 214.059 31.5C213.899 31.26 213.719 31.0267 213.519 30.8C213.332 30.56 213.145 30.36 212.959 30.2C214.119 29.6267 215.225 28.94 216.279 28.14C217.345 27.34 218.299 26.4933 219.139 25.6C219.979 24.7067 220.645 23.8533 221.139 23.04H223.639C224.172 23.8 224.772 24.5267 225.439 25.22C226.105 25.9133 226.805 26.56 227.539 27.16C228.285 27.76 229.059 28.2933 229.859 28.76C230.659 29.2267 231.452 29.62 232.239 29.94C231.945 30.2467 231.665 30.5933 231.399 30.98C231.132 31.3533 230.892 31.7267 230.679 32.1C229.905 31.7 229.125 31.24 228.339 30.72C227.552 30.1867 226.792 29.6267 226.059 29.04C225.339 28.44 224.672 27.8333 224.059 27.22C223.445 26.5933 222.925 25.98 222.499 25.38ZM239.961 29.4727V29.9609C240.755 29.401 241.654 28.9648 242.656 28.6523C243.659 28.3398 244.596 28.1836 245.469 28.1836C247.318 28.1836 248.698 28.6589 249.609 29.6094C250.521 30.5469 250.977 31.8229 250.977 33.4375C250.977 35.1953 250.371 36.6276 249.16 37.7344C247.962 38.8411 246.341 39.6354 244.297 40.1172L243.203 38.1445C243.997 37.9102 244.674 37.6758 245.234 37.4414C245.807 37.207 246.367 36.9076 246.914 36.543C247.461 36.1784 247.878 35.7357 248.164 35.2148C248.451 34.694 248.594 34.1016 248.594 33.4375C248.594 32.5 248.32 31.7513 247.773 31.1914C247.227 30.6315 246.458 30.3516 245.469 30.3516C244.583 30.3516 243.639 30.5794 242.637 31.0352C241.647 31.4779 240.755 32.0703 239.961 32.8125V40.918H237.617V34.9609C236.719 35.9896 235.892 37.1029 235.137 38.3008L233.418 36.8359C234.837 34.8698 236.237 33.112 237.617 31.5625V30.0977L234.395 30.9766L233.75 28.7695L237.617 27.832V23.9258H239.961V27.3828L240.215 27.2852L240.801 28.4766L239.961 29.4727ZM262.188 33.9258H263.34C263.822 33.9258 264.154 33.8281 264.336 33.6328C264.531 33.4245 264.629 33.0664 264.629 32.5586V31.6602L259.863 31.9922V36.6406C259.863 37.1745 259.961 37.5326 260.156 37.7148C260.352 37.8841 260.729 37.9688 261.289 37.9688C264.831 37.9688 267.285 37.9167 268.652 37.8125L268.242 40.0195C267.044 40.1107 264.538 40.1562 260.723 40.1562C259.668 40.1562 258.861 39.8958 258.301 39.375C257.741 38.8542 257.461 38.125 257.461 37.1875V32.1484L253.809 32.3828L253.477 30.2148L257.461 29.9414V25.957H259.863V29.7656L264.629 29.4727V24.9414H267.031V29.2969L270.859 29.043L271.23 31.2305L267.031 31.5039V33.1641C267.031 34.1016 266.758 34.8307 266.211 35.3516C265.664 35.8594 264.896 36.1133 263.906 36.1133H262.539L262.188 33.9258Z" fill="white"/>
<path d="M114.559 28.24H116.719V41.78H114.559V28.24ZM118.759 34.4H120.919V40.72H118.759V34.4ZM119.719 34.4H126.359V40.04H119.719V38.7H124.239V35.72H119.719V34.4ZM115.719 28.24H122.059V33.64H115.719V32.26H119.899V29.62H115.719V28.24ZM115.739 30.28H120.499V31.58H115.739V30.28ZM119.739 36.56H125.219V37.86H119.739V36.56ZM124.539 30.28H129.439V31.58H124.539V30.28ZM129.179 28.24V29.62H125.379V32.26H129.179V33.64H123.219V28.24H129.179ZM128.639 28.24H130.879V39.38C130.879 39.9267 130.805 40.36 130.659 40.68C130.525 41 130.285 41.24 129.939 41.4C129.565 41.5867 129.112 41.7 128.579 41.74C128.059 41.78 127.419 41.7933 126.659 41.78C126.632 41.4733 126.552 41.1133 126.419 40.7C126.285 40.3 126.145 39.96 125.999 39.68C126.452 39.7067 126.899 39.72 127.339 39.72C127.792 39.72 128.092 39.72 128.239 39.72C128.505 39.72 128.639 39.6 128.639 39.36V28.24ZM115.959 24.42H122.279V26.24H115.959V24.42ZM124.019 24.42H131.699V26.24H124.019V24.42ZM116.059 22.84L118.279 23.46C117.892 24.34 117.399 25.2 116.799 26.04C116.212 26.88 115.625 27.5867 115.039 28.16C114.892 28.0267 114.699 27.88 114.459 27.72C114.219 27.56 113.979 27.4 113.739 27.24C113.499 27.08 113.279 26.9533 113.079 26.86C113.705 26.3667 114.279 25.7667 114.799 25.06C115.332 24.34 115.752 23.6 116.059 22.84ZM124.219 22.84L126.499 23.4C126.125 24.2933 125.645 25.1467 125.059 25.96C124.472 26.76 123.879 27.4267 123.279 27.96C123.119 27.84 122.905 27.7133 122.639 27.58C122.385 27.4333 122.125 27.2933 121.859 27.16C121.592 27.0133 121.359 26.9 121.159 26.82C121.812 26.3533 122.405 25.7667 122.939 25.06C123.485 24.34 123.912 23.6 124.219 22.84ZM116.719 25.94L118.699 25.4C118.925 25.72 119.152 26.08 119.379 26.48C119.605 26.88 119.779 27.2333 119.899 27.54L117.799 28.12C117.705 27.8267 117.559 27.4733 117.359 27.06C117.159 26.6467 116.945 26.2733 116.719 25.94ZM125.659 25.92L127.699 25.38C127.979 25.7 128.265 26.0667 128.559 26.48C128.852 26.88 129.072 27.24 129.219 27.56L127.079 28.14C126.959 27.8467 126.765 27.4933 126.499 27.08C126.232 26.6533 125.952 26.2667 125.659 25.92ZM141.279 27.64H143.759V41.78H141.279V27.64ZM137.639 31.64V33H147.559V31.64H137.639ZM137.639 28.46V29.82H147.559V28.46H137.639ZM135.299 26.5H150.039V34.98H135.299V26.5ZM133.519 36.28H151.659V38.5H133.519V36.28ZM135.299 24.04L137.379 23.1C137.752 23.5267 138.132 24.0067 138.519 24.54C138.905 25.06 139.199 25.52 139.399 25.92L137.199 26.96C137.025 26.56 136.752 26.0867 136.379 25.54C136.019 24.98 135.659 24.48 135.299 24.04ZM140.219 23.74L142.359 22.92C142.705 23.3867 143.045 23.9 143.379 24.46C143.725 25.0067 143.979 25.4933 144.139 25.92L141.839 26.84C141.719 26.4267 141.499 25.9333 141.179 25.36C140.872 24.7733 140.552 24.2333 140.219 23.74ZM147.659 23L150.319 23.78C149.892 24.4467 149.452 25.1 148.999 25.74C148.559 26.38 148.159 26.92 147.799 27.36L145.679 26.62C145.919 26.2867 146.159 25.9133 146.399 25.5C146.652 25.0867 146.885 24.66 147.099 24.22C147.325 23.78 147.512 23.3733 147.659 23Z" fill="#FFEE6C"/>
</g>
</g>
<defs>
<filter id="filter0_d_119_504" x="0" y="0" width="320" height="72" filterUnits="userSpaceOnUse" color-interpolation-filters="sRGB">
<feFlood flood-opacity="0" result="BackgroundImageFix"/>
<feColorMatrix in="SourceAlpha" type="matrix" values="0 0 0 0 0 0 0 0 0 0 0 0 0 0 0 0 0 0 127 0" result="hardAlpha"/>
<feOffset dy="2"/>
<feGaussianBlur stdDeviation="5"/>
<feComposite in2="hardAlpha" operator="out"/>
<feColorMatrix type="matrix" values="0 0 0 0 0 0 0 0 0 0 0 0 0 0 0 0 0 0 0.2 0"/>
<feBlend mode="normal" in2="BackgroundImageFix" result="effect1_dropShadow_119_504"/>
<feBlend mode="normal" in="SourceGraphic" in2="effect1_dropShadow_119_504" result="shape"/>
</filter>
<filter id="filter1_d_119_504" x="47.1797" y="20.8401" width="226.051" height="22.98" filterUnits="userSpaceOnUse" color-interpolation-filters="sRGB">
<feFlood flood-opacity="0" result="BackgroundImageFix"/>
<feColorMatrix in="SourceAlpha" type="matrix" values="0 0 0 0 0 0 0 0 0 0 0 0 0 0 0 0 0 0 127 0" result="hardAlpha"/>
<feOffset/>
<feGaussianBlur stdDeviation="1"/>
<feColorMatrix type="matrix" values="0 0 0 0 0 0 0 0 0 0 0 0 0 0 0 0 0 0 0.3 0"/>
<feBlend mode="plus-darker" in2="BackgroundImageFix" result="effect1_dropShadow_119_504"/>
<feBlend mode="normal" in="SourceGraphic" in2="effect1_dropShadow_119_504" result="shape"/>
</filter>
<linearGradient id="paint0_linear_119_504" x1="160" y1="34" x2="160" y2="53.6585" gradientUnits="userSpaceOnUse">
<stop stop-color="#09AC28" stop-opacity="0"/>
<stop offset="1" stop-color="#09AC28"/>
</linearGradient>
</defs>
</svg>
