<svg width="117" height="15" viewBox="0 0 117 15" fill="none" xmlns="http://www.w3.org/2000/svg">
<path d="M0 11.9151V1.25395C0 1.17002 0.0485496 1.11884 0.128171 1.11884H4.32092C5.84149 1.11884 7.05717 1.44023 8.36995 3.14339C8.44957 3.24369 8.51366 3.21094 8.51366 3.09221C8.49813 3.00828 8.49812 2.92435 8.49812 2.83837C8.49812 1.33787 9.61865 0.173096 11.0111 0.173096C12.4035 0.173096 13.524 1.33787 13.524 2.83837C13.524 4.47398 12.4831 5.48727 11.0111 5.48727C10.5625 5.48727 10.1469 5.38697 9.79537 5.20069C9.70021 5.14951 9.65166 5.18431 9.71575 5.28461C10.7722 7.32554 11.9723 10.3122 13.4599 14.6991C13.4929 14.783 13.4444 14.8505 13.3473 14.8505H11.4266C11.3626 14.8505 11.2985 14.8157 11.2829 14.7318C7.76211 4.03591 6.24154 3.02466 3.90533 3.02466H2.00024C1.92062 3.02466 1.87207 3.07583 1.87207 3.15976V11.9151C1.87207 11.999 1.82352 12.0502 1.7439 12.0502H0.128171C0.0485496 12.0502 0 11.999 0 11.9151ZM11.0111 3.80049C11.5548 3.80049 11.9704 3.44635 11.9704 2.83837C11.9704 2.26519 11.5548 1.82508 11.0111 1.82508C10.5158 1.82508 10.0828 2.26315 10.0828 2.83837C10.0828 3.44635 10.5158 3.80049 11.0111 3.80049Z" fill="url(#paint0_linear_1_3633)"/>
<path d="M17.4047 3.868L18.8127 10.5312C18.8282 10.6315 18.7816 10.6827 18.7 10.6827H17.1484C17.0843 10.6827 17.0202 10.6315 17.0047 10.5639L15.6123 3.90075C15.5967 3.80045 15.6453 3.74927 15.7249 3.74927H17.261C17.3251 3.74927 17.3892 3.80044 17.4047 3.868ZM16.6202 12.9938C23.6307 12.9938 24.8309 11.6939 24.8309 8.55782V4.15459C24.8309 4.07066 24.8794 4.01948 24.959 4.01948H26.4C26.4796 4.01948 26.5282 4.07066 26.5282 4.15459V8.84441C26.5282 12.2528 25.4406 14.8669 17.1814 14.8669C17.1018 14.8669 17.0532 14.8341 17.0377 14.7666L16.5095 13.1473C16.4764 13.0634 16.525 12.9959 16.6221 12.9959L16.6202 12.9938ZM19.036 3.74927H20.5721C20.6362 3.74927 20.7003 3.80044 20.7158 3.868L22.1082 10.5312C22.1237 10.6315 22.0771 10.6827 21.9956 10.6827H20.4595C20.3954 10.6827 20.3313 10.6315 20.3157 10.5639L18.9233 3.90075C18.9078 3.80045 18.9544 3.74927 19.036 3.74927Z" fill="url(#paint1_linear_1_3633)"/>
<path d="M30.4016 0.424805H32.0504C32.13 0.424805 32.1785 0.475982 32.1785 0.559912V5.08188C32.1785 5.14943 32.2116 5.2006 32.2912 5.23336L40.2611 7.86588C40.3407 7.90068 40.3737 7.94981 40.3737 8.01737V9.8065C40.3737 9.89043 40.3096 9.94161 40.23 9.90885L32.3242 7.31113C32.2446 7.27633 32.1805 7.3275 32.1805 7.41143V14.699C32.1805 14.7829 32.1319 14.8341 32.0523 14.8341H30.4036C30.3239 14.8341 30.2754 14.7829 30.2754 14.699V0.561959C30.2754 0.47803 30.3239 0.426852 30.4036 0.426852L30.4016 0.424805Z" fill="url(#paint2_linear_1_3633)"/>
<path d="M56.7989 12.607C56.8785 12.607 56.927 12.6582 56.927 12.7257V14.3797C56.927 14.4473 56.863 14.4821 56.7989 14.4637C56.4784 14.3797 55.9832 14.3286 55.3754 14.3286H48.126C47.4851 14.3286 47.021 14.3961 46.7025 14.48C46.6384 14.48 46.5743 14.4452 46.5743 14.3777V12.7237C46.5743 12.6561 46.6384 12.6049 46.7025 12.6049C47.0385 12.7052 47.5181 12.7564 48.126 12.7564H50.9419C51.0059 12.7564 51.07 12.7052 51.07 12.6377V8.90998C51.07 8.85881 51.0059 8.79125 50.9419 8.79125H48.9416C48.3823 8.79125 47.9182 8.82401 47.5978 8.94274C47.5337 8.94274 47.4851 8.90794 47.4851 8.82401V7.27233C47.4851 7.1884 47.5337 7.13723 47.5978 7.1536C47.9337 7.23753 48.3668 7.30509 48.9105 7.28871H50.9438C51.0079 7.28871 51.072 7.23753 51.072 7.16998V4.28567C51.072 4.20174 51.0079 4.15056 50.9438 4.15056H48.6542C48.0133 4.16694 47.5337 4.20174 47.2307 4.30204C47.1666 4.31842 47.1025 4.25087 47.1025 4.20174V3.61218C47.1025 3.51187 46.9588 3.49345 46.9258 3.5958C46.7666 4.28771 46.5568 4.91207 46.285 5.45044C46.1568 5.66948 46.1082 5.93969 46.1082 6.20991V14.8649C46.1082 14.9324 46.0442 15 45.9956 15H44.475C44.3954 15 44.3469 14.9324 44.3469 14.8649V7.94786C44.3469 7.84756 44.2342 7.78 44.1701 7.84756C43.8342 8.06659 43.4982 8.26925 43.1292 8.47191C43.0496 8.50671 42.9855 8.48829 42.937 8.42074L42.2961 7.08809C42.2631 7.02054 42.2806 6.93661 42.3272 6.92024C44.712 5.45249 45.3994 3.76571 45.7199 0.0871377C45.7199 0.0359611 45.7684 -0.0131692 45.8325 0.00320735L47.3686 0.373725C47.4171 0.390102 47.4638 0.441279 47.4638 0.508832C47.3686 1.14956 47.3045 1.72274 47.1919 2.27954C47.1919 2.36347 47.2404 2.46582 47.3356 2.4822C47.656 2.54975 48.1046 2.58251 48.6484 2.60093H52.074C52.1692 2.60093 52.2022 2.43307 52.107 2.36552C51.371 2.02775 50.4738 1.70841 49.4174 1.45458C49.3533 1.41978 49.3222 1.35427 49.3533 1.30309L50.0097 0.224291C50.0427 0.156738 50.0893 0.140361 50.1534 0.156737C51.5458 0.562056 52.7615 1.06768 53.8179 1.64086C53.8976 1.67566 53.9131 1.74117 53.882 1.82714L53.4975 2.40032C53.449 2.46787 53.4975 2.60298 53.6101 2.60298H54.954C55.6259 2.5866 56.0745 2.51905 56.426 2.4515C56.4746 2.43512 56.5212 2.4863 56.5212 2.5518V4.20583C56.5212 4.25701 56.4726 4.32456 56.4085 4.30614C56.0726 4.20583 55.5754 4.17103 54.9676 4.15465H52.7421C52.6935 4.15465 52.6294 4.20583 52.6294 4.28976V7.17407C52.6294 7.24163 52.6935 7.2928 52.7421 7.2928H54.5831C55.1598 7.2928 55.624 7.22525 55.9599 7.1577C56.024 7.14132 56.0726 7.19045 56.0726 7.24162V8.8281C56.0726 8.91203 56.024 8.94683 55.9599 8.94683C55.624 8.8281 55.1598 8.79535 54.6161 8.79535H52.744C52.6955 8.79535 52.6314 8.8629 52.6314 8.91408V12.6418C52.6314 12.7093 52.6955 12.7605 52.744 12.7605H55.3366C56.024 12.7605 56.4726 12.7093 56.7931 12.609L56.7989 12.607Z" fill="url(#paint3_linear_1_3633)"/>
<path d="M59.3312 4.84682H64.9804C65.06 4.84682 65.1086 4.79565 65.1086 4.71172V3.07611C65.1086 2.99218 65.06 2.941 64.9804 2.941H58.6262C58.5466 2.941 58.498 2.88983 58.498 2.8059V1.45688C58.498 1.37295 58.5466 1.32178 58.6262 1.32178H64.9804C65.06 1.32178 65.1086 1.2706 65.1086 1.18667V0.46201C65.1086 0.37808 65.1571 0.326904 65.2367 0.326904H66.6136C66.6932 0.326904 66.7418 0.37808 66.7418 0.46201V1.18667C66.7418 1.2706 66.7903 1.32178 66.8699 1.32178H71.7035C71.7832 1.32178 71.8317 1.37295 71.8317 1.45688V2.8059C71.8317 2.88983 71.7832 2.941 71.7035 2.941H66.8699C66.7903 2.941 66.7418 2.99218 66.7418 3.07611V4.71172C66.7418 4.79565 66.7903 4.84682 66.8699 4.84682H71.0161C71.0957 4.84682 71.1442 4.898 71.1442 4.98193V6.33094C71.1442 6.41487 71.0957 6.46605 71.0161 6.46605H66.8699C66.7903 6.46605 66.7418 6.51723 66.7418 6.60116V7.91742C66.7418 7.98497 66.7748 8.05252 66.8389 8.08528C68.5983 8.86112 70.0878 10.4128 71.8803 13.1456C71.9288 13.2132 71.9133 13.2807 71.8647 13.3319L70.7928 14.4783C70.7287 14.5458 70.6646 14.5458 70.616 14.4619C69.2547 12.1159 68.072 10.7833 66.8874 10.0259C66.8078 9.97472 66.7437 10.0259 66.7437 10.1262V11.2398C66.7437 13.2807 65.7999 14.7996 62.918 14.7996C60.374 14.7996 58.6922 13.8375 58.6922 11.0719C58.6922 8.64208 61.0925 7.37699 62.9646 7.37699C63.7006 7.37699 64.357 7.42817 64.9649 7.52848C65.06 7.52848 65.1086 7.4773 65.1086 7.39337V6.60116C65.1086 6.51723 65.06 6.46605 64.9804 6.46605H59.3312C59.2515 6.46605 59.203 6.41487 59.203 6.33094V4.98193C59.203 4.898 59.2515 4.84682 59.3312 4.84682ZM62.9161 13.0965C64.66 13.0965 65.1086 11.9665 65.1086 10.8857V9.40154C65.1086 9.33399 65.0755 9.26643 64.9959 9.25006C64.3395 9.11495 63.6521 9.0822 62.9161 9.0822C61.3159 9.0822 60.3235 10.1119 60.3235 11.0904C60.3235 12.0689 61.0925 13.0985 62.9161 13.0985V13.0965Z" fill="url(#paint4_linear_1_3633)"/>
<path d="M73.9258 3.15774C73.9258 3.07381 73.9743 3.02263 74.0539 3.02263H75.5104C75.5901 3.02263 75.6386 3.07381 75.6386 3.15774V11.0369C75.6386 12.4207 76.7747 12.7237 79.7362 11.0021C79.8333 10.9345 79.8954 10.9857 79.8954 11.086V12.824C79.8954 12.8915 79.8624 12.9427 79.7828 12.9918C77.0621 14.7973 73.9258 14.4084 73.9258 11.6756V3.15569V3.15774ZM80.8237 2.29797L81.5112 1.04926C81.5442 0.98171 81.6083 0.965334 81.6879 0.98171C84.7601 1.89265 86.6011 3.27647 86.6011 6.75034V12.0973C86.6011 12.1812 86.5526 12.2324 86.4729 12.2324H84.9368C84.8572 12.2324 84.8087 12.1812 84.8087 12.0973V7.22116C84.8087 4.21812 83.8318 3.40748 80.8878 2.48016C80.7926 2.44536 80.7752 2.37781 80.8237 2.29388V2.29797Z" fill="url(#paint5_linear_1_3633)"/>
<path d="M88.8548 5.08194H101.515C101.594 5.08194 101.643 5.13311 101.643 5.21704V7.40945C101.643 11.0696 100.058 14.4616 90.0083 14.4943C89.9287 14.4943 89.8801 14.4432 89.8646 14.3756L89.3053 12.6725C89.2723 12.5885 89.3208 12.521 89.4179 12.521C97.7724 12.4862 99.8852 10.4125 99.8852 7.05531C99.8852 6.97138 99.8367 6.9202 99.7571 6.9202H88.8586C88.779 6.9202 88.7305 6.86903 88.7305 6.7851V5.21704C88.7305 5.13311 88.779 5.08194 88.8586 5.08194H88.8548ZM89.3344 1.13315C89.3344 1.04922 89.383 0.998047 89.4626 0.998047H100.874C100.953 0.998047 101.002 1.04922 101.002 1.13315V2.66845C101.002 2.75238 100.953 2.80356 100.874 2.80356H89.4626C89.383 2.80356 89.3344 2.75238 89.3344 2.66845V1.13315Z" fill="url(#paint6_linear_1_3633)"/>
<path d="M103.554 2.44954H109.108C109.188 2.44954 109.236 2.39836 109.236 2.31443V0.5601C109.236 0.476171 109.285 0.424993 109.364 0.424993H110.9C110.98 0.424993 111.029 0.476171 111.029 0.5601V2.31443C111.029 2.39836 111.077 2.44954 111.157 2.44954H113.221C113.301 2.44954 113.349 2.39836 113.349 2.31443V0.492547C113.349 0.408617 113.398 0.357441 113.478 0.357441H114.518C114.598 0.357441 114.647 0.408617 114.647 0.492547V2.31443C114.647 2.39836 114.695 2.44954 114.775 2.44954H115.111C115.19 2.44954 115.239 2.39836 115.239 2.31443V0.47617C115.239 0.39224 115.287 0.341064 115.367 0.341064H116.439C116.519 0.341064 116.567 0.39224 116.567 0.47617V2.31443C116.567 2.39836 116.616 2.44954 116.695 2.44954H116.872C116.952 2.44954 117 2.50072 117 2.58464V4.1527C117 4.23663 116.952 4.2878 116.872 4.2878H111.159C111.079 4.2878 111.031 4.33898 111.031 4.42291V14.7811C111.031 14.865 110.982 14.9162 110.902 14.9162H109.366C109.287 14.9162 109.238 14.865 109.238 14.7811V4.42291C109.238 4.33898 109.19 4.2878 109.11 4.2878H103.556C103.476 4.2878 103.428 4.23663 103.428 4.1527V2.58464C103.428 2.50072 103.476 2.44954 103.556 2.44954H103.554ZM104.531 5.80672C104.546 5.7228 104.579 5.68799 104.659 5.68799H106.292C106.372 5.68799 106.436 5.73917 106.42 5.83948L105.364 13.8701C105.348 13.954 105.315 13.9888 105.236 13.9888H103.603C103.523 13.9888 103.459 13.9377 103.474 13.8374L104.531 5.80672ZM114.085 5.68799H115.75C115.829 5.68799 115.862 5.72075 115.878 5.80672L116.934 13.8374C116.95 13.9397 116.886 13.9888 116.806 13.9888H115.142C115.062 13.9888 115.029 13.954 115.014 13.8701L113.957 5.83948C113.942 5.73713 114.006 5.68799 114.085 5.68799Z" fill="url(#paint7_linear_1_3633)"/>
<defs>
<linearGradient id="paint0_linear_1_3633" x1="6.76199" y1="7.69081" x2="6.76199" y2="14.8505" gradientUnits="userSpaceOnUse">
<stop stop-color="#F29945"/>
<stop offset="1" stop-color="#FF820D"/>
</linearGradient>
<linearGradient id="paint1_linear_1_3633" x1="21.0688" y1="9.44365" x2="21.0688" y2="14.8669" gradientUnits="userSpaceOnUse">
<stop stop-color="#F29945"/>
<stop offset="1" stop-color="#FF820D"/>
</linearGradient>
<linearGradient id="paint2_linear_1_3633" x1="35.3246" y1="7.80517" x2="35.3246" y2="14.8341" gradientUnits="userSpaceOnUse">
<stop stop-color="#F29945"/>
<stop offset="1" stop-color="#FF820D"/>
</linearGradient>
<linearGradient id="paint3_linear_1_3633" x1="49.6031" y1="7.68293" x2="49.6031" y2="15" gradientUnits="userSpaceOnUse">
<stop stop-color="#F29945"/>
<stop offset="1" stop-color="#FF820D"/>
</linearGradient>
<linearGradient id="paint4_linear_1_3633" x1="65.2039" y1="7.73977" x2="65.2039" y2="14.7996" gradientUnits="userSpaceOnUse">
<stop stop-color="#F29945"/>
<stop offset="1" stop-color="#FF820D"/>
</linearGradient>
<linearGradient id="paint5_linear_1_3633" x1="80.2634" y1="7.6958" x2="80.2634" y2="14.0958" gradientUnits="userSpaceOnUse">
<stop stop-color="#F29945"/>
<stop offset="1" stop-color="#FF820D"/>
</linearGradient>
<linearGradient id="paint6_linear_1_3633" x1="95.1866" y1="7.91078" x2="95.1866" y2="14.4943" gradientUnits="userSpaceOnUse">
<stop stop-color="#F29945"/>
<stop offset="1" stop-color="#FF820D"/>
</linearGradient>
<linearGradient id="paint7_linear_1_3633" x1="110.214" y1="7.80636" x2="110.214" y2="14.9162" gradientUnits="userSpaceOnUse">
<stop stop-color="#F29945"/>
<stop offset="1" stop-color="#FF820D"/>
</linearGradient>
</defs>
</svg>
