<svg width="158" height="52" viewBox="0 0 158 52" fill="none" xmlns="http://www.w3.org/2000/svg">
<path d="M107.904 41.896C104.917 41.896 102.714 40.5333 101.296 37.808C99.877 35.0827 99.1676 31.368 99.1676 26.664C99.1676 22.856 99.9516 19.0293 101.52 15.184C103.125 11.3013 105.346 8.10933 108.184 5.608C111.021 3.06933 114.176 1.8 117.648 1.8C120.634 1.8 122.837 3.16266 124.256 5.888C125.674 8.61333 126.384 12.328 126.384 17.032C126.384 20.84 125.581 24.6853 123.976 28.568C122.408 32.4133 120.205 35.6053 117.368 38.144C114.53 40.6453 111.376 41.896 107.904 41.896ZM107.792 40.104C110.256 40.104 112.272 39.0213 113.84 36.856C115.445 34.6533 116.901 31.592 118.208 27.672C119.29 24.424 120.168 21.3067 120.84 18.32C121.549 15.3333 121.904 12.8133 121.904 10.76C121.904 5.98133 120.522 3.592 117.76 3.592C115.37 3.592 113.354 4.712 111.712 6.952C110.069 9.15466 108.613 12.1787 107.344 16.024C104.88 23.416 103.648 29.072 103.648 32.992C103.648 37.7333 105.029 40.104 107.792 40.104ZM132.436 39.208H137.644C138.204 39.208 138.633 39.096 138.932 38.872C139.231 38.648 139.455 38.2747 139.604 37.752L141.844 29.352H128.964L129.524 27.336L141.62 16.472C143.673 14.456 145.689 11.992 147.668 9.08C149.647 6.168 150.841 3.85333 151.252 2.136H155.844C155.545 3.55467 154.799 5.06667 153.604 6.672C152.409 8.27733 150.636 10.2 148.284 12.44L131.876 27.336H142.348L144.812 18.824C146.268 17.816 147.556 16.6213 148.676 15.24C149.796 13.8213 150.636 12.4213 151.196 11.04H152.148L147.668 27.336H156.516L155.956 29.352H147.164L144.924 37.752C144.849 38.0507 144.812 38.256 144.812 38.368C144.812 38.6667 144.905 38.8907 145.092 39.04C145.316 39.152 145.652 39.208 146.1 39.208H151.308L150.804 41H131.932L132.436 39.208Z" fill="url(#paint0_linear_1_3478)"/>
<path d="M107.904 41.896C104.917 41.896 102.714 40.5333 101.296 37.808C99.877 35.0827 99.1676 31.368 99.1676 26.664C99.1676 22.856 99.9516 19.0293 101.52 15.184C103.125 11.3013 105.346 8.10933 108.184 5.608C111.021 3.06933 114.176 1.8 117.648 1.8C120.634 1.8 122.837 3.16266 124.256 5.888C125.674 8.61333 126.384 12.328 126.384 17.032C126.384 20.84 125.581 24.6853 123.976 28.568C122.408 32.4133 120.205 35.6053 117.368 38.144C114.53 40.6453 111.376 41.896 107.904 41.896ZM107.792 40.104C110.256 40.104 112.272 39.0213 113.84 36.856C115.445 34.6533 116.901 31.592 118.208 27.672C119.29 24.424 120.168 21.3067 120.84 18.32C121.549 15.3333 121.904 12.8133 121.904 10.76C121.904 5.98133 120.522 3.592 117.76 3.592C115.37 3.592 113.354 4.712 111.712 6.952C110.069 9.15466 108.613 12.1787 107.344 16.024C104.88 23.416 103.648 29.072 103.648 32.992C103.648 37.7333 105.029 40.104 107.792 40.104ZM132.436 39.208H137.644C138.204 39.208 138.633 39.096 138.932 38.872C139.231 38.648 139.455 38.2747 139.604 37.752L141.844 29.352H128.964L129.524 27.336L141.62 16.472C143.673 14.456 145.689 11.992 147.668 9.08C149.647 6.168 150.841 3.85333 151.252 2.136H155.844C155.545 3.55467 154.799 5.06667 153.604 6.672C152.409 8.27733 150.636 10.2 148.284 12.44L131.876 27.336H142.348L144.812 18.824C146.268 17.816 147.556 16.6213 148.676 15.24C149.796 13.8213 150.636 12.4213 151.196 11.04H152.148L147.668 27.336H156.516L155.956 29.352H147.164L144.924 37.752C144.849 38.0507 144.812 38.256 144.812 38.368C144.812 38.6667 144.905 38.8907 145.092 39.04C145.316 39.152 145.652 39.208 146.1 39.208H151.308L150.804 41H131.932L132.436 39.208Z" fill="url(#paint1_linear_1_3478)"/>
<path d="M2.7209 45.2034C1.82675 44.7699 1.14893 44.2016 0.692242 43.5032C0.230747 42.8048 0 42.0631 0 41.2733C0 40.2474 0.307663 39.4238 0.927797 38.8073C1.54793 38.1909 2.24979 37.8778 3.03817 37.8778C3.53813 37.8778 3.97559 38.0175 4.36017 38.292C4.73994 38.5665 4.93223 38.8651 4.93223 39.183C4.93223 39.2601 4.89858 39.3323 4.83608 39.3997L4.61976 39.6165C4.35536 39.9054 4.15345 40.1944 4.00924 40.4834C3.86502 40.7724 3.79291 41.1529 3.79291 41.6297C3.79291 42.3425 4.01404 42.9397 4.46112 43.4261C4.90819 43.9126 5.55236 44.1582 6.39363 44.1582C7.57621 44.1582 8.58092 43.6718 9.40777 42.6989C10.2346 41.726 10.9317 40.5219 11.4989 39.0867C12.0614 37.6514 12.7248 35.6864 13.4891 33.1819C14.2006 30.8412 14.8351 28.9051 15.4024 27.3783C15.9696 25.8515 16.6763 24.4211 17.532 23.0918C18.3877 21.7625 19.3924 20.7704 20.5461 20.1105C20.8105 19.9516 21.099 19.8264 21.4114 19.7349C21.7287 19.6434 22.0172 19.5952 22.2767 19.5952C22.4883 19.5952 22.6565 19.6241 22.7911 19.6723C22.9209 19.7252 22.9882 19.8023 22.9882 19.9083C22.9882 20.0383 22.8969 20.1972 22.7142 20.3802C22.2431 20.8811 21.7816 21.488 21.3345 22.196C20.7048 23.2219 20.1471 24.397 19.6568 25.7119C19.1713 27.0267 18.6136 28.8039 17.9839 31.0435C17.0369 34.256 16.1523 36.8375 15.3207 38.7833C14.4938 40.7338 13.3112 42.3955 11.7729 43.7777C10.2346 45.16 8.25883 45.8536 5.84079 45.8536C4.65821 45.8536 3.61985 45.6368 2.7257 45.2034H2.7209ZM32.146 29.2278C31.0019 30.8605 29.2569 32.1946 26.9013 33.2349C24.5506 34.2752 21.6374 34.7954 18.1714 34.7954C17.7243 34.7954 17.1811 34.7617 16.5369 34.6942C15.8927 34.6268 15.388 34.5546 15.0178 34.4775L15.412 32.8978C15.6476 33.0037 16.0369 33.076 16.5754 33.1145C17.1138 33.153 17.5416 33.1723 17.8589 33.1723C20.3298 33.1723 22.4835 32.7774 24.3246 31.9875C26.1658 31.1976 27.5791 30.1091 28.5598 28.7317C29.5453 27.3494 30.0404 25.7648 30.0404 23.9732C30.0404 22.5524 29.627 21.3002 28.8002 20.2213C27.9733 19.1425 26.8004 18.3141 25.2909 17.7313C23.7814 17.1533 22.0268 16.8644 20.027 16.8644C17.6089 16.8644 15.4264 17.2641 13.4843 18.0684C11.5374 18.8728 10.0135 19.9034 8.91262 21.1701C7.81176 22.4368 7.25893 23.7516 7.25893 25.1195C7.25893 26.0153 7.49929 26.704 7.98963 27.1905C8.47516 27.6769 9.08568 27.9225 9.82119 27.9225C10.2683 27.9225 10.7009 27.831 11.1239 27.648C11.5422 27.465 11.8739 27.2916 12.1094 27.1327C12.2681 27.0267 12.3594 26.9737 12.3834 26.9737C12.619 26.9737 12.7392 27.1712 12.7392 27.5661C12.7392 28.067 12.5613 28.6016 12.2056 29.1651C11.8498 29.7335 11.3403 30.2055 10.6673 30.5859C9.99906 30.9664 9.18663 31.1591 8.24441 31.1591C6.95607 31.1591 5.88406 30.7641 5.03318 29.9743C4.17749 29.1844 3.74965 28.0526 3.74965 26.5788C3.74965 24.7101 4.46592 22.904 5.89848 21.1701C7.33104 19.4314 9.34046 18.0106 11.9316 16.9029C14.5179 15.7951 17.431 15.2461 20.6615 15.2461C23.2622 15.2461 25.5601 15.6218 27.5599 16.3731C29.5549 17.1244 31.1076 18.1696 32.2133 19.5133C33.319 20.8571 33.867 22.3838 33.867 24.0936C33.867 25.8034 33.2949 27.595 32.1508 29.2278H32.146Z" fill="url(#paint2_linear_1_3478)"/>
<path d="M2.7209 45.2034C1.82675 44.7699 1.14893 44.2016 0.692242 43.5032C0.230747 42.8048 0 42.0631 0 41.2733C0 40.2474 0.307663 39.4238 0.927797 38.8073C1.54793 38.1909 2.24979 37.8778 3.03817 37.8778C3.53813 37.8778 3.97559 38.0175 4.36017 38.292C4.73994 38.5665 4.93223 38.8651 4.93223 39.183C4.93223 39.2601 4.89858 39.3323 4.83608 39.3997L4.61976 39.6165C4.35536 39.9054 4.15345 40.1944 4.00924 40.4834C3.86502 40.7724 3.79291 41.1529 3.79291 41.6297C3.79291 42.3425 4.01404 42.9397 4.46112 43.4261C4.90819 43.9126 5.55236 44.1582 6.39363 44.1582C7.57621 44.1582 8.58092 43.6718 9.40777 42.6989C10.2346 41.726 10.9317 40.5219 11.4989 39.0867C12.0614 37.6514 12.7248 35.6864 13.4891 33.1819C14.2006 30.8412 14.8351 28.9051 15.4024 27.3783C15.9696 25.8515 16.6763 24.4211 17.532 23.0918C18.3877 21.7625 19.3924 20.7704 20.5461 20.1105C20.8105 19.9516 21.099 19.8264 21.4114 19.7349C21.7287 19.6434 22.0172 19.5952 22.2767 19.5952C22.4883 19.5952 22.6565 19.6241 22.7911 19.6723C22.9209 19.7252 22.9882 19.8023 22.9882 19.9083C22.9882 20.0383 22.8969 20.1972 22.7142 20.3802C22.2431 20.8811 21.7816 21.488 21.3345 22.196C20.7048 23.2219 20.1471 24.397 19.6568 25.7119C19.1713 27.0267 18.6136 28.8039 17.9839 31.0435C17.0369 34.256 16.1523 36.8375 15.3207 38.7833C14.4938 40.7338 13.3112 42.3955 11.7729 43.7777C10.2346 45.16 8.25883 45.8536 5.84079 45.8536C4.65821 45.8536 3.61985 45.6368 2.7257 45.2034H2.7209ZM32.146 29.2278C31.0019 30.8605 29.2569 32.1946 26.9013 33.2349C24.5506 34.2752 21.6374 34.7954 18.1714 34.7954C17.7243 34.7954 17.1811 34.7617 16.5369 34.6942C15.8927 34.6268 15.388 34.5546 15.0178 34.4775L15.412 32.8978C15.6476 33.0037 16.0369 33.076 16.5754 33.1145C17.1138 33.153 17.5416 33.1723 17.8589 33.1723C20.3298 33.1723 22.4835 32.7774 24.3246 31.9875C26.1658 31.1976 27.5791 30.1091 28.5598 28.7317C29.5453 27.3494 30.0404 25.7648 30.0404 23.9732C30.0404 22.5524 29.627 21.3002 28.8002 20.2213C27.9733 19.1425 26.8004 18.3141 25.2909 17.7313C23.7814 17.1533 22.0268 16.8644 20.027 16.8644C17.6089 16.8644 15.4264 17.2641 13.4843 18.0684C11.5374 18.8728 10.0135 19.9034 8.91262 21.1701C7.81176 22.4368 7.25893 23.7516 7.25893 25.1195C7.25893 26.0153 7.49929 26.704 7.98963 27.1905C8.47516 27.6769 9.08568 27.9225 9.82119 27.9225C10.2683 27.9225 10.7009 27.831 11.1239 27.648C11.5422 27.465 11.8739 27.2916 12.1094 27.1327C12.2681 27.0267 12.3594 26.9737 12.3834 26.9737C12.619 26.9737 12.7392 27.1712 12.7392 27.5661C12.7392 28.067 12.5613 28.6016 12.2056 29.1651C11.8498 29.7335 11.3403 30.2055 10.6673 30.5859C9.99906 30.9664 9.18663 31.1591 8.24441 31.1591C6.95607 31.1591 5.88406 30.7641 5.03318 29.9743C4.17749 29.1844 3.74965 28.0526 3.74965 26.5788C3.74965 24.7101 4.46592 22.904 5.89848 21.1701C7.33104 19.4314 9.34046 18.0106 11.9316 16.9029C14.5179 15.7951 17.431 15.2461 20.6615 15.2461C23.2622 15.2461 25.5601 15.6218 27.5599 16.3731C29.5549 17.1244 31.1076 18.1696 32.2133 19.5133C33.319 20.8571 33.867 22.3838 33.867 24.0936C33.867 25.8034 33.2949 27.595 32.1508 29.2278H32.146Z" fill="url(#paint3_linear_1_3478)"/>
<path d="M40.0774 35.248C39.1592 34.8386 38.4429 34.2799 37.9285 33.5719C37.4141 32.8639 37.1594 32.0692 37.1594 31.2023C37.1594 30.1475 37.5055 29.2806 38.2025 28.5967C38.8996 27.9128 39.7312 27.5708 40.7071 27.5708C41.4955 27.5708 42.2262 27.8212 42.8944 28.3221C43.5626 28.823 44.0962 29.5407 44.4904 30.475C44.8846 31.4094 45.0817 32.4979 45.0817 33.7356C45.0817 35.3395 44.7404 36.9144 44.0578 38.4556C43.3751 39.9968 42.4137 41.2539 41.1782 42.2267C39.9428 43.1996 38.539 43.6861 36.9623 43.6861C35.3855 43.6861 34.1885 43.1804 33.2943 42.1641C32.4002 41.1527 31.9531 39.8812 31.9531 38.3545C31.9531 36.9336 32.3233 35.5514 33.0588 34.2076C33.7943 32.8639 34.674 31.7658 35.698 30.9085C36.7219 30.0512 37.5632 29.6225 38.2218 29.6225C38.5871 29.6225 38.7746 29.8056 38.7746 30.1764C38.7746 30.4413 38.5006 30.7447 37.9478 31.0867C37.4238 31.3516 36.9238 31.8236 36.4479 32.5075C35.9768 33.1914 35.5922 33.9813 35.3038 34.8771C35.0153 35.7729 34.8711 36.6399 34.8711 37.4827C34.8711 38.6964 35.1355 39.7126 35.6595 40.5459C36.1835 41.3743 36.9478 41.7885 37.9478 41.7885C38.8659 41.7885 39.7024 41.4417 40.4523 40.7433C41.2023 40.045 41.7791 39.1251 42.1877 37.9788C42.5964 36.8325 42.7983 35.5755 42.7983 34.2076C42.7983 32.9699 42.5819 31.9344 42.1493 31.106C41.7166 30.2776 41.183 29.8634 40.5533 29.8634C40.1831 29.8634 39.8851 30.0078 39.6447 30.2968C39.4092 30.5858 39.289 30.9807 39.289 31.4816C39.289 32.3774 39.6495 33.1143 40.3706 33.6923C41.0917 34.2702 42.0579 34.5592 43.2694 34.5592C44.2693 34.5592 45.1923 34.2895 46.0479 33.7501C46.9036 33.2107 47.7497 32.4786 48.591 31.5587C48.7737 31.3757 48.9515 31.1782 49.1246 30.9663C49.2928 30.7544 49.4611 30.5713 49.6149 30.4124C49.8264 30.2005 50.0091 30.0945 50.1678 30.0945C50.2447 30.0945 50.3264 30.1331 50.4033 30.2149C50.4802 30.2968 50.5235 30.4124 50.5235 30.5713C50.5235 30.7544 50.4466 30.9807 50.2879 31.2408C49.4755 32.4786 48.4131 33.5574 47.1152 34.4773C45.8124 35.3973 44.4952 35.8596 43.154 35.8596C42.0243 35.8596 41.0003 35.6573 40.0774 35.248Z" fill="url(#paint4_linear_1_3478)"/>
<path d="M40.0774 35.248C39.1592 34.8386 38.4429 34.2799 37.9285 33.5719C37.4141 32.8639 37.1594 32.0692 37.1594 31.2023C37.1594 30.1475 37.5055 29.2806 38.2025 28.5967C38.8996 27.9128 39.7312 27.5708 40.7071 27.5708C41.4955 27.5708 42.2262 27.8212 42.8944 28.3221C43.5626 28.823 44.0962 29.5407 44.4904 30.475C44.8846 31.4094 45.0817 32.4979 45.0817 33.7356C45.0817 35.3395 44.7404 36.9144 44.0578 38.4556C43.3751 39.9968 42.4137 41.2539 41.1782 42.2267C39.9428 43.1996 38.539 43.6861 36.9623 43.6861C35.3855 43.6861 34.1885 43.1804 33.2943 42.1641C32.4002 41.1527 31.9531 39.8812 31.9531 38.3545C31.9531 36.9336 32.3233 35.5514 33.0588 34.2076C33.7943 32.8639 34.674 31.7658 35.698 30.9085C36.7219 30.0512 37.5632 29.6225 38.2218 29.6225C38.5871 29.6225 38.7746 29.8056 38.7746 30.1764C38.7746 30.4413 38.5006 30.7447 37.9478 31.0867C37.4238 31.3516 36.9238 31.8236 36.4479 32.5075C35.9768 33.1914 35.5922 33.9813 35.3038 34.8771C35.0153 35.7729 34.8711 36.6399 34.8711 37.4827C34.8711 38.6964 35.1355 39.7126 35.6595 40.5459C36.1835 41.3743 36.9478 41.7885 37.9478 41.7885C38.8659 41.7885 39.7024 41.4417 40.4523 40.7433C41.2023 40.045 41.7791 39.1251 42.1877 37.9788C42.5964 36.8325 42.7983 35.5755 42.7983 34.2076C42.7983 32.9699 42.5819 31.9344 42.1493 31.106C41.7166 30.2776 41.183 29.8634 40.5533 29.8634C40.1831 29.8634 39.8851 30.0078 39.6447 30.2968C39.4092 30.5858 39.289 30.9807 39.289 31.4816C39.289 32.3774 39.6495 33.1143 40.3706 33.6923C41.0917 34.2702 42.0579 34.5592 43.2694 34.5592C44.2693 34.5592 45.1923 34.2895 46.0479 33.7501C46.9036 33.2107 47.7497 32.4786 48.591 31.5587C48.7737 31.3757 48.9515 31.1782 49.1246 30.9663C49.2928 30.7544 49.4611 30.5713 49.6149 30.4124C49.8264 30.2005 50.0091 30.0945 50.1678 30.0945C50.2447 30.0945 50.3264 30.1331 50.4033 30.2149C50.4802 30.2968 50.5235 30.4124 50.5235 30.5713C50.5235 30.7544 50.4466 30.9807 50.2879 31.2408C49.4755 32.4786 48.4131 33.5574 47.1152 34.4773C45.8124 35.3973 44.4952 35.8596 43.154 35.8596C42.0243 35.8596 41.0003 35.6573 40.0774 35.248Z" fill="url(#paint5_linear_1_3478)"/>
<path d="M54.5569 28.8522C54.8597 29.1556 55.0088 29.5024 55.0088 29.8973C55.0088 30.0562 54.9799 30.2007 54.9319 30.3308C54.879 30.4608 54.7876 30.6342 54.6578 30.8461C54.4223 31.1881 54.2108 31.5589 54.0281 31.9539C53.4512 33.1387 53.0186 34.3524 52.7253 35.5853C52.4369 36.8231 52.2927 37.902 52.2927 38.8219C52.2927 39.7418 52.4321 40.4498 52.7061 40.8543C52.9801 41.2637 53.3166 41.466 53.7108 41.466C54.3935 41.466 55.1963 40.994 56.1144 40.0452C57.0326 39.0964 58.0085 37.7816 59.0324 36.0959C59.1622 35.9128 59.3209 35.8213 59.5035 35.8213C59.6093 35.8213 59.7006 35.8599 59.7776 35.9417C59.8545 36.0236 59.8977 36.1392 59.8977 36.2981C59.8977 36.4571 59.8449 36.6257 59.7391 36.8135C58.5806 39.0001 57.3691 40.6906 56.0952 41.8898C54.8213 43.0891 53.5762 43.6863 52.3696 43.6863C51.3457 43.6863 50.5765 43.2529 50.0621 42.3811C49.5478 41.5142 49.293 40.445 49.293 39.1831C49.293 38.1572 49.4372 36.9387 49.7256 35.5324C50.0141 34.126 50.3938 32.8401 50.8697 31.6793C51.288 30.6775 51.711 29.8829 52.1292 29.2905C52.5475 28.6981 52.9945 28.3994 53.4705 28.3994C53.8887 28.3994 54.254 28.5536 54.5521 28.8522H54.5569ZM54.6338 24.9606C54.2781 24.6427 54.1002 24.2382 54.1002 23.7373C54.1002 23.0775 54.3502 22.5188 54.8501 22.0564C55.3501 21.594 55.9414 21.3677 56.624 21.3677C57.3066 21.3677 57.7729 21.5507 58.1046 21.9215C58.4315 22.2924 58.595 22.7259 58.595 23.2268C58.595 23.8577 58.3306 24.3875 57.8066 24.8065C57.2826 25.2303 56.6769 25.4374 55.9943 25.4374C55.4414 25.4374 54.9895 25.2785 54.6338 24.9654V24.9606Z" fill="url(#paint6_linear_1_3478)"/>
<path d="M54.5569 28.8522C54.8597 29.1556 55.0088 29.5024 55.0088 29.8973C55.0088 30.0562 54.9799 30.2007 54.9319 30.3308C54.879 30.4608 54.7876 30.6342 54.6578 30.8461C54.4223 31.1881 54.2108 31.5589 54.0281 31.9539C53.4512 33.1387 53.0186 34.3524 52.7253 35.5853C52.4369 36.8231 52.2927 37.902 52.2927 38.8219C52.2927 39.7418 52.4321 40.4498 52.7061 40.8543C52.9801 41.2637 53.3166 41.466 53.7108 41.466C54.3935 41.466 55.1963 40.994 56.1144 40.0452C57.0326 39.0964 58.0085 37.7816 59.0324 36.0959C59.1622 35.9128 59.3209 35.8213 59.5035 35.8213C59.6093 35.8213 59.7006 35.8599 59.7776 35.9417C59.8545 36.0236 59.8977 36.1392 59.8977 36.2981C59.8977 36.4571 59.8449 36.6257 59.7391 36.8135C58.5806 39.0001 57.3691 40.6906 56.0952 41.8898C54.8213 43.0891 53.5762 43.6863 52.3696 43.6863C51.3457 43.6863 50.5765 43.2529 50.0621 42.3811C49.5478 41.5142 49.293 40.445 49.293 39.1831C49.293 38.1572 49.4372 36.9387 49.7256 35.5324C50.0141 34.126 50.3938 32.8401 50.8697 31.6793C51.288 30.6775 51.711 29.8829 52.1292 29.2905C52.5475 28.6981 52.9945 28.3994 53.4705 28.3994C53.8887 28.3994 54.254 28.5536 54.5521 28.8522H54.5569ZM54.6338 24.9606C54.2781 24.6427 54.1002 24.2382 54.1002 23.7373C54.1002 23.0775 54.3502 22.5188 54.8501 22.0564C55.3501 21.594 55.9414 21.3677 56.624 21.3677C57.3066 21.3677 57.7729 21.5507 58.1046 21.9215C58.4315 22.2924 58.595 22.7259 58.595 23.2268C58.595 23.8577 58.3306 24.3875 57.8066 24.8065C57.2826 25.2303 56.6769 25.4374 55.9943 25.4374C55.4414 25.4374 54.9895 25.2785 54.6338 24.9654V24.9606Z" fill="url(#paint7_linear_1_3478)"/>
<path d="M64.3498 31.8334C64.2729 32.0453 64.1911 32.2235 64.1142 32.368C64.0373 32.5125 63.9412 32.7196 63.8402 32.9797C63.3403 34.0874 62.9124 35.4023 62.5567 36.929C62.201 38.4558 62.0231 40.0211 62.0231 41.6297L61.826 41.0759C62.3788 39.4961 63.2105 37.7141 64.3306 35.725C65.4458 33.7359 66.6669 32.0213 67.9985 30.5716C69.3253 29.1219 70.5655 28.3994 71.7241 28.3994C72.2769 28.3994 72.7336 28.6017 73.1038 29.0111C73.4691 29.4205 73.6566 30.0177 73.6566 30.8076C73.6566 31.4385 73.5364 32.1128 73.3009 32.8208C73.0653 33.5336 72.6952 34.439 72.1952 35.5468C71.7241 36.6545 71.3684 37.5552 71.1328 38.2535C70.8973 38.9519 70.7771 39.5925 70.7771 40.1704C70.7771 40.4883 70.8444 40.7387 70.9742 40.9217C71.104 41.1048 71.277 41.1963 71.4885 41.1963C72.0414 41.1963 72.748 40.8399 73.6181 40.1319C74.4883 39.4239 75.5218 38.0801 76.7332 36.1055C76.839 35.9224 76.9976 35.8309 77.2043 35.8309C77.3101 35.8309 77.4062 35.8791 77.5024 35.9706C77.5937 36.0621 77.6418 36.1729 77.6418 36.3077C77.6418 36.4667 77.5745 36.6497 77.4447 36.8616C76.2333 39.1012 75.0122 40.7869 73.7768 41.9187C72.5413 43.0505 71.4116 43.6189 70.3877 43.6189C69.5224 43.6189 68.8686 43.3347 68.4359 42.7712C68.0033 42.2077 67.787 41.4612 67.787 40.5413C67.787 39.8814 67.912 39.159 68.1619 38.3691C68.4119 37.5792 68.7965 36.5389 69.3253 35.2482C69.6666 34.4342 69.931 33.7551 70.1137 33.2157C70.2963 32.6763 70.3877 32.2476 70.3877 31.9297C70.3877 31.7178 70.3492 31.5541 70.2675 31.4385C70.1906 31.3181 70.0848 31.2603 69.9502 31.2603C69.4791 31.2603 68.859 31.6841 68.0994 32.5221C67.3351 33.365 66.5563 34.4631 65.7535 35.8213C64.9507 37.1795 64.2344 38.6051 63.6047 40.1078C63.3931 40.6087 63.172 41.2011 62.9365 41.885C62.7249 42.5448 62.5471 42.9976 62.4029 43.248C62.2586 43.4985 62.0279 43.6237 61.7106 43.6237C61.3164 43.6237 60.9703 43.4936 60.6674 43.2287C60.3646 42.9638 60.1098 42.6123 59.8983 42.1643C59.7925 41.9524 59.7156 41.6008 59.6627 41.0999C59.6099 40.5991 59.5858 40.1126 59.5858 39.6406C59.5858 39.1686 59.6435 38.4751 59.7637 37.5648C59.8839 36.6545 60.0185 35.8358 60.1771 35.0989C60.5713 33.2542 60.9847 31.9153 61.4174 31.0725C61.85 30.2296 62.3836 29.8106 63.0134 29.8106C63.4316 29.8106 63.8018 29.9503 64.119 30.2248C64.4363 30.4993 64.5902 30.8124 64.5902 31.1543C64.5902 31.2844 64.5132 31.5252 64.3546 31.8671L64.3498 31.8334Z" fill="url(#paint8_linear_1_3478)"/>
<path d="M64.3498 31.8334C64.2729 32.0453 64.1911 32.2235 64.1142 32.368C64.0373 32.5125 63.9412 32.7196 63.8402 32.9797C63.3403 34.0874 62.9124 35.4023 62.5567 36.929C62.201 38.4558 62.0231 40.0211 62.0231 41.6297L61.826 41.0759C62.3788 39.4961 63.2105 37.7141 64.3306 35.725C65.4458 33.7359 66.6669 32.0213 67.9985 30.5716C69.3253 29.1219 70.5655 28.3994 71.7241 28.3994C72.2769 28.3994 72.7336 28.6017 73.1038 29.0111C73.4691 29.4205 73.6566 30.0177 73.6566 30.8076C73.6566 31.4385 73.5364 32.1128 73.3009 32.8208C73.0653 33.5336 72.6952 34.439 72.1952 35.5468C71.7241 36.6545 71.3684 37.5552 71.1328 38.2535C70.8973 38.9519 70.7771 39.5925 70.7771 40.1704C70.7771 40.4883 70.8444 40.7387 70.9742 40.9217C71.104 41.1048 71.277 41.1963 71.4885 41.1963C72.0414 41.1963 72.748 40.8399 73.6181 40.1319C74.4883 39.4239 75.5218 38.0801 76.7332 36.1055C76.839 35.9224 76.9976 35.8309 77.2043 35.8309C77.3101 35.8309 77.4062 35.8791 77.5024 35.9706C77.5937 36.0621 77.6418 36.1729 77.6418 36.3077C77.6418 36.4667 77.5745 36.6497 77.4447 36.8616C76.2333 39.1012 75.0122 40.7869 73.7768 41.9187C72.5413 43.0505 71.4116 43.6189 70.3877 43.6189C69.5224 43.6189 68.8686 43.3347 68.4359 42.7712C68.0033 42.2077 67.787 41.4612 67.787 40.5413C67.787 39.8814 67.912 39.159 68.1619 38.3691C68.4119 37.5792 68.7965 36.5389 69.3253 35.2482C69.6666 34.4342 69.931 33.7551 70.1137 33.2157C70.2963 32.6763 70.3877 32.2476 70.3877 31.9297C70.3877 31.7178 70.3492 31.5541 70.2675 31.4385C70.1906 31.3181 70.0848 31.2603 69.9502 31.2603C69.4791 31.2603 68.859 31.6841 68.0994 32.5221C67.3351 33.365 66.5563 34.4631 65.7535 35.8213C64.9507 37.1795 64.2344 38.6051 63.6047 40.1078C63.3931 40.6087 63.172 41.2011 62.9365 41.885C62.7249 42.5448 62.5471 42.9976 62.4029 43.248C62.2586 43.4985 62.0279 43.6237 61.7106 43.6237C61.3164 43.6237 60.9703 43.4936 60.6674 43.2287C60.3646 42.9638 60.1098 42.6123 59.8983 42.1643C59.7925 41.9524 59.7156 41.6008 59.6627 41.0999C59.6099 40.5991 59.5858 40.1126 59.5858 39.6406C59.5858 39.1686 59.6435 38.4751 59.7637 37.5648C59.8839 36.6545 60.0185 35.8358 60.1771 35.0989C60.5713 33.2542 60.9847 31.9153 61.4174 31.0725C61.85 30.2296 62.3836 29.8106 63.0134 29.8106C63.4316 29.8106 63.8018 29.9503 64.119 30.2248C64.4363 30.4993 64.5902 30.8124 64.5902 31.1543C64.5902 31.2844 64.5132 31.5252 64.3546 31.8671L64.3498 31.8334Z" fill="url(#paint9_linear_1_3478)"/>
<path d="M78.7187 31.477C78.1033 31.135 77.7909 30.7257 77.7909 30.2537C77.7909 30.1477 77.8101 30.0562 77.8486 29.9791C77.887 29.9021 77.9591 29.8587 78.0649 29.8587L78.3389 29.9358C78.7331 30.0658 79.233 30.1333 79.8388 30.1333C80.8387 30.1333 81.9299 30.0417 83.1125 29.8587C84.2951 29.6757 85.3334 29.3723 86.2276 28.9484C86.8862 28.6306 87.3861 28.3031 87.7274 27.9611C87.8044 27.9081 87.8668 27.8552 87.9053 27.8022C87.9438 27.7492 88.0014 27.7251 88.0832 27.7251C88.2658 27.7251 88.4533 27.8551 88.636 28.12C88.8187 28.3849 88.91 28.7124 88.91 29.1074C88.91 29.9743 88.2899 30.6871 87.0592 31.241C85.8238 31.7949 84.1701 32.0694 82.0934 32.0694H81.3819C81.2232 32.0453 81.0261 32.0309 80.7906 32.0309C80.0262 32.0068 79.3388 31.8189 78.7235 31.477H78.7187ZM82.2664 40.7002C82.5404 41.1866 82.9442 41.4322 83.4682 41.4322C83.8624 41.4322 84.2374 41.2878 84.5931 40.9988C84.9489 40.7098 85.3238 40.2619 85.718 39.655L85.9151 39.4576C86.0449 39.2986 86.1651 39.2216 86.2708 39.2216C86.4535 39.2216 86.5449 39.3516 86.5449 39.6165C86.5449 39.7465 86.5064 39.9344 86.4247 40.1704C86.3478 40.4064 86.266 40.6038 86.1891 40.7628C85.742 41.5815 85.1988 42.2558 84.5547 42.7953C83.9105 43.3347 83.1029 43.6044 82.1318 43.6044C81.1608 43.6044 80.3387 43.2143 79.7474 42.4388C79.1561 41.6634 78.8581 40.5364 78.8581 39.0626C78.8581 36.7219 79.3052 34.0152 80.1993 30.9472C81.0934 27.8792 82.1558 25.1773 83.3913 22.8318C83.8095 22.0178 84.223 21.3917 84.6316 20.9534C85.0402 20.52 85.4632 20.3032 85.9151 20.3032C86.3333 20.3032 86.7179 20.4477 87.0592 20.7367C87.4005 21.0257 87.5736 21.3676 87.5736 21.7626C87.5736 21.8155 87.54 21.8926 87.4727 21.9986C87.4054 22.1045 87.3332 22.2201 87.2563 22.355C86.8621 22.7788 86.4535 23.3567 86.0353 24.0936C84.9825 25.9624 84.0259 28.2453 83.1558 30.9472C82.2904 33.6443 81.853 36.1392 81.853 38.4317C81.853 39.4576 81.9924 40.2137 82.2664 40.7002Z" fill="url(#paint10_linear_1_3478)"/>
<path d="M78.7187 31.477C78.1033 31.135 77.7909 30.7257 77.7909 30.2537C77.7909 30.1477 77.8101 30.0562 77.8486 29.9791C77.887 29.9021 77.9591 29.8587 78.0649 29.8587L78.3389 29.9358C78.7331 30.0658 79.233 30.1333 79.8388 30.1333C80.8387 30.1333 81.9299 30.0417 83.1125 29.8587C84.2951 29.6757 85.3334 29.3723 86.2276 28.9484C86.8862 28.6306 87.3861 28.3031 87.7274 27.9611C87.8044 27.9081 87.8668 27.8552 87.9053 27.8022C87.9438 27.7492 88.0014 27.7251 88.0832 27.7251C88.2658 27.7251 88.4533 27.8551 88.636 28.12C88.8187 28.3849 88.91 28.7124 88.91 29.1074C88.91 29.9743 88.2899 30.6871 87.0592 31.241C85.8238 31.7949 84.1701 32.0694 82.0934 32.0694H81.3819C81.2232 32.0453 81.0261 32.0309 80.7906 32.0309C80.0262 32.0068 79.3388 31.8189 78.7235 31.477H78.7187ZM82.2664 40.7002C82.5404 41.1866 82.9442 41.4322 83.4682 41.4322C83.8624 41.4322 84.2374 41.2878 84.5931 40.9988C84.9489 40.7098 85.3238 40.2619 85.718 39.655L85.9151 39.4576C86.0449 39.2986 86.1651 39.2216 86.2708 39.2216C86.4535 39.2216 86.5449 39.3516 86.5449 39.6165C86.5449 39.7465 86.5064 39.9344 86.4247 40.1704C86.3478 40.4064 86.266 40.6038 86.1891 40.7628C85.742 41.5815 85.1988 42.2558 84.5547 42.7953C83.9105 43.3347 83.1029 43.6044 82.1318 43.6044C81.1608 43.6044 80.3387 43.2143 79.7474 42.4388C79.1561 41.6634 78.8581 40.5364 78.8581 39.0626C78.8581 36.7219 79.3052 34.0152 80.1993 30.9472C81.0934 27.8792 82.1558 25.1773 83.3913 22.8318C83.8095 22.0178 84.223 21.3917 84.6316 20.9534C85.0402 20.52 85.4632 20.3032 85.9151 20.3032C86.3333 20.3032 86.7179 20.4477 87.0592 20.7367C87.4005 21.0257 87.5736 21.3676 87.5736 21.7626C87.5736 21.8155 87.54 21.8926 87.4727 21.9986C87.4054 22.1045 87.3332 22.2201 87.2563 22.355C86.8621 22.7788 86.4535 23.3567 86.0353 24.0936C84.9825 25.9624 84.0259 28.2453 83.1558 30.9472C82.2904 33.6443 81.853 36.1392 81.853 38.4317C81.853 39.4576 81.9924 40.2137 82.2664 40.7002Z" fill="url(#paint11_linear_1_3478)"/>
<defs>
<linearGradient id="paint0_linear_1_3478" x1="126.5" y1="26.6341" x2="126.5" y2="52" gradientUnits="userSpaceOnUse">
<stop stop-color="#FF820D"/>
<stop offset="1" stop-color="#F25608"/>
</linearGradient>
<linearGradient id="paint1_linear_1_3478" x1="126.5" y1="10" x2="126.5" y2="52" gradientUnits="userSpaceOnUse">
<stop stop-color="#FB6E71"/>
<stop offset="1" stop-color="#EE4548"/>
</linearGradient>
<linearGradient id="paint2_linear_1_3478" x1="16.9335" y1="30.9231" x2="16.9335" y2="45.8536" gradientUnits="userSpaceOnUse">
<stop stop-color="#FF820D"/>
<stop offset="1" stop-color="#F25608"/>
</linearGradient>
<linearGradient id="paint3_linear_1_3478" x1="16.9335" y1="21.1321" x2="16.9335" y2="45.8536" gradientUnits="userSpaceOnUse">
<stop stop-color="#FB6E71"/>
<stop offset="1" stop-color="#EE4548"/>
</linearGradient>
<linearGradient id="paint4_linear_1_3478" x1="41.2383" y1="35.825" x2="41.2383" y2="43.6861" gradientUnits="userSpaceOnUse">
<stop stop-color="#FF820D"/>
<stop offset="1" stop-color="#F25608"/>
</linearGradient>
<linearGradient id="paint5_linear_1_3478" x1="41.2383" y1="30.6699" x2="41.2383" y2="43.6861" gradientUnits="userSpaceOnUse">
<stop stop-color="#FB6E71"/>
<stop offset="1" stop-color="#EE4548"/>
</linearGradient>
<linearGradient id="paint6_linear_1_3478" x1="54.5954" y1="32.7992" x2="54.5954" y2="43.6863" gradientUnits="userSpaceOnUse">
<stop stop-color="#FF820D"/>
<stop offset="1" stop-color="#F25608"/>
</linearGradient>
<linearGradient id="paint7_linear_1_3478" x1="54.5954" y1="25.6597" x2="54.5954" y2="43.6863" gradientUnits="userSpaceOnUse">
<stop stop-color="#FB6E71"/>
<stop offset="1" stop-color="#EE4548"/>
</linearGradient>
<linearGradient id="paint8_linear_1_3478" x1="68.6138" y1="36.1972" x2="68.6138" y2="43.6237" gradientUnits="userSpaceOnUse">
<stop stop-color="#FF820D"/>
<stop offset="1" stop-color="#F25608"/>
</linearGradient>
<linearGradient id="paint9_linear_1_3478" x1="68.6138" y1="31.3272" x2="68.6138" y2="43.6237" gradientUnits="userSpaceOnUse">
<stop stop-color="#FB6E71"/>
<stop offset="1" stop-color="#EE4548"/>
</linearGradient>
<linearGradient id="paint10_linear_1_3478" x1="83.3504" y1="32.238" x2="83.3504" y2="43.6044" gradientUnits="userSpaceOnUse">
<stop stop-color="#FF820D"/>
<stop offset="1" stop-color="#F25608"/>
</linearGradient>
<linearGradient id="paint11_linear_1_3478" x1="83.3504" y1="24.7842" x2="83.3504" y2="43.6044" gradientUnits="userSpaceOnUse">
<stop stop-color="#FB6E71"/>
<stop offset="1" stop-color="#EE4548"/>
</linearGradient>
</defs>
</svg>
