<svg width="158" height="52" viewBox="0 0 158 52" fill="none" xmlns="http://www.w3.org/2000/svg">
<path d="M107.904 41.896C104.917 41.896 102.714 40.5333 101.296 37.808C99.877 35.0827 99.1676 31.368 99.1676 26.664C99.1676 22.856 99.9516 19.0293 101.52 15.184C103.125 11.3013 105.346 8.10933 108.184 5.608C111.021 3.06933 114.176 1.8 117.648 1.8C120.634 1.8 122.837 3.16266 124.256 5.888C125.674 8.61333 126.384 12.328 126.384 17.032C126.384 20.84 125.581 24.6853 123.976 28.568C122.408 32.4133 120.205 35.6053 117.368 38.144C114.53 40.6453 111.376 41.896 107.904 41.896ZM107.792 40.104C110.256 40.104 112.272 39.0213 113.84 36.856C115.445 34.6533 116.901 31.592 118.208 27.672C119.29 24.424 120.168 21.3067 120.84 18.32C121.549 15.3333 121.904 12.8133 121.904 10.76C121.904 5.98133 120.522 3.592 117.76 3.592C115.37 3.592 113.354 4.712 111.712 6.952C110.069 9.15466 108.613 12.1787 107.344 16.024C104.88 23.416 103.648 29.072 103.648 32.992C103.648 37.7333 105.029 40.104 107.792 40.104ZM128.852 39.208H134.06C134.62 39.208 135.049 39.096 135.348 38.872C135.684 38.648 135.927 38.2747 136.076 37.752L143.748 9.472C143.263 9.808 142.609 10.144 141.788 10.48C140.967 10.7787 140.295 11.0027 139.772 11.152C139.249 11.3013 138.895 11.4133 138.708 11.488L136.804 12.104L136.412 10.984C139.1 10.2 141.508 9.21066 143.636 8.016C145.801 6.784 147.575 5.01066 148.956 2.696H150.692L141.172 37.752C141.097 38.0507 141.06 38.256 141.06 38.368C141.06 38.6667 141.153 38.8907 141.34 39.04C141.564 39.152 141.881 39.208 142.292 39.208H147.78L147.332 41H128.404L128.852 39.208Z" fill="url(#paint0_linear_1_3535)"/>
<path d="M107.904 41.896C104.917 41.896 102.714 40.5333 101.296 37.808C99.877 35.0827 99.1676 31.368 99.1676 26.664C99.1676 22.856 99.9516 19.0293 101.52 15.184C103.125 11.3013 105.346 8.10933 108.184 5.608C111.021 3.06933 114.176 1.8 117.648 1.8C120.634 1.8 122.837 3.16266 124.256 5.888C125.674 8.61333 126.384 12.328 126.384 17.032C126.384 20.84 125.581 24.6853 123.976 28.568C122.408 32.4133 120.205 35.6053 117.368 38.144C114.53 40.6453 111.376 41.896 107.904 41.896ZM107.792 40.104C110.256 40.104 112.272 39.0213 113.84 36.856C115.445 34.6533 116.901 31.592 118.208 27.672C119.29 24.424 120.168 21.3067 120.84 18.32C121.549 15.3333 121.904 12.8133 121.904 10.76C121.904 5.98133 120.522 3.592 117.76 3.592C115.37 3.592 113.354 4.712 111.712 6.952C110.069 9.15466 108.613 12.1787 107.344 16.024C104.88 23.416 103.648 29.072 103.648 32.992C103.648 37.7333 105.029 40.104 107.792 40.104ZM128.852 39.208H134.06C134.62 39.208 135.049 39.096 135.348 38.872C135.684 38.648 135.927 38.2747 136.076 37.752L143.748 9.472C143.263 9.808 142.609 10.144 141.788 10.48C140.967 10.7787 140.295 11.0027 139.772 11.152C139.249 11.3013 138.895 11.4133 138.708 11.488L136.804 12.104L136.412 10.984C139.1 10.2 141.508 9.21066 143.636 8.016C145.801 6.784 147.575 5.01066 148.956 2.696H150.692L141.172 37.752C141.097 38.0507 141.06 38.256 141.06 38.368C141.06 38.6667 141.153 38.8907 141.34 39.04C141.564 39.152 141.881 39.208 142.292 39.208H147.78L147.332 41H128.404L128.852 39.208Z" fill="url(#paint1_linear_1_3535)"/>
<path d="M2.7209 42.9968C1.82675 42.5633 1.14893 41.995 0.692242 41.2967C0.230747 40.5983 0 39.8566 0 39.0667C0 38.0409 0.307663 37.2173 0.927797 36.6008C1.54793 35.9843 2.24979 35.6713 3.03817 35.6713C3.53813 35.6713 3.97559 35.8109 4.36017 36.0854C4.73994 36.36 4.93223 36.6586 4.93223 36.9765C4.93223 37.0535 4.89858 37.1258 4.83608 37.1932L4.61976 37.4099C4.35536 37.6989 4.15345 37.9879 4.00924 38.2769C3.86502 38.5658 3.79291 38.9463 3.79291 39.4231C3.79291 40.1359 4.01404 40.7332 4.46112 41.2196C4.90819 41.706 5.55236 41.9517 6.39363 41.9517C7.57621 41.9517 8.58092 41.4652 9.40777 40.4923C10.2346 39.5195 10.9317 38.3154 11.4989 36.8801C12.0614 35.4449 12.7248 33.4798 13.4891 30.9754C14.2006 28.6347 14.8351 26.6985 15.4024 25.1718C15.9696 23.645 16.6763 22.2146 17.532 20.8853C18.3877 19.556 19.3924 18.5638 20.5461 17.904C20.8105 17.7451 21.099 17.6198 21.4114 17.5283C21.7287 17.4368 22.0172 17.3887 22.2767 17.3887C22.4883 17.3887 22.6565 17.4175 22.7911 17.4657C22.9209 17.5187 22.9882 17.5958 22.9882 17.7017C22.9882 17.8317 22.8969 17.9907 22.7142 18.1737C22.2431 18.6746 21.7816 19.2814 21.3345 19.9894C20.7048 21.0153 20.1471 22.1905 19.6568 23.5053C19.1713 24.8202 18.6136 26.5974 17.9839 28.8369C17.0369 32.0494 16.1523 34.6309 15.3207 36.5767C14.4938 38.5273 13.3112 40.1889 11.7729 41.5712C10.2346 42.9535 8.25883 43.647 5.84079 43.647C4.65821 43.647 3.61985 43.4303 2.7257 42.9968H2.7209ZM32.146 27.0212C31.0019 28.6539 29.2569 29.988 26.9013 31.0284C24.5506 32.0687 21.6374 32.5888 18.1714 32.5888C17.7243 32.5888 17.1811 32.5551 16.5369 32.4877C15.8927 32.4203 15.388 32.348 15.0178 32.271L15.412 30.6912C15.6476 30.7972 16.0369 30.8694 16.5754 30.9079C17.1138 30.9465 17.5416 30.9657 17.8589 30.9657C20.3298 30.9657 22.4835 30.5708 24.3246 29.7809C26.1658 28.9911 27.5791 27.9026 28.5598 26.5251C29.5453 25.1429 30.0404 23.5583 30.0404 21.7667C30.0404 20.3458 29.627 19.0936 28.8002 18.0148C27.9733 16.9359 26.8004 16.1075 25.2909 15.5248C23.7814 14.9468 22.0268 14.6578 20.027 14.6578C17.6089 14.6578 15.4264 15.0576 13.4843 15.8619C11.5374 16.6662 10.0135 17.6969 8.91262 18.9636C7.81176 20.2303 7.25893 21.5451 7.25893 22.9129C7.25893 23.8088 7.49929 24.4975 7.98963 24.9839C8.47516 25.4704 9.08568 25.716 9.82119 25.716C10.2683 25.716 10.7009 25.6245 11.1239 25.4415C11.5422 25.2585 11.8739 25.0851 12.1094 24.9261C12.2681 24.8202 12.3594 24.7672 12.3834 24.7672C12.619 24.7672 12.7392 24.9647 12.7392 25.3596C12.7392 25.8605 12.5613 26.3951 12.2056 26.9586C11.8498 27.5269 11.3403 27.9989 10.6673 28.3794C9.99906 28.7599 9.18663 28.9525 8.24441 28.9525C6.95607 28.9525 5.88406 28.5576 5.03318 27.7677C4.17749 26.9779 3.74965 25.846 3.74965 24.3723C3.74965 22.5035 4.46592 20.6974 5.89848 18.9636C7.33104 17.2249 9.34046 15.8041 11.9316 14.6964C14.5179 13.5886 17.431 13.0396 20.6615 13.0396C23.2622 13.0396 25.5601 13.4152 27.5599 14.1666C29.5549 14.9179 31.1076 15.963 32.2133 17.3068C33.319 18.6505 33.867 20.1773 33.867 21.8871C33.867 23.5968 33.2949 25.3885 32.1508 27.0212H32.146Z" fill="url(#paint2_linear_1_3535)"/>
<path d="M2.7209 42.9968C1.82675 42.5633 1.14893 41.995 0.692242 41.2967C0.230747 40.5983 0 39.8566 0 39.0667C0 38.0409 0.307663 37.2173 0.927797 36.6008C1.54793 35.9843 2.24979 35.6713 3.03817 35.6713C3.53813 35.6713 3.97559 35.8109 4.36017 36.0854C4.73994 36.36 4.93223 36.6586 4.93223 36.9765C4.93223 37.0535 4.89858 37.1258 4.83608 37.1932L4.61976 37.4099C4.35536 37.6989 4.15345 37.9879 4.00924 38.2769C3.86502 38.5658 3.79291 38.9463 3.79291 39.4231C3.79291 40.1359 4.01404 40.7332 4.46112 41.2196C4.90819 41.706 5.55236 41.9517 6.39363 41.9517C7.57621 41.9517 8.58092 41.4652 9.40777 40.4923C10.2346 39.5195 10.9317 38.3154 11.4989 36.8801C12.0614 35.4449 12.7248 33.4798 13.4891 30.9754C14.2006 28.6347 14.8351 26.6985 15.4024 25.1718C15.9696 23.645 16.6763 22.2146 17.532 20.8853C18.3877 19.556 19.3924 18.5638 20.5461 17.904C20.8105 17.7451 21.099 17.6198 21.4114 17.5283C21.7287 17.4368 22.0172 17.3887 22.2767 17.3887C22.4883 17.3887 22.6565 17.4175 22.7911 17.4657C22.9209 17.5187 22.9882 17.5958 22.9882 17.7017C22.9882 17.8317 22.8969 17.9907 22.7142 18.1737C22.2431 18.6746 21.7816 19.2814 21.3345 19.9894C20.7048 21.0153 20.1471 22.1905 19.6568 23.5053C19.1713 24.8202 18.6136 26.5974 17.9839 28.8369C17.0369 32.0494 16.1523 34.6309 15.3207 36.5767C14.4938 38.5273 13.3112 40.1889 11.7729 41.5712C10.2346 42.9535 8.25883 43.647 5.84079 43.647C4.65821 43.647 3.61985 43.4303 2.7257 42.9968H2.7209ZM32.146 27.0212C31.0019 28.6539 29.2569 29.988 26.9013 31.0284C24.5506 32.0687 21.6374 32.5888 18.1714 32.5888C17.7243 32.5888 17.1811 32.5551 16.5369 32.4877C15.8927 32.4203 15.388 32.348 15.0178 32.271L15.412 30.6912C15.6476 30.7972 16.0369 30.8694 16.5754 30.9079C17.1138 30.9465 17.5416 30.9657 17.8589 30.9657C20.3298 30.9657 22.4835 30.5708 24.3246 29.7809C26.1658 28.9911 27.5791 27.9026 28.5598 26.5251C29.5453 25.1429 30.0404 23.5583 30.0404 21.7667C30.0404 20.3458 29.627 19.0936 28.8002 18.0148C27.9733 16.9359 26.8004 16.1075 25.2909 15.5248C23.7814 14.9468 22.0268 14.6578 20.027 14.6578C17.6089 14.6578 15.4264 15.0576 13.4843 15.8619C11.5374 16.6662 10.0135 17.6969 8.91262 18.9636C7.81176 20.2303 7.25893 21.5451 7.25893 22.9129C7.25893 23.8088 7.49929 24.4975 7.98963 24.9839C8.47516 25.4704 9.08568 25.716 9.82119 25.716C10.2683 25.716 10.7009 25.6245 11.1239 25.4415C11.5422 25.2585 11.8739 25.0851 12.1094 24.9261C12.2681 24.8202 12.3594 24.7672 12.3834 24.7672C12.619 24.7672 12.7392 24.9647 12.7392 25.3596C12.7392 25.8605 12.5613 26.3951 12.2056 26.9586C11.8498 27.5269 11.3403 27.9989 10.6673 28.3794C9.99906 28.7599 9.18663 28.9525 8.24441 28.9525C6.95607 28.9525 5.88406 28.5576 5.03318 27.7677C4.17749 26.9779 3.74965 25.846 3.74965 24.3723C3.74965 22.5035 4.46592 20.6974 5.89848 18.9636C7.33104 17.2249 9.34046 15.8041 11.9316 14.6964C14.5179 13.5886 17.431 13.0396 20.6615 13.0396C23.2622 13.0396 25.5601 13.4152 27.5599 14.1666C29.5549 14.9179 31.1076 15.963 32.2133 17.3068C33.319 18.6505 33.867 20.1773 33.867 21.8871C33.867 23.5968 33.2949 25.3885 32.1508 27.0212H32.146Z" fill="url(#paint3_linear_1_3535)"/>
<path d="M40.0774 33.0417C39.1592 32.6323 38.4429 32.0736 37.9285 31.3656C37.4141 30.6576 37.1594 29.8629 37.1594 28.996C37.1594 27.9412 37.5055 27.0743 38.2025 26.3904C38.8996 25.7065 39.7312 25.3645 40.7071 25.3645C41.4955 25.3645 42.2262 25.6149 42.8944 26.1158C43.5626 26.6167 44.0962 27.3344 44.4904 28.2687C44.8846 29.2031 45.0817 30.2916 45.0817 31.5293C45.0817 33.1332 44.7404 34.7081 44.0578 36.2493C43.3751 37.7905 42.4137 39.0476 41.1782 40.0204C39.9428 40.9933 38.539 41.4798 36.9623 41.4798C35.3855 41.4798 34.1885 40.9741 33.2943 39.9578C32.4002 38.9464 31.9531 37.6749 31.9531 36.1482C31.9531 34.7274 32.3233 33.3451 33.0588 32.0013C33.7943 30.6576 34.674 29.5595 35.698 28.7022C36.7219 27.8449 37.5632 27.4162 38.2218 27.4162C38.5871 27.4162 38.7746 27.5993 38.7746 27.9701C38.7746 28.235 38.5006 28.5384 37.9478 28.8804C37.4238 29.1453 36.9238 29.6173 36.4479 30.3012C35.9768 30.9851 35.5922 31.775 35.3038 32.6708C35.0153 33.5666 34.8711 34.4336 34.8711 35.2764C34.8711 36.4901 35.1355 37.5063 35.6595 38.3396C36.1835 39.168 36.9478 39.5822 37.9478 39.5822C38.8659 39.5822 39.7024 39.2354 40.4523 38.537C41.2023 37.8387 41.7791 36.9188 42.1877 35.7725C42.5964 34.6262 42.7983 33.3692 42.7983 32.0013C42.7983 30.7636 42.5819 29.7281 42.1493 28.8997C41.7166 28.0713 41.183 27.6571 40.5533 27.6571C40.1831 27.6571 39.8851 27.8015 39.6447 28.0905C39.4092 28.3795 39.289 28.7744 39.289 29.2753C39.289 30.1711 39.6495 30.908 40.3706 31.486C41.0917 32.0639 42.0579 32.3529 43.2694 32.3529C44.2693 32.3529 45.1923 32.0832 46.0479 31.5438C46.9036 31.0044 47.7497 30.2723 48.591 29.3524C48.7737 29.1694 48.9515 28.9719 49.1246 28.76C49.2928 28.5481 49.4611 28.365 49.6149 28.2061C49.8264 27.9942 50.0091 27.8882 50.1678 27.8882C50.2447 27.8882 50.3264 27.9268 50.4033 28.0086C50.4802 28.0905 50.5235 28.2061 50.5235 28.365C50.5235 28.5481 50.4466 28.7744 50.2879 29.0345C49.4755 30.2723 48.4131 31.3511 47.1152 32.271C45.8124 33.191 44.4952 33.6533 43.154 33.6533C42.0243 33.6533 41.0003 33.451 40.0774 33.0417Z" fill="url(#paint4_linear_1_3535)"/>
<path d="M40.0774 33.0417C39.1592 32.6323 38.4429 32.0736 37.9285 31.3656C37.4141 30.6576 37.1594 29.8629 37.1594 28.996C37.1594 27.9412 37.5055 27.0743 38.2025 26.3904C38.8996 25.7065 39.7312 25.3645 40.7071 25.3645C41.4955 25.3645 42.2262 25.6149 42.8944 26.1158C43.5626 26.6167 44.0962 27.3344 44.4904 28.2687C44.8846 29.2031 45.0817 30.2916 45.0817 31.5293C45.0817 33.1332 44.7404 34.7081 44.0578 36.2493C43.3751 37.7905 42.4137 39.0476 41.1782 40.0204C39.9428 40.9933 38.539 41.4798 36.9623 41.4798C35.3855 41.4798 34.1885 40.9741 33.2943 39.9578C32.4002 38.9464 31.9531 37.6749 31.9531 36.1482C31.9531 34.7274 32.3233 33.3451 33.0588 32.0013C33.7943 30.6576 34.674 29.5595 35.698 28.7022C36.7219 27.8449 37.5632 27.4162 38.2218 27.4162C38.5871 27.4162 38.7746 27.5993 38.7746 27.9701C38.7746 28.235 38.5006 28.5384 37.9478 28.8804C37.4238 29.1453 36.9238 29.6173 36.4479 30.3012C35.9768 30.9851 35.5922 31.775 35.3038 32.6708C35.0153 33.5666 34.8711 34.4336 34.8711 35.2764C34.8711 36.4901 35.1355 37.5063 35.6595 38.3396C36.1835 39.168 36.9478 39.5822 37.9478 39.5822C38.8659 39.5822 39.7024 39.2354 40.4523 38.537C41.2023 37.8387 41.7791 36.9188 42.1877 35.7725C42.5964 34.6262 42.7983 33.3692 42.7983 32.0013C42.7983 30.7636 42.5819 29.7281 42.1493 28.8997C41.7166 28.0713 41.183 27.6571 40.5533 27.6571C40.1831 27.6571 39.8851 27.8015 39.6447 28.0905C39.4092 28.3795 39.289 28.7744 39.289 29.2753C39.289 30.1711 39.6495 30.908 40.3706 31.486C41.0917 32.0639 42.0579 32.3529 43.2694 32.3529C44.2693 32.3529 45.1923 32.0832 46.0479 31.5438C46.9036 31.0044 47.7497 30.2723 48.591 29.3524C48.7737 29.1694 48.9515 28.9719 49.1246 28.76C49.2928 28.5481 49.4611 28.365 49.6149 28.2061C49.8264 27.9942 50.0091 27.8882 50.1678 27.8882C50.2447 27.8882 50.3264 27.9268 50.4033 28.0086C50.4802 28.0905 50.5235 28.2061 50.5235 28.365C50.5235 28.5481 50.4466 28.7744 50.2879 29.0345C49.4755 30.2723 48.4131 31.3511 47.1152 32.271C45.8124 33.191 44.4952 33.6533 43.154 33.6533C42.0243 33.6533 41.0003 33.451 40.0774 33.0417Z" fill="url(#paint5_linear_1_3535)"/>
<path d="M54.5569 26.6454C54.8597 26.9488 55.0088 27.2956 55.0088 27.6905C55.0088 27.8495 54.9799 27.9939 54.9319 28.124C54.879 28.254 54.7876 28.4274 54.6578 28.6393C54.4223 28.9813 54.2108 29.3521 54.0281 29.7471C53.4512 30.9319 53.0186 32.1456 52.7253 33.3785C52.4369 34.6163 52.2927 35.6952 52.2927 36.6151C52.2927 37.535 52.4321 38.243 52.7061 38.6476C52.9801 39.0569 53.3166 39.2592 53.7108 39.2592C54.3935 39.2592 55.1963 38.7872 56.1144 37.8384C57.0326 36.8896 58.0085 35.5748 59.0324 33.8891C59.1622 33.7061 59.3209 33.6145 59.5035 33.6145C59.6093 33.6145 59.7006 33.6531 59.7776 33.735C59.8545 33.8168 59.8977 33.9324 59.8977 34.0914C59.8977 34.2503 59.8449 34.4189 59.7391 34.6067C58.5806 36.7933 57.3691 38.4838 56.0952 39.6831C54.8213 40.8823 53.5762 41.4795 52.3696 41.4795C51.3457 41.4795 50.5765 41.0461 50.0621 40.1743C49.5478 39.3074 49.293 38.2382 49.293 36.9763C49.293 35.9504 49.4372 34.7319 49.7256 33.3256C50.0141 31.9192 50.3938 30.6333 50.8697 29.4725C51.288 28.4708 51.711 27.6761 52.1292 27.0837C52.5475 26.4913 52.9945 26.1927 53.4705 26.1927C53.8887 26.1927 54.254 26.3468 54.5521 26.6454H54.5569ZM54.6338 22.7538C54.2781 22.436 54.1002 22.0314 54.1002 21.5305C54.1002 20.8707 54.3502 20.312 54.8501 19.8496C55.3501 19.3873 55.9414 19.1609 56.624 19.1609C57.3066 19.1609 57.7729 19.3439 58.1046 19.7148C58.4315 20.0856 58.595 20.5191 58.595 21.02C58.595 21.6509 58.3306 22.1807 57.8066 22.5997C57.2826 23.0235 56.6769 23.2306 55.9943 23.2306C55.4414 23.2306 54.9895 23.0717 54.6338 22.7587V22.7538Z" fill="url(#paint6_linear_1_3535)"/>
<path d="M54.5569 26.6454C54.8597 26.9488 55.0088 27.2956 55.0088 27.6905C55.0088 27.8495 54.9799 27.9939 54.9319 28.124C54.879 28.254 54.7876 28.4274 54.6578 28.6393C54.4223 28.9813 54.2108 29.3521 54.0281 29.7471C53.4512 30.9319 53.0186 32.1456 52.7253 33.3785C52.4369 34.6163 52.2927 35.6952 52.2927 36.6151C52.2927 37.535 52.4321 38.243 52.7061 38.6476C52.9801 39.0569 53.3166 39.2592 53.7108 39.2592C54.3935 39.2592 55.1963 38.7872 56.1144 37.8384C57.0326 36.8896 58.0085 35.5748 59.0324 33.8891C59.1622 33.7061 59.3209 33.6145 59.5035 33.6145C59.6093 33.6145 59.7006 33.6531 59.7776 33.735C59.8545 33.8168 59.8977 33.9324 59.8977 34.0914C59.8977 34.2503 59.8449 34.4189 59.7391 34.6067C58.5806 36.7933 57.3691 38.4838 56.0952 39.6831C54.8213 40.8823 53.5762 41.4795 52.3696 41.4795C51.3457 41.4795 50.5765 41.0461 50.0621 40.1743C49.5478 39.3074 49.293 38.2382 49.293 36.9763C49.293 35.9504 49.4372 34.7319 49.7256 33.3256C50.0141 31.9192 50.3938 30.6333 50.8697 29.4725C51.288 28.4708 51.711 27.6761 52.1292 27.0837C52.5475 26.4913 52.9945 26.1927 53.4705 26.1927C53.8887 26.1927 54.254 26.3468 54.5521 26.6454H54.5569ZM54.6338 22.7538C54.2781 22.436 54.1002 22.0314 54.1002 21.5305C54.1002 20.8707 54.3502 20.312 54.8501 19.8496C55.3501 19.3873 55.9414 19.1609 56.624 19.1609C57.3066 19.1609 57.7729 19.3439 58.1046 19.7148C58.4315 20.0856 58.595 20.5191 58.595 21.02C58.595 21.6509 58.3306 22.1807 57.8066 22.5997C57.2826 23.0235 56.6769 23.2306 55.9943 23.2306C55.4414 23.2306 54.9895 23.0717 54.6338 22.7587V22.7538Z" fill="url(#paint7_linear_1_3535)"/>
<path d="M64.3498 29.6269C64.2729 29.8388 64.1911 30.017 64.1142 30.1615C64.0373 30.306 63.9412 30.5131 63.8402 30.7732C63.3403 31.8809 62.9124 33.1957 62.5567 34.7225C62.201 36.2493 62.0231 37.8146 62.0231 39.4232L61.826 38.8693C62.3788 37.2896 63.2105 35.5076 64.3306 33.5184C65.4458 31.5293 66.6669 29.8147 67.9985 28.365C69.3253 26.9153 70.5655 26.1929 71.7241 26.1929C72.2769 26.1929 72.7336 26.3952 73.1038 26.8045C73.4691 27.2139 73.6566 27.8111 73.6566 28.601C73.6566 29.2319 73.5364 29.9062 73.3009 30.6142C73.0653 31.327 72.6952 32.2325 72.1952 33.3402C71.7241 34.448 71.3684 35.3486 71.1328 36.047C70.8973 36.7453 70.7771 37.3859 70.7771 37.9639C70.7771 38.2817 70.8444 38.5322 70.9742 38.7152C71.104 38.8982 71.277 38.9897 71.4885 38.9897C72.0414 38.9897 72.748 38.6333 73.6181 37.9253C74.4883 37.2173 75.5218 35.8736 76.7332 33.8989C76.839 33.7159 76.9976 33.6244 77.2043 33.6244C77.3101 33.6244 77.4062 33.6726 77.5024 33.7641C77.5937 33.8556 77.6418 33.9663 77.6418 34.1012C77.6418 34.2601 77.5745 34.4432 77.4447 34.6551C76.2333 36.8946 75.0122 38.5803 73.7768 39.7122C72.5413 40.844 71.4116 41.4123 70.3877 41.4123C69.5224 41.4123 68.8686 41.1282 68.4359 40.5647C68.0033 40.0011 67.787 39.2546 67.787 38.3347C67.787 37.6749 67.912 36.9524 68.1619 36.1626C68.4119 35.3727 68.7965 34.3324 69.3253 33.0416C69.6666 32.2277 69.931 31.5486 70.1137 31.0092C70.2963 30.4697 70.3877 30.0411 70.3877 29.7232C70.3877 29.5113 70.3492 29.3475 70.2675 29.2319C70.1906 29.1115 70.0848 29.0537 69.9502 29.0537C69.4791 29.0537 68.859 29.4776 68.0994 30.3156C67.3351 31.1585 66.5563 32.2566 65.7535 33.6148C64.9507 34.973 64.2344 36.3986 63.6047 37.9012C63.3931 38.4021 63.172 38.9945 62.9365 39.6785C62.7249 40.3383 62.5471 40.791 62.4029 41.0415C62.2586 41.2919 62.0279 41.4171 61.7106 41.4171C61.3164 41.4171 60.9703 41.2871 60.6674 41.0222C60.3646 40.7573 60.1098 40.4057 59.8983 39.9578C59.7925 39.7459 59.7156 39.3943 59.6627 38.8934C59.6099 38.3925 59.5858 37.9061 59.5858 37.4341C59.5858 36.9621 59.6435 36.2685 59.7637 35.3583C59.8839 34.448 60.0185 33.6292 60.1771 32.8923C60.5713 31.0477 60.9847 29.7088 61.4174 28.8659C61.85 28.0231 62.3836 27.604 63.0134 27.604C63.4316 27.604 63.8018 27.7437 64.119 28.0182C64.4363 28.2928 64.5902 28.6058 64.5902 28.9478C64.5902 29.0778 64.5132 29.3186 64.3546 29.6606L64.3498 29.6269Z" fill="url(#paint8_linear_1_3535)"/>
<path d="M64.3498 29.6269C64.2729 29.8388 64.1911 30.017 64.1142 30.1615C64.0373 30.306 63.9412 30.5131 63.8402 30.7732C63.3403 31.8809 62.9124 33.1957 62.5567 34.7225C62.201 36.2493 62.0231 37.8146 62.0231 39.4232L61.826 38.8693C62.3788 37.2896 63.2105 35.5076 64.3306 33.5184C65.4458 31.5293 66.6669 29.8147 67.9985 28.365C69.3253 26.9153 70.5655 26.1929 71.7241 26.1929C72.2769 26.1929 72.7336 26.3952 73.1038 26.8045C73.4691 27.2139 73.6566 27.8111 73.6566 28.601C73.6566 29.2319 73.5364 29.9062 73.3009 30.6142C73.0653 31.327 72.6952 32.2325 72.1952 33.3402C71.7241 34.448 71.3684 35.3486 71.1328 36.047C70.8973 36.7453 70.7771 37.3859 70.7771 37.9639C70.7771 38.2817 70.8444 38.5322 70.9742 38.7152C71.104 38.8982 71.277 38.9897 71.4885 38.9897C72.0414 38.9897 72.748 38.6333 73.6181 37.9253C74.4883 37.2173 75.5218 35.8736 76.7332 33.8989C76.839 33.7159 76.9976 33.6244 77.2043 33.6244C77.3101 33.6244 77.4062 33.6726 77.5024 33.7641C77.5937 33.8556 77.6418 33.9663 77.6418 34.1012C77.6418 34.2601 77.5745 34.4432 77.4447 34.6551C76.2333 36.8946 75.0122 38.5803 73.7768 39.7122C72.5413 40.844 71.4116 41.4123 70.3877 41.4123C69.5224 41.4123 68.8686 41.1282 68.4359 40.5647C68.0033 40.0011 67.787 39.2546 67.787 38.3347C67.787 37.6749 67.912 36.9524 68.1619 36.1626C68.4119 35.3727 68.7965 34.3324 69.3253 33.0416C69.6666 32.2277 69.931 31.5486 70.1137 31.0092C70.2963 30.4697 70.3877 30.0411 70.3877 29.7232C70.3877 29.5113 70.3492 29.3475 70.2675 29.2319C70.1906 29.1115 70.0848 29.0537 69.9502 29.0537C69.4791 29.0537 68.859 29.4776 68.0994 30.3156C67.3351 31.1585 66.5563 32.2566 65.7535 33.6148C64.9507 34.973 64.2344 36.3986 63.6047 37.9012C63.3931 38.4021 63.172 38.9945 62.9365 39.6785C62.7249 40.3383 62.5471 40.791 62.4029 41.0415C62.2586 41.2919 62.0279 41.4171 61.7106 41.4171C61.3164 41.4171 60.9703 41.2871 60.6674 41.0222C60.3646 40.7573 60.1098 40.4057 59.8983 39.9578C59.7925 39.7459 59.7156 39.3943 59.6627 38.8934C59.6099 38.3925 59.5858 37.9061 59.5858 37.4341C59.5858 36.9621 59.6435 36.2685 59.7637 35.3583C59.8839 34.448 60.0185 33.6292 60.1771 32.8923C60.5713 31.0477 60.9847 29.7088 61.4174 28.8659C61.85 28.0231 62.3836 27.604 63.0134 27.604C63.4316 27.604 63.8018 27.7437 64.119 28.0182C64.4363 28.2928 64.5902 28.6058 64.5902 28.9478C64.5902 29.0778 64.5132 29.3186 64.3546 29.6606L64.3498 29.6269Z" fill="url(#paint9_linear_1_3535)"/>
<path d="M78.7187 29.2705C78.1033 28.9285 77.7909 28.5191 77.7909 28.0471C77.7909 27.9412 77.8101 27.8496 77.8486 27.7726C77.887 27.6955 77.9591 27.6522 78.0649 27.6522L78.3389 27.7292C78.7331 27.8593 79.233 27.9267 79.8388 27.9267C80.8387 27.9267 81.9299 27.8352 83.1125 27.6522C84.2951 27.4692 85.3334 27.1657 86.2276 26.7419C86.8862 26.424 87.3861 26.0965 87.7274 25.7546C87.8044 25.7016 87.8668 25.6486 87.9053 25.5956C87.9438 25.5426 88.0014 25.5186 88.0832 25.5186C88.2658 25.5186 88.4533 25.6486 88.636 25.9135C88.8187 26.1784 88.91 26.5059 88.91 26.9008C88.91 27.7678 88.2899 28.4806 87.0592 29.0345C85.8238 29.5883 84.1701 29.8629 82.0934 29.8629H81.3819C81.2232 29.8388 81.0261 29.8243 80.7906 29.8243C80.0262 29.8002 79.3388 29.6124 78.7235 29.2705H78.7187ZM82.2664 38.4936C82.5404 38.9801 82.9442 39.2257 83.4682 39.2257C83.8624 39.2257 84.2374 39.0812 84.5931 38.7922C84.9489 38.5033 85.3238 38.0553 85.718 37.4485L85.9151 37.251C86.0449 37.0921 86.1651 37.015 86.2708 37.015C86.4535 37.015 86.5449 37.1451 86.5449 37.41C86.5449 37.54 86.5064 37.7278 86.4247 37.9638C86.3478 38.1998 86.266 38.3973 86.1891 38.5562C85.742 39.375 85.1988 40.0493 84.5547 40.5887C83.9105 41.1281 83.1029 41.3978 82.1318 41.3978C81.1608 41.3978 80.3387 41.0077 79.7474 40.2323C79.1561 39.4569 78.8581 38.3299 78.8581 36.8561C78.8581 34.5154 79.3052 31.8086 80.1993 28.7407C81.0934 25.6727 82.1558 22.9708 83.3913 20.6252C83.8095 19.8113 84.223 19.1852 84.6316 18.7469C85.0402 18.3134 85.4632 18.0967 85.9151 18.0967C86.3333 18.0967 86.7179 18.2412 87.0592 18.5301C87.4005 18.8191 87.5736 19.1611 87.5736 19.556C87.5736 19.609 87.54 19.6861 87.4727 19.792C87.4054 19.898 87.3332 20.0136 87.2563 20.1484C86.8621 20.5722 86.4535 21.1502 86.0353 21.8871C84.9825 23.7558 84.0259 26.0387 83.1558 28.7407C82.2904 31.4378 81.853 33.9326 81.853 36.2252C81.853 37.251 81.9924 38.0072 82.2664 38.4936Z" fill="url(#paint10_linear_1_3535)"/>
<path d="M78.7187 29.2705C78.1033 28.9285 77.7909 28.5191 77.7909 28.0471C77.7909 27.9412 77.8101 27.8496 77.8486 27.7726C77.887 27.6955 77.9591 27.6522 78.0649 27.6522L78.3389 27.7292C78.7331 27.8593 79.233 27.9267 79.8388 27.9267C80.8387 27.9267 81.9299 27.8352 83.1125 27.6522C84.2951 27.4692 85.3334 27.1657 86.2276 26.7419C86.8862 26.424 87.3861 26.0965 87.7274 25.7546C87.8044 25.7016 87.8668 25.6486 87.9053 25.5956C87.9438 25.5426 88.0014 25.5186 88.0832 25.5186C88.2658 25.5186 88.4533 25.6486 88.636 25.9135C88.8187 26.1784 88.91 26.5059 88.91 26.9008C88.91 27.7678 88.2899 28.4806 87.0592 29.0345C85.8238 29.5883 84.1701 29.8629 82.0934 29.8629H81.3819C81.2232 29.8388 81.0261 29.8243 80.7906 29.8243C80.0262 29.8002 79.3388 29.6124 78.7235 29.2705H78.7187ZM82.2664 38.4936C82.5404 38.9801 82.9442 39.2257 83.4682 39.2257C83.8624 39.2257 84.2374 39.0812 84.5931 38.7922C84.9489 38.5033 85.3238 38.0553 85.718 37.4485L85.9151 37.251C86.0449 37.0921 86.1651 37.015 86.2708 37.015C86.4535 37.015 86.5449 37.1451 86.5449 37.41C86.5449 37.54 86.5064 37.7278 86.4247 37.9638C86.3478 38.1998 86.266 38.3973 86.1891 38.5562C85.742 39.375 85.1988 40.0493 84.5547 40.5887C83.9105 41.1281 83.1029 41.3978 82.1318 41.3978C81.1608 41.3978 80.3387 41.0077 79.7474 40.2323C79.1561 39.4569 78.8581 38.3299 78.8581 36.8561C78.8581 34.5154 79.3052 31.8086 80.1993 28.7407C81.0934 25.6727 82.1558 22.9708 83.3913 20.6252C83.8095 19.8113 84.223 19.1852 84.6316 18.7469C85.0402 18.3134 85.4632 18.0967 85.9151 18.0967C86.3333 18.0967 86.7179 18.2412 87.0592 18.5301C87.4005 18.8191 87.5736 19.1611 87.5736 19.556C87.5736 19.609 87.54 19.6861 87.4727 19.792C87.4054 19.898 87.3332 20.0136 87.2563 20.1484C86.8621 20.5722 86.4535 21.1502 86.0353 21.8871C84.9825 23.7558 84.0259 26.0387 83.1558 28.7407C82.2904 31.4378 81.853 33.9326 81.853 36.2252C81.853 37.251 81.9924 38.0072 82.2664 38.4936Z" fill="url(#paint11_linear_1_3535)"/>
<defs>
<linearGradient id="paint0_linear_1_3535" x1="126.5" y1="26.6341" x2="126.5" y2="52" gradientUnits="userSpaceOnUse">
<stop stop-color="#FF820D"/>
<stop offset="1" stop-color="#F25608"/>
</linearGradient>
<linearGradient id="paint1_linear_1_3535" x1="126.5" y1="10" x2="126.5" y2="52" gradientUnits="userSpaceOnUse">
<stop stop-color="#FB6E71"/>
<stop offset="1" stop-color="#EE4548"/>
</linearGradient>
<linearGradient id="paint2_linear_1_3535" x1="16.9335" y1="28.7165" x2="16.9335" y2="43.647" gradientUnits="userSpaceOnUse">
<stop stop-color="#FF820D"/>
<stop offset="1" stop-color="#F25608"/>
</linearGradient>
<linearGradient id="paint3_linear_1_3535" x1="16.9335" y1="18.9256" x2="16.9335" y2="43.647" gradientUnits="userSpaceOnUse">
<stop stop-color="#FB6E71"/>
<stop offset="1" stop-color="#EE4548"/>
</linearGradient>
<linearGradient id="paint4_linear_1_3535" x1="41.2383" y1="33.6187" x2="41.2383" y2="41.4798" gradientUnits="userSpaceOnUse">
<stop stop-color="#FF820D"/>
<stop offset="1" stop-color="#F25608"/>
</linearGradient>
<linearGradient id="paint5_linear_1_3535" x1="41.2383" y1="28.4636" x2="41.2383" y2="41.4798" gradientUnits="userSpaceOnUse">
<stop stop-color="#FB6E71"/>
<stop offset="1" stop-color="#EE4548"/>
</linearGradient>
<linearGradient id="paint6_linear_1_3535" x1="54.5954" y1="30.5924" x2="54.5954" y2="41.4795" gradientUnits="userSpaceOnUse">
<stop stop-color="#FF820D"/>
<stop offset="1" stop-color="#F25608"/>
</linearGradient>
<linearGradient id="paint7_linear_1_3535" x1="54.5954" y1="23.4529" x2="54.5954" y2="41.4795" gradientUnits="userSpaceOnUse">
<stop stop-color="#FB6E71"/>
<stop offset="1" stop-color="#EE4548"/>
</linearGradient>
<linearGradient id="paint8_linear_1_3535" x1="68.6138" y1="33.9907" x2="68.6138" y2="41.4171" gradientUnits="userSpaceOnUse">
<stop stop-color="#FF820D"/>
<stop offset="1" stop-color="#F25608"/>
</linearGradient>
<linearGradient id="paint9_linear_1_3535" x1="68.6138" y1="29.1206" x2="68.6138" y2="41.4171" gradientUnits="userSpaceOnUse">
<stop stop-color="#FB6E71"/>
<stop offset="1" stop-color="#EE4548"/>
</linearGradient>
<linearGradient id="paint10_linear_1_3535" x1="83.3504" y1="30.0314" x2="83.3504" y2="41.3978" gradientUnits="userSpaceOnUse">
<stop stop-color="#FF820D"/>
<stop offset="1" stop-color="#F25608"/>
</linearGradient>
<linearGradient id="paint11_linear_1_3535" x1="83.3504" y1="22.5777" x2="83.3504" y2="41.3978" gradientUnits="userSpaceOnUse">
<stop stop-color="#FB6E71"/>
<stop offset="1" stop-color="#EE4548"/>
</linearGradient>
</defs>
</svg>
