<svg width="158" height="52" viewBox="0 0 158 52" fill="none" xmlns="http://www.w3.org/2000/svg">
<path d="M107.904 41.896C104.917 41.896 102.714 40.5333 101.296 37.808C99.877 35.0827 99.1676 31.368 99.1676 26.664C99.1676 22.856 99.9516 19.0293 101.52 15.184C103.125 11.3013 105.346 8.10933 108.184 5.608C111.021 3.06933 114.176 1.8 117.648 1.8C120.634 1.8 122.837 3.16266 124.256 5.888C125.674 8.61333 126.384 12.328 126.384 17.032C126.384 20.84 125.581 24.6853 123.976 28.568C122.408 32.4133 120.205 35.6053 117.368 38.144C114.53 40.6453 111.376 41.896 107.904 41.896ZM107.792 40.104C110.256 40.104 112.272 39.0213 113.84 36.856C115.445 34.6533 116.901 31.592 118.208 27.672C119.29 24.424 120.168 21.3067 120.84 18.32C121.549 15.3333 121.904 12.8133 121.904 10.76C121.904 5.98133 120.522 3.592 117.76 3.592C115.37 3.592 113.354 4.712 111.712 6.952C110.069 9.15466 108.613 12.1787 107.344 16.024C104.88 23.416 103.648 29.072 103.648 32.992C103.648 37.7333 105.029 40.104 107.792 40.104ZM137.308 41.896C135.927 41.896 134.545 41.5973 133.164 41C131.783 40.4027 130.625 39.5253 129.692 38.368C128.759 37.2107 128.292 35.848 128.292 34.28C128.292 32.4507 128.852 31.0693 129.972 30.136C131.092 29.1653 132.305 28.68 133.612 28.68C134.62 28.68 135.367 28.9973 135.852 29.632C136.337 30.2293 136.58 30.92 136.58 31.704C136.58 32.488 136.319 33.16 135.796 33.72C135.273 34.2427 134.601 34.504 133.78 34.504C133.332 34.504 132.959 34.4107 132.66 34.224C132.361 34.0373 132.025 33.944 131.652 33.944C131.353 33.944 131.111 34.056 130.924 34.28C130.737 34.4667 130.644 34.7467 130.644 35.12C130.644 36.8373 131.353 38.1067 132.772 38.928C134.191 39.712 135.759 40.104 137.476 40.104C138.745 40.104 139.959 39.768 141.116 39.096C142.273 38.424 143.3 37.4533 144.196 36.184C145.204 34.6907 145.969 32.9173 146.492 30.864C147.052 28.7733 147.332 26.9627 147.332 25.432C147.332 24.0133 147.089 22.8373 146.604 21.904C146.156 20.9707 145.055 20.504 143.3 20.504C142.852 20.504 142.46 20.5787 142.124 20.728C141.825 20.84 141.489 21.064 141.116 21.4C140.22 22.2213 139.361 22.632 138.54 22.632C137.905 22.632 137.42 22.5013 137.084 22.24C136.748 21.9787 136.58 21.624 136.58 21.176C136.58 20.6533 136.767 20.1867 137.14 19.776C137.551 19.328 138.111 19.104 138.82 19.104H144.588C145.671 19.104 146.735 18.712 147.78 17.928C148.863 17.1067 149.759 16.0987 150.468 14.904C151.364 13.3733 151.812 11.3387 151.812 8.8C151.812 7.26933 151.345 6.01866 150.412 5.048C149.516 4.07733 148.097 3.592 146.156 3.592C144.924 3.592 143.711 3.816 142.516 4.264C141.321 4.67466 140.332 5.25333 139.548 6C138.801 6.70933 138.428 7.49333 138.428 8.352C138.428 9.136 138.633 9.528 139.044 9.528C139.156 9.528 139.324 9.472 139.548 9.36C139.884 9.248 140.183 9.192 140.444 9.192C141.153 9.192 141.657 9.37867 141.956 9.752C142.255 10.088 142.404 10.6107 142.404 11.32C142.404 12.1413 142.124 12.8507 141.564 13.448C141.041 14.008 140.276 14.288 139.268 14.288C138.26 14.288 137.42 13.9147 136.748 13.168C136.113 12.384 135.796 11.432 135.796 10.312C135.796 8.59466 136.3 7.10133 137.308 5.832C138.353 4.52533 139.697 3.536 141.34 2.864C142.983 2.15466 144.7 1.8 146.492 1.8C148.471 1.8 150.225 2.21066 151.756 3.032C153.287 3.816 154.481 4.91733 155.34 6.336C156.199 7.75467 156.628 9.34133 156.628 11.096C156.628 12.7013 156.143 14.1387 155.172 15.408C154.239 16.6773 153.063 17.704 151.644 18.488C150.263 19.272 148.937 19.7573 147.668 19.944L147.612 20.336C148.919 20.8213 150.095 21.736 151.14 23.08C152.185 24.424 152.708 26.1787 152.708 28.344C152.708 30.3227 152.204 32.2453 151.196 34.112C150.225 35.9413 148.956 37.4533 147.388 38.648C146.119 39.6187 144.588 40.4027 142.796 41C141.041 41.5973 139.212 41.896 137.308 41.896Z" fill="url(#paint0_linear_1_3497)"/>
<path d="M107.904 41.896C104.917 41.896 102.714 40.5333 101.296 37.808C99.877 35.0827 99.1676 31.368 99.1676 26.664C99.1676 22.856 99.9516 19.0293 101.52 15.184C103.125 11.3013 105.346 8.10933 108.184 5.608C111.021 3.06933 114.176 1.8 117.648 1.8C120.634 1.8 122.837 3.16266 124.256 5.888C125.674 8.61333 126.384 12.328 126.384 17.032C126.384 20.84 125.581 24.6853 123.976 28.568C122.408 32.4133 120.205 35.6053 117.368 38.144C114.53 40.6453 111.376 41.896 107.904 41.896ZM107.792 40.104C110.256 40.104 112.272 39.0213 113.84 36.856C115.445 34.6533 116.901 31.592 118.208 27.672C119.29 24.424 120.168 21.3067 120.84 18.32C121.549 15.3333 121.904 12.8133 121.904 10.76C121.904 5.98133 120.522 3.592 117.76 3.592C115.37 3.592 113.354 4.712 111.712 6.952C110.069 9.15466 108.613 12.1787 107.344 16.024C104.88 23.416 103.648 29.072 103.648 32.992C103.648 37.7333 105.029 40.104 107.792 40.104ZM137.308 41.896C135.927 41.896 134.545 41.5973 133.164 41C131.783 40.4027 130.625 39.5253 129.692 38.368C128.759 37.2107 128.292 35.848 128.292 34.28C128.292 32.4507 128.852 31.0693 129.972 30.136C131.092 29.1653 132.305 28.68 133.612 28.68C134.62 28.68 135.367 28.9973 135.852 29.632C136.337 30.2293 136.58 30.92 136.58 31.704C136.58 32.488 136.319 33.16 135.796 33.72C135.273 34.2427 134.601 34.504 133.78 34.504C133.332 34.504 132.959 34.4107 132.66 34.224C132.361 34.0373 132.025 33.944 131.652 33.944C131.353 33.944 131.111 34.056 130.924 34.28C130.737 34.4667 130.644 34.7467 130.644 35.12C130.644 36.8373 131.353 38.1067 132.772 38.928C134.191 39.712 135.759 40.104 137.476 40.104C138.745 40.104 139.959 39.768 141.116 39.096C142.273 38.424 143.3 37.4533 144.196 36.184C145.204 34.6907 145.969 32.9173 146.492 30.864C147.052 28.7733 147.332 26.9627 147.332 25.432C147.332 24.0133 147.089 22.8373 146.604 21.904C146.156 20.9707 145.055 20.504 143.3 20.504C142.852 20.504 142.46 20.5787 142.124 20.728C141.825 20.84 141.489 21.064 141.116 21.4C140.22 22.2213 139.361 22.632 138.54 22.632C137.905 22.632 137.42 22.5013 137.084 22.24C136.748 21.9787 136.58 21.624 136.58 21.176C136.58 20.6533 136.767 20.1867 137.14 19.776C137.551 19.328 138.111 19.104 138.82 19.104H144.588C145.671 19.104 146.735 18.712 147.78 17.928C148.863 17.1067 149.759 16.0987 150.468 14.904C151.364 13.3733 151.812 11.3387 151.812 8.8C151.812 7.26933 151.345 6.01866 150.412 5.048C149.516 4.07733 148.097 3.592 146.156 3.592C144.924 3.592 143.711 3.816 142.516 4.264C141.321 4.67466 140.332 5.25333 139.548 6C138.801 6.70933 138.428 7.49333 138.428 8.352C138.428 9.136 138.633 9.528 139.044 9.528C139.156 9.528 139.324 9.472 139.548 9.36C139.884 9.248 140.183 9.192 140.444 9.192C141.153 9.192 141.657 9.37867 141.956 9.752C142.255 10.088 142.404 10.6107 142.404 11.32C142.404 12.1413 142.124 12.8507 141.564 13.448C141.041 14.008 140.276 14.288 139.268 14.288C138.26 14.288 137.42 13.9147 136.748 13.168C136.113 12.384 135.796 11.432 135.796 10.312C135.796 8.59466 136.3 7.10133 137.308 5.832C138.353 4.52533 139.697 3.536 141.34 2.864C142.983 2.15466 144.7 1.8 146.492 1.8C148.471 1.8 150.225 2.21066 151.756 3.032C153.287 3.816 154.481 4.91733 155.34 6.336C156.199 7.75467 156.628 9.34133 156.628 11.096C156.628 12.7013 156.143 14.1387 155.172 15.408C154.239 16.6773 153.063 17.704 151.644 18.488C150.263 19.272 148.937 19.7573 147.668 19.944L147.612 20.336C148.919 20.8213 150.095 21.736 151.14 23.08C152.185 24.424 152.708 26.1787 152.708 28.344C152.708 30.3227 152.204 32.2453 151.196 34.112C150.225 35.9413 148.956 37.4533 147.388 38.648C146.119 39.6187 144.588 40.4027 142.796 41C141.041 41.5973 139.212 41.896 137.308 41.896Z" fill="url(#paint1_linear_1_3497)"/>
<path d="M2.7209 44.4827C1.82675 44.0492 1.14893 43.4809 0.692242 42.7825C0.230747 42.0841 0 41.3424 0 40.5526C0 39.5267 0.307663 38.7031 0.927797 38.0866C1.54793 37.4701 2.24979 37.1571 3.03817 37.1571C3.53813 37.1571 3.97559 37.2968 4.36017 37.5713C4.73994 37.8458 4.93223 38.1444 4.93223 38.4623C4.93223 38.5394 4.89858 38.6116 4.83608 38.679L4.61976 38.8958C4.35536 39.1847 4.15345 39.4737 4.00924 39.7627C3.86502 40.0517 3.79291 40.4322 3.79291 40.909C3.79291 41.6218 4.01404 42.219 4.46112 42.7054C4.90819 43.1919 5.55236 43.4375 6.39363 43.4375C7.57621 43.4375 8.58092 42.9511 9.40777 41.9782C10.2346 41.0053 10.9317 39.8012 11.4989 38.366C12.0614 36.9307 12.7248 34.9657 13.4891 32.4612C14.2006 30.1205 14.8351 28.1844 15.4024 26.6576C15.9696 25.1308 16.6763 23.7004 17.532 22.3711C18.3877 21.0418 19.3924 20.0497 20.5461 19.3898C20.8105 19.2309 21.099 19.1057 21.4114 19.0142C21.7287 18.9227 22.0172 18.8745 22.2767 18.8745C22.4883 18.8745 22.6565 18.9034 22.7911 18.9516C22.9209 19.0045 22.9882 19.0816 22.9882 19.1875C22.9882 19.3176 22.8969 19.4765 22.7142 19.6595C22.2431 20.1604 21.7816 20.7673 21.3345 21.4753C20.7048 22.5012 20.1471 23.6763 19.6568 24.9912C19.1713 26.306 18.6136 28.0832 17.9839 30.3228C17.0369 33.5352 16.1523 36.1168 15.3207 38.0625C14.4938 40.0131 13.3112 41.6748 11.7729 43.057C10.2346 44.4393 8.25883 45.1329 5.84079 45.1329C4.65821 45.1329 3.61985 44.9161 2.7257 44.4827H2.7209ZM32.146 28.5071C31.0019 30.1398 29.2569 31.4739 26.9013 32.5142C24.5506 33.5545 21.6374 34.0747 18.1714 34.0747C17.7243 34.0747 17.1811 34.041 16.5369 33.9735C15.8927 33.9061 15.388 33.8339 15.0178 33.7568L15.412 32.1771C15.6476 32.283 16.0369 32.3553 16.5754 32.3938C17.1138 32.4323 17.5416 32.4516 17.8589 32.4516C20.3298 32.4516 22.4835 32.0566 24.3246 31.2668C26.1658 30.4769 27.5791 29.3884 28.5598 28.011C29.5453 26.6287 30.0404 25.0441 30.0404 23.2525C30.0404 21.8317 29.627 20.5795 28.8002 19.5006C27.9733 18.4218 26.8004 17.5934 25.2909 17.0106C23.7814 16.4326 22.0268 16.1437 20.027 16.1437C17.6089 16.1437 15.4264 16.5434 13.4843 17.3477C11.5374 18.152 10.0135 19.1827 8.91262 20.4494C7.81176 21.7161 7.25893 23.0309 7.25893 24.3988C7.25893 25.2946 7.49929 25.9833 7.98963 26.4698C8.47516 26.9562 9.08568 27.2018 9.82119 27.2018C10.2683 27.2018 10.7009 27.1103 11.1239 26.9273C11.5422 26.7443 11.8739 26.5709 12.1094 26.412C12.2681 26.306 12.3594 26.253 12.3834 26.253C12.619 26.253 12.7392 26.4505 12.7392 26.8454C12.7392 27.3463 12.5613 27.8809 12.2056 28.4444C11.8498 29.0128 11.3403 29.4848 10.6673 29.8652C9.99906 30.2457 9.18663 30.4384 8.24441 30.4384C6.95607 30.4384 5.88406 30.0434 5.03318 29.2536C4.17749 28.4637 3.74965 27.3319 3.74965 25.8581C3.74965 23.9894 4.46592 22.1833 5.89848 20.4494C7.33104 18.7107 9.34046 17.2899 11.9316 16.1822C14.5179 15.0744 17.431 14.5254 20.6615 14.5254C23.2622 14.5254 25.5601 14.9011 27.5599 15.6524C29.5549 16.4037 31.1076 17.4489 32.2133 18.7926C33.319 20.1364 33.867 21.6631 33.867 23.3729C33.867 25.0827 33.2949 26.8743 32.1508 28.5071H32.146Z" fill="url(#paint2_linear_1_3497)"/>
<path d="M2.7209 44.4827C1.82675 44.0492 1.14893 43.4809 0.692242 42.7825C0.230747 42.0841 0 41.3424 0 40.5526C0 39.5267 0.307663 38.7031 0.927797 38.0866C1.54793 37.4701 2.24979 37.1571 3.03817 37.1571C3.53813 37.1571 3.97559 37.2968 4.36017 37.5713C4.73994 37.8458 4.93223 38.1444 4.93223 38.4623C4.93223 38.5394 4.89858 38.6116 4.83608 38.679L4.61976 38.8958C4.35536 39.1847 4.15345 39.4737 4.00924 39.7627C3.86502 40.0517 3.79291 40.4322 3.79291 40.909C3.79291 41.6218 4.01404 42.219 4.46112 42.7054C4.90819 43.1919 5.55236 43.4375 6.39363 43.4375C7.57621 43.4375 8.58092 42.9511 9.40777 41.9782C10.2346 41.0053 10.9317 39.8012 11.4989 38.366C12.0614 36.9307 12.7248 34.9657 13.4891 32.4612C14.2006 30.1205 14.8351 28.1844 15.4024 26.6576C15.9696 25.1308 16.6763 23.7004 17.532 22.3711C18.3877 21.0418 19.3924 20.0497 20.5461 19.3898C20.8105 19.2309 21.099 19.1057 21.4114 19.0142C21.7287 18.9227 22.0172 18.8745 22.2767 18.8745C22.4883 18.8745 22.6565 18.9034 22.7911 18.9516C22.9209 19.0045 22.9882 19.0816 22.9882 19.1875C22.9882 19.3176 22.8969 19.4765 22.7142 19.6595C22.2431 20.1604 21.7816 20.7673 21.3345 21.4753C20.7048 22.5012 20.1471 23.6763 19.6568 24.9912C19.1713 26.306 18.6136 28.0832 17.9839 30.3228C17.0369 33.5352 16.1523 36.1168 15.3207 38.0625C14.4938 40.0131 13.3112 41.6748 11.7729 43.057C10.2346 44.4393 8.25883 45.1329 5.84079 45.1329C4.65821 45.1329 3.61985 44.9161 2.7257 44.4827H2.7209ZM32.146 28.5071C31.0019 30.1398 29.2569 31.4739 26.9013 32.5142C24.5506 33.5545 21.6374 34.0747 18.1714 34.0747C17.7243 34.0747 17.1811 34.041 16.5369 33.9735C15.8927 33.9061 15.388 33.8339 15.0178 33.7568L15.412 32.1771C15.6476 32.283 16.0369 32.3553 16.5754 32.3938C17.1138 32.4323 17.5416 32.4516 17.8589 32.4516C20.3298 32.4516 22.4835 32.0566 24.3246 31.2668C26.1658 30.4769 27.5791 29.3884 28.5598 28.011C29.5453 26.6287 30.0404 25.0441 30.0404 23.2525C30.0404 21.8317 29.627 20.5795 28.8002 19.5006C27.9733 18.4218 26.8004 17.5934 25.2909 17.0106C23.7814 16.4326 22.0268 16.1437 20.027 16.1437C17.6089 16.1437 15.4264 16.5434 13.4843 17.3477C11.5374 18.152 10.0135 19.1827 8.91262 20.4494C7.81176 21.7161 7.25893 23.0309 7.25893 24.3988C7.25893 25.2946 7.49929 25.9833 7.98963 26.4698C8.47516 26.9562 9.08568 27.2018 9.82119 27.2018C10.2683 27.2018 10.7009 27.1103 11.1239 26.9273C11.5422 26.7443 11.8739 26.5709 12.1094 26.412C12.2681 26.306 12.3594 26.253 12.3834 26.253C12.619 26.253 12.7392 26.4505 12.7392 26.8454C12.7392 27.3463 12.5613 27.8809 12.2056 28.4444C11.8498 29.0128 11.3403 29.4848 10.6673 29.8652C9.99906 30.2457 9.18663 30.4384 8.24441 30.4384C6.95607 30.4384 5.88406 30.0434 5.03318 29.2536C4.17749 28.4637 3.74965 27.3319 3.74965 25.8581C3.74965 23.9894 4.46592 22.1833 5.89848 20.4494C7.33104 18.7107 9.34046 17.2899 11.9316 16.1822C14.5179 15.0744 17.431 14.5254 20.6615 14.5254C23.2622 14.5254 25.5601 14.9011 27.5599 15.6524C29.5549 16.4037 31.1076 17.4489 32.2133 18.7926C33.319 20.1364 33.867 21.6631 33.867 23.3729C33.867 25.0827 33.2949 26.8743 32.1508 28.5071H32.146Z" fill="url(#paint3_linear_1_3497)"/>
<path d="M40.0774 34.5275C39.1592 34.1181 38.4429 33.5594 37.9285 32.8514C37.4141 32.1434 37.1594 31.3487 37.1594 30.4818C37.1594 29.4271 37.5055 28.5601 38.2025 27.8762C38.8996 27.1923 39.7312 26.8503 40.7071 26.8503C41.4955 26.8503 42.2262 27.1008 42.8944 27.6017C43.5626 28.1026 44.0962 28.8202 44.4904 29.7546C44.8846 30.6889 45.0817 31.7774 45.0817 33.0152C45.0817 34.619 44.7404 36.1939 44.0578 37.7351C43.3751 39.2763 42.4137 40.5334 41.1782 41.5063C39.9428 42.4792 38.539 42.9656 36.9623 42.9656C35.3855 42.9656 34.1885 42.4599 33.2943 41.4437C32.4002 40.4323 31.9531 39.1608 31.9531 37.634C31.9531 36.2132 32.3233 34.8309 33.0588 33.4872C33.7943 32.1434 34.674 31.0453 35.698 30.188C36.7219 29.3307 37.5632 28.9021 38.2218 28.9021C38.5871 28.9021 38.7746 29.0851 38.7746 29.4559C38.7746 29.7208 38.5006 30.0243 37.9478 30.3662C37.4238 30.6311 36.9238 31.1031 36.4479 31.787C35.9768 32.4709 35.5922 33.2608 35.3038 34.1566C35.0153 35.0525 34.8711 35.9194 34.8711 36.7622C34.8711 37.9759 35.1355 38.9922 35.6595 39.8254C36.1835 40.6538 36.9478 41.068 37.9478 41.068C38.8659 41.068 39.7024 40.7212 40.4523 40.0229C41.2023 39.3245 41.7791 38.4046 42.1877 37.2583C42.5964 36.112 42.7983 34.855 42.7983 33.4872C42.7983 32.2494 42.5819 31.2139 42.1493 30.3855C41.7166 29.5571 41.183 29.1429 40.5533 29.1429C40.1831 29.1429 39.8851 29.2874 39.6447 29.5764C39.4092 29.8653 39.289 30.2603 39.289 30.7612C39.289 31.657 39.6495 32.3939 40.3706 32.9718C41.0917 33.5498 42.0579 33.8388 43.2694 33.8388C44.2693 33.8388 45.1923 33.5691 46.0479 33.0296C46.9036 32.4902 47.7497 31.7581 48.591 30.8382C48.7737 30.6552 48.9515 30.4577 49.1246 30.2458C49.2928 30.0339 49.4611 29.8509 49.6149 29.6919C49.8264 29.48 50.0091 29.3741 50.1678 29.3741C50.2447 29.3741 50.3264 29.4126 50.4033 29.4945C50.4802 29.5764 50.5235 29.6919 50.5235 29.8509C50.5235 30.0339 50.4466 30.2603 50.2879 30.5203C49.4755 31.7581 48.4131 32.837 47.1152 33.7569C45.8124 34.6768 44.4952 35.1392 43.154 35.1392C42.0243 35.1392 41.0003 34.9369 40.0774 34.5275Z" fill="url(#paint4_linear_1_3497)"/>
<path d="M40.0774 34.5275C39.1592 34.1181 38.4429 33.5594 37.9285 32.8514C37.4141 32.1434 37.1594 31.3487 37.1594 30.4818C37.1594 29.4271 37.5055 28.5601 38.2025 27.8762C38.8996 27.1923 39.7312 26.8503 40.7071 26.8503C41.4955 26.8503 42.2262 27.1008 42.8944 27.6017C43.5626 28.1026 44.0962 28.8202 44.4904 29.7546C44.8846 30.6889 45.0817 31.7774 45.0817 33.0152C45.0817 34.619 44.7404 36.1939 44.0578 37.7351C43.3751 39.2763 42.4137 40.5334 41.1782 41.5063C39.9428 42.4792 38.539 42.9656 36.9623 42.9656C35.3855 42.9656 34.1885 42.4599 33.2943 41.4437C32.4002 40.4323 31.9531 39.1608 31.9531 37.634C31.9531 36.2132 32.3233 34.8309 33.0588 33.4872C33.7943 32.1434 34.674 31.0453 35.698 30.188C36.7219 29.3307 37.5632 28.9021 38.2218 28.9021C38.5871 28.9021 38.7746 29.0851 38.7746 29.4559C38.7746 29.7208 38.5006 30.0243 37.9478 30.3662C37.4238 30.6311 36.9238 31.1031 36.4479 31.787C35.9768 32.4709 35.5922 33.2608 35.3038 34.1566C35.0153 35.0525 34.8711 35.9194 34.8711 36.7622C34.8711 37.9759 35.1355 38.9922 35.6595 39.8254C36.1835 40.6538 36.9478 41.068 37.9478 41.068C38.8659 41.068 39.7024 40.7212 40.4523 40.0229C41.2023 39.3245 41.7791 38.4046 42.1877 37.2583C42.5964 36.112 42.7983 34.855 42.7983 33.4872C42.7983 32.2494 42.5819 31.2139 42.1493 30.3855C41.7166 29.5571 41.183 29.1429 40.5533 29.1429C40.1831 29.1429 39.8851 29.2874 39.6447 29.5764C39.4092 29.8653 39.289 30.2603 39.289 30.7612C39.289 31.657 39.6495 32.3939 40.3706 32.9718C41.0917 33.5498 42.0579 33.8388 43.2694 33.8388C44.2693 33.8388 45.1923 33.5691 46.0479 33.0296C46.9036 32.4902 47.7497 31.7581 48.591 30.8382C48.7737 30.6552 48.9515 30.4577 49.1246 30.2458C49.2928 30.0339 49.4611 29.8509 49.6149 29.6919C49.8264 29.48 50.0091 29.3741 50.1678 29.3741C50.2447 29.3741 50.3264 29.4126 50.4033 29.4945C50.4802 29.5764 50.5235 29.6919 50.5235 29.8509C50.5235 30.0339 50.4466 30.2603 50.2879 30.5203C49.4755 31.7581 48.4131 32.837 47.1152 33.7569C45.8124 34.6768 44.4952 35.1392 43.154 35.1392C42.0243 35.1392 41.0003 34.9369 40.0774 34.5275Z" fill="url(#paint5_linear_1_3497)"/>
<path d="M54.5569 28.1312C54.8597 28.4347 55.0088 28.7814 55.0088 29.1764C55.0088 29.3353 54.9799 29.4798 54.9319 29.6098C54.879 29.7399 54.7876 29.9133 54.6578 30.1252C54.4223 30.4671 54.2108 30.838 54.0281 31.2329C53.4512 32.4177 53.0186 33.6314 52.7253 34.8644C52.4369 36.1022 52.2927 37.181 52.2927 38.1009C52.2927 39.0208 52.4321 39.7288 52.7061 40.1334C52.9801 40.5428 53.3166 40.7451 53.7108 40.7451C54.3935 40.7451 55.1963 40.2731 56.1144 39.3243C57.0326 38.3755 58.0085 37.0606 59.0324 35.3749C59.1622 35.1919 59.3209 35.1004 59.5035 35.1004C59.6093 35.1004 59.7006 35.1389 59.7776 35.2208C59.8545 35.3027 59.8977 35.4183 59.8977 35.5772C59.8977 35.7361 59.8449 35.9047 59.7391 36.0925C58.5806 38.2791 57.3691 39.9696 56.0952 41.1689C54.8213 42.3682 53.5762 42.9654 52.3696 42.9654C51.3457 42.9654 50.5765 42.5319 50.0621 41.6602C49.5478 40.7932 49.293 39.724 49.293 38.4622C49.293 37.4363 49.4372 36.2178 49.7256 34.8114C50.0141 33.4051 50.3938 32.1191 50.8697 30.9584C51.288 29.9566 51.711 29.1619 52.1292 28.5695C52.5475 27.9771 52.9945 27.6785 53.4705 27.6785C53.8887 27.6785 54.254 27.8326 54.5521 28.1312H54.5569ZM54.6338 24.2397C54.2781 23.9218 54.1002 23.5172 54.1002 23.0163C54.1002 22.3565 54.3502 21.7978 54.8501 21.3355C55.3501 20.8731 55.9414 20.6467 56.624 20.6467C57.3066 20.6467 57.7729 20.8297 58.1046 21.2006C58.4315 21.5715 58.595 22.0049 58.595 22.5058C58.595 23.1367 58.3306 23.6665 57.8066 24.0856C57.2826 24.5094 56.6769 24.7165 55.9943 24.7165C55.4414 24.7165 54.9895 24.5575 54.6338 24.2445V24.2397Z" fill="url(#paint6_linear_1_3497)"/>
<path d="M54.5569 28.1312C54.8597 28.4347 55.0088 28.7814 55.0088 29.1764C55.0088 29.3353 54.9799 29.4798 54.9319 29.6098C54.879 29.7399 54.7876 29.9133 54.6578 30.1252C54.4223 30.4671 54.2108 30.838 54.0281 31.2329C53.4512 32.4177 53.0186 33.6314 52.7253 34.8644C52.4369 36.1022 52.2927 37.181 52.2927 38.1009C52.2927 39.0208 52.4321 39.7288 52.7061 40.1334C52.9801 40.5428 53.3166 40.7451 53.7108 40.7451C54.3935 40.7451 55.1963 40.2731 56.1144 39.3243C57.0326 38.3755 58.0085 37.0606 59.0324 35.3749C59.1622 35.1919 59.3209 35.1004 59.5035 35.1004C59.6093 35.1004 59.7006 35.1389 59.7776 35.2208C59.8545 35.3027 59.8977 35.4183 59.8977 35.5772C59.8977 35.7361 59.8449 35.9047 59.7391 36.0925C58.5806 38.2791 57.3691 39.9696 56.0952 41.1689C54.8213 42.3682 53.5762 42.9654 52.3696 42.9654C51.3457 42.9654 50.5765 42.5319 50.0621 41.6602C49.5478 40.7932 49.293 39.724 49.293 38.4622C49.293 37.4363 49.4372 36.2178 49.7256 34.8114C50.0141 33.4051 50.3938 32.1191 50.8697 30.9584C51.288 29.9566 51.711 29.1619 52.1292 28.5695C52.5475 27.9771 52.9945 27.6785 53.4705 27.6785C53.8887 27.6785 54.254 27.8326 54.5521 28.1312H54.5569ZM54.6338 24.2397C54.2781 23.9218 54.1002 23.5172 54.1002 23.0163C54.1002 22.3565 54.3502 21.7978 54.8501 21.3355C55.3501 20.8731 55.9414 20.6467 56.624 20.6467C57.3066 20.6467 57.7729 20.8297 58.1046 21.2006C58.4315 21.5715 58.595 22.0049 58.595 22.5058C58.595 23.1367 58.3306 23.6665 57.8066 24.0856C57.2826 24.5094 56.6769 24.7165 55.9943 24.7165C55.4414 24.7165 54.9895 24.5575 54.6338 24.2445V24.2397Z" fill="url(#paint7_linear_1_3497)"/>
<path d="M64.3498 31.1127C64.2729 31.3246 64.1911 31.5028 64.1142 31.6473C64.0373 31.7918 63.9412 31.9989 63.8402 32.259C63.3403 33.3667 62.9124 34.6816 62.5567 36.2083C62.201 37.7351 62.0231 39.3004 62.0231 40.909L61.826 40.3552C62.3788 38.7754 63.2105 36.9934 64.3306 35.0043C65.4458 33.0152 66.6669 31.3006 67.9985 29.8509C69.3253 28.4012 70.5655 27.6787 71.7241 27.6787C72.2769 27.6787 72.7336 27.881 73.1038 28.2904C73.4691 28.6998 73.6566 29.297 73.6566 30.0869C73.6566 30.7178 73.5364 31.3921 73.3009 32.1001C73.0653 32.8129 72.6952 33.7183 72.1952 34.8261C71.7241 35.9338 71.3684 36.8345 71.1328 37.5328C70.8973 38.2312 70.7771 38.8717 70.7771 39.4497C70.7771 39.7676 70.8444 40.018 70.9742 40.201C71.104 40.3841 71.277 40.4756 71.4885 40.4756C72.0414 40.4756 72.748 40.1192 73.6181 39.4112C74.4883 38.7032 75.5218 37.3594 76.7332 35.3848C76.839 35.2017 76.9976 35.1102 77.2043 35.1102C77.3101 35.1102 77.4062 35.1584 77.5024 35.2499C77.5937 35.3414 77.6418 35.4522 77.6418 35.587C77.6418 35.746 77.5745 35.929 77.4447 36.1409C76.2333 38.3805 75.0122 40.0662 73.7768 41.198C72.5413 42.3298 71.4116 42.8982 70.3877 42.8982C69.5224 42.8982 68.8686 42.614 68.4359 42.0505C68.0033 41.487 67.787 40.7405 67.787 39.8206C67.787 39.1607 67.912 38.4383 68.1619 37.6484C68.4119 36.8585 68.7965 35.8182 69.3253 34.5275C69.6666 33.7135 69.931 33.0344 70.1137 32.495C70.2963 31.9556 70.3877 31.5269 70.3877 31.209C70.3877 30.9971 70.3492 30.8334 70.2675 30.7178C70.1906 30.5974 70.0848 30.5396 69.9502 30.5396C69.4791 30.5396 68.859 30.9634 68.0994 31.8014C67.3351 32.6443 66.5563 33.7424 65.7535 35.1006C64.9507 36.4588 64.2344 37.8844 63.6047 39.3871C63.3931 39.888 63.172 40.4804 62.9365 41.1643C62.7249 41.8241 62.5471 42.2769 62.4029 42.5273C62.2586 42.7778 62.0279 42.903 61.7106 42.903C61.3164 42.903 60.9703 42.7729 60.6674 42.508C60.3646 42.2431 60.1098 41.8916 59.8983 41.4436C59.7925 41.2317 59.7156 40.8801 59.6627 40.3792C59.6099 39.8783 59.5858 39.3919 59.5858 38.9199C59.5858 38.4479 59.6435 37.7544 59.7637 36.8441C59.8839 35.9338 60.0185 35.115 60.1771 34.3782C60.5713 32.5335 60.9847 31.1946 61.4174 30.3517C61.85 29.5089 62.3836 29.0899 63.0134 29.0899C63.4316 29.0899 63.8018 29.2296 64.119 29.5041C64.4363 29.7786 64.5902 30.0917 64.5902 30.4336C64.5902 30.5637 64.5132 30.8045 64.3546 31.1464L64.3498 31.1127Z" fill="url(#paint8_linear_1_3497)"/>
<path d="M64.3498 31.1127C64.2729 31.3246 64.1911 31.5028 64.1142 31.6473C64.0373 31.7918 63.9412 31.9989 63.8402 32.259C63.3403 33.3667 62.9124 34.6816 62.5567 36.2083C62.201 37.7351 62.0231 39.3004 62.0231 40.909L61.826 40.3552C62.3788 38.7754 63.2105 36.9934 64.3306 35.0043C65.4458 33.0152 66.6669 31.3006 67.9985 29.8509C69.3253 28.4012 70.5655 27.6787 71.7241 27.6787C72.2769 27.6787 72.7336 27.881 73.1038 28.2904C73.4691 28.6998 73.6566 29.297 73.6566 30.0869C73.6566 30.7178 73.5364 31.3921 73.3009 32.1001C73.0653 32.8129 72.6952 33.7183 72.1952 34.8261C71.7241 35.9338 71.3684 36.8345 71.1328 37.5328C70.8973 38.2312 70.7771 38.8717 70.7771 39.4497C70.7771 39.7676 70.8444 40.018 70.9742 40.201C71.104 40.3841 71.277 40.4756 71.4885 40.4756C72.0414 40.4756 72.748 40.1192 73.6181 39.4112C74.4883 38.7032 75.5218 37.3594 76.7332 35.3848C76.839 35.2017 76.9976 35.1102 77.2043 35.1102C77.3101 35.1102 77.4062 35.1584 77.5024 35.2499C77.5937 35.3414 77.6418 35.4522 77.6418 35.587C77.6418 35.746 77.5745 35.929 77.4447 36.1409C76.2333 38.3805 75.0122 40.0662 73.7768 41.198C72.5413 42.3298 71.4116 42.8982 70.3877 42.8982C69.5224 42.8982 68.8686 42.614 68.4359 42.0505C68.0033 41.487 67.787 40.7405 67.787 39.8206C67.787 39.1607 67.912 38.4383 68.1619 37.6484C68.4119 36.8585 68.7965 35.8182 69.3253 34.5275C69.6666 33.7135 69.931 33.0344 70.1137 32.495C70.2963 31.9556 70.3877 31.5269 70.3877 31.209C70.3877 30.9971 70.3492 30.8334 70.2675 30.7178C70.1906 30.5974 70.0848 30.5396 69.9502 30.5396C69.4791 30.5396 68.859 30.9634 68.0994 31.8014C67.3351 32.6443 66.5563 33.7424 65.7535 35.1006C64.9507 36.4588 64.2344 37.8844 63.6047 39.3871C63.3931 39.888 63.172 40.4804 62.9365 41.1643C62.7249 41.8241 62.5471 42.2769 62.4029 42.5273C62.2586 42.7778 62.0279 42.903 61.7106 42.903C61.3164 42.903 60.9703 42.7729 60.6674 42.508C60.3646 42.2431 60.1098 41.8916 59.8983 41.4436C59.7925 41.2317 59.7156 40.8801 59.6627 40.3792C59.6099 39.8783 59.5858 39.3919 59.5858 38.9199C59.5858 38.4479 59.6435 37.7544 59.7637 36.8441C59.8839 35.9338 60.0185 35.115 60.1771 34.3782C60.5713 32.5335 60.9847 31.1946 61.4174 30.3517C61.85 29.5089 62.3836 29.0899 63.0134 29.0899C63.4316 29.0899 63.8018 29.2296 64.119 29.5041C64.4363 29.7786 64.5902 30.0917 64.5902 30.4336C64.5902 30.5637 64.5132 30.8045 64.3546 31.1464L64.3498 31.1127Z" fill="url(#paint9_linear_1_3497)"/>
<path d="M78.7187 30.7563C78.1033 30.4143 77.7909 30.005 77.7909 29.533C77.7909 29.427 77.8101 29.3355 77.8486 29.2584C77.887 29.1814 77.9591 29.138 78.0649 29.138L78.3389 29.2151C78.7331 29.3451 79.233 29.4125 79.8388 29.4125C80.8387 29.4125 81.9299 29.321 83.1125 29.138C84.2951 28.955 85.3334 28.6516 86.2276 28.2277C86.8862 27.9099 87.3861 27.5824 87.7274 27.2404C87.8044 27.1874 87.8668 27.1344 87.9053 27.0815C87.9438 27.0285 88.0014 27.0044 88.0832 27.0044C88.2658 27.0044 88.4533 27.1344 88.636 27.3993C88.8187 27.6642 88.91 27.9917 88.91 28.3867C88.91 29.2536 88.2899 29.9664 87.0592 30.5203C85.8238 31.0742 84.1701 31.3487 82.0934 31.3487H81.3819C81.2232 31.3246 81.0261 31.3102 80.7906 31.3102C80.0262 31.2861 79.3388 31.0982 78.7235 30.7563H78.7187ZM82.2664 39.9795C82.5404 40.4659 82.9442 40.7115 83.4682 40.7115C83.8624 40.7115 84.2374 40.5671 84.5931 40.2781C84.9489 39.9891 85.3238 39.5412 85.718 38.9343L85.9151 38.7369C86.0449 38.5779 86.1651 38.5009 86.2708 38.5009C86.4535 38.5009 86.5449 38.6309 86.5449 38.8958C86.5449 39.0258 86.5064 39.2137 86.4247 39.4497C86.3478 39.6857 86.266 39.8831 86.1891 40.0421C85.742 40.8608 85.1988 41.5351 84.5547 42.0745C83.9105 42.614 83.1029 42.8837 82.1318 42.8837C81.1608 42.8837 80.3387 42.4936 79.7474 41.7181C79.1561 40.9427 78.8581 39.8157 78.8581 38.3419C78.8581 36.0012 79.3052 33.2945 80.1993 30.2265C81.0934 27.1585 82.1558 24.4566 83.3913 22.1111C83.8095 21.2971 84.223 20.671 84.6316 20.2327C85.0402 19.7993 85.4632 19.5825 85.9151 19.5825C86.3333 19.5825 86.7179 19.727 87.0592 20.016C87.4005 20.305 87.5736 20.6469 87.5736 21.0419C87.5736 21.0948 87.54 21.1719 87.4727 21.2779C87.4054 21.3838 87.3332 21.4994 87.2563 21.6343C86.8621 22.0581 86.4535 22.636 86.0353 23.3729C84.9825 25.2416 84.0259 27.5246 83.1558 30.2265C82.2904 32.9236 81.853 35.4184 81.853 37.711C81.853 38.7369 81.9924 39.493 82.2664 39.9795Z" fill="url(#paint10_linear_1_3497)"/>
<path d="M78.7187 30.7563C78.1033 30.4143 77.7909 30.005 77.7909 29.533C77.7909 29.427 77.8101 29.3355 77.8486 29.2584C77.887 29.1814 77.9591 29.138 78.0649 29.138L78.3389 29.2151C78.7331 29.3451 79.233 29.4125 79.8388 29.4125C80.8387 29.4125 81.9299 29.321 83.1125 29.138C84.2951 28.955 85.3334 28.6516 86.2276 28.2277C86.8862 27.9099 87.3861 27.5824 87.7274 27.2404C87.8044 27.1874 87.8668 27.1344 87.9053 27.0815C87.9438 27.0285 88.0014 27.0044 88.0832 27.0044C88.2658 27.0044 88.4533 27.1344 88.636 27.3993C88.8187 27.6642 88.91 27.9917 88.91 28.3867C88.91 29.2536 88.2899 29.9664 87.0592 30.5203C85.8238 31.0742 84.1701 31.3487 82.0934 31.3487H81.3819C81.2232 31.3246 81.0261 31.3102 80.7906 31.3102C80.0262 31.2861 79.3388 31.0982 78.7235 30.7563H78.7187ZM82.2664 39.9795C82.5404 40.4659 82.9442 40.7115 83.4682 40.7115C83.8624 40.7115 84.2374 40.5671 84.5931 40.2781C84.9489 39.9891 85.3238 39.5412 85.718 38.9343L85.9151 38.7369C86.0449 38.5779 86.1651 38.5009 86.2708 38.5009C86.4535 38.5009 86.5449 38.6309 86.5449 38.8958C86.5449 39.0258 86.5064 39.2137 86.4247 39.4497C86.3478 39.6857 86.266 39.8831 86.1891 40.0421C85.742 40.8608 85.1988 41.5351 84.5547 42.0745C83.9105 42.614 83.1029 42.8837 82.1318 42.8837C81.1608 42.8837 80.3387 42.4936 79.7474 41.7181C79.1561 40.9427 78.8581 39.8157 78.8581 38.3419C78.8581 36.0012 79.3052 33.2945 80.1993 30.2265C81.0934 27.1585 82.1558 24.4566 83.3913 22.1111C83.8095 21.2971 84.223 20.671 84.6316 20.2327C85.0402 19.7993 85.4632 19.5825 85.9151 19.5825C86.3333 19.5825 86.7179 19.727 87.0592 20.016C87.4005 20.305 87.5736 20.6469 87.5736 21.0419C87.5736 21.0948 87.54 21.1719 87.4727 21.2779C87.4054 21.3838 87.3332 21.4994 87.2563 21.6343C86.8621 22.0581 86.4535 22.636 86.0353 23.3729C84.9825 25.2416 84.0259 27.5246 83.1558 30.2265C82.2904 32.9236 81.853 35.4184 81.853 37.711C81.853 38.7369 81.9924 39.493 82.2664 39.9795Z" fill="url(#paint11_linear_1_3497)"/>
<defs>
<linearGradient id="paint0_linear_1_3497" x1="126.5" y1="26.6341" x2="126.5" y2="52" gradientUnits="userSpaceOnUse">
<stop stop-color="#FF820D"/>
<stop offset="1" stop-color="#F25608"/>
</linearGradient>
<linearGradient id="paint1_linear_1_3497" x1="126.5" y1="10" x2="126.5" y2="52" gradientUnits="userSpaceOnUse">
<stop stop-color="#FB6E71"/>
<stop offset="1" stop-color="#EE4548"/>
</linearGradient>
<linearGradient id="paint2_linear_1_3497" x1="16.9335" y1="30.2024" x2="16.9335" y2="45.1329" gradientUnits="userSpaceOnUse">
<stop stop-color="#FF820D"/>
<stop offset="1" stop-color="#F25608"/>
</linearGradient>
<linearGradient id="paint3_linear_1_3497" x1="16.9335" y1="20.4114" x2="16.9335" y2="45.1328" gradientUnits="userSpaceOnUse">
<stop stop-color="#FB6E71"/>
<stop offset="1" stop-color="#EE4548"/>
</linearGradient>
<linearGradient id="paint4_linear_1_3497" x1="41.2383" y1="35.1045" x2="41.2383" y2="42.9656" gradientUnits="userSpaceOnUse">
<stop stop-color="#FF820D"/>
<stop offset="1" stop-color="#F25608"/>
</linearGradient>
<linearGradient id="paint5_linear_1_3497" x1="41.2383" y1="29.9494" x2="41.2383" y2="42.9656" gradientUnits="userSpaceOnUse">
<stop stop-color="#FB6E71"/>
<stop offset="1" stop-color="#EE4548"/>
</linearGradient>
<linearGradient id="paint6_linear_1_3497" x1="54.5954" y1="32.0782" x2="54.5954" y2="42.9654" gradientUnits="userSpaceOnUse">
<stop stop-color="#FF820D"/>
<stop offset="1" stop-color="#F25608"/>
</linearGradient>
<linearGradient id="paint7_linear_1_3497" x1="54.5954" y1="24.9388" x2="54.5954" y2="42.9654" gradientUnits="userSpaceOnUse">
<stop stop-color="#FB6E71"/>
<stop offset="1" stop-color="#EE4548"/>
</linearGradient>
<linearGradient id="paint8_linear_1_3497" x1="68.6138" y1="35.4765" x2="68.6138" y2="42.903" gradientUnits="userSpaceOnUse">
<stop stop-color="#FF820D"/>
<stop offset="1" stop-color="#F25608"/>
</linearGradient>
<linearGradient id="paint9_linear_1_3497" x1="68.6138" y1="30.6065" x2="68.6138" y2="42.903" gradientUnits="userSpaceOnUse">
<stop stop-color="#FB6E71"/>
<stop offset="1" stop-color="#EE4548"/>
</linearGradient>
<linearGradient id="paint10_linear_1_3497" x1="83.3504" y1="31.5173" x2="83.3504" y2="42.8837" gradientUnits="userSpaceOnUse">
<stop stop-color="#FF820D"/>
<stop offset="1" stop-color="#F25608"/>
</linearGradient>
<linearGradient id="paint11_linear_1_3497" x1="83.3504" y1="24.0635" x2="83.3504" y2="42.8837" gradientUnits="userSpaceOnUse">
<stop stop-color="#FB6E71"/>
<stop offset="1" stop-color="#EE4548"/>
</linearGradient>
</defs>
</svg>
