<svg width="166" height="60" viewBox="-4 -4 166 60" fill="none" xmlns="http://www.w3.org/2000/svg">
<defs>
<filter id="white-outline" x="-10%" y="-10%" width="120%" height="120%">
  <feMorphology in="SourceAlpha" result="dilated" operator="dilate" radius="2"/>
  <feFlood flood-color="white" result="white"/>
  <feComposite in="white" in2="dilated" operator="in" result="outline"/>
  <feGaussianBlur in="outline" stdDeviation="0.5" result="blurred"/>
  <feMerge>
    <feMergeNode in="blurred"/>
    <feMergeNode in="SourceGraphic"/>
  </feMerge>
</filter>
</defs>
<g filter="url(#white-outline)">
<path d="M107.904 41.896C104.917 41.896 102.714 40.5333 101.296 37.808C99.877 35.0827 99.1676 31.368 99.1676 26.664C99.1676 22.856 99.9516 19.0293 101.52 15.184C103.125 11.3013 105.346 8.10933 108.184 5.608C111.021 3.06933 114.176 1.8 117.648 1.8C120.634 1.8 122.837 3.16266 124.256 5.888C125.674 8.61333 126.384 12.328 126.384 17.032C126.384 20.84 125.581 24.6853 123.976 28.568C122.408 32.4133 120.205 35.6053 117.368 38.144C114.53 40.6453 111.376 41.896 107.904 41.896ZM107.792 40.104C110.256 40.104 112.272 39.0213 113.84 36.856C115.445 34.6533 116.901 31.592 118.208 27.672C119.29 24.424 120.168 21.3067 120.84 18.32C121.549 15.3333 121.904 12.8133 121.904 10.76C121.904 5.98133 120.522 3.592 117.76 3.592C115.37 3.592 113.354 4.712 111.712 6.952C110.069 9.15466 108.613 12.1787 107.344 16.024C104.88 23.416 103.648 29.072 103.648 32.992C103.648 37.7333 105.029 40.104 107.792 40.104ZM142.46 41.952C140.929 41.952 139.641 41.56 138.596 40.776C137.588 39.992 136.599 38.928 135.628 37.584C134.881 36.576 134.209 35.8293 133.612 35.344C133.052 34.8587 132.436 34.616 131.764 34.616C130.98 34.616 130.401 34.784 130.028 35.12C129.692 35.456 129.524 36.1093 129.524 37.08C129.524 37.5653 129.655 37.9013 129.916 38.088C130.252 38.3867 130.495 38.6667 130.644 38.928C130.793 39.152 130.868 39.4133 130.868 39.712C130.868 40.16 130.737 40.5707 130.476 40.944C130.215 41.28 129.785 41.448 129.188 41.448C128.553 41.448 128.049 41.28 127.676 40.944C127.34 40.5707 127.172 40.104 127.172 39.544C127.172 37.1547 127.844 34.952 129.188 32.936C130.532 30.8827 132.511 29.184 135.124 27.84L142.74 23.36C145.092 21.9787 147.164 20.1307 148.956 17.816C150.785 15.5013 151.7 13.1493 151.7 10.76C151.7 8.78133 151.196 7.10133 150.188 5.72C149.18 4.30133 147.5 3.592 145.148 3.592C143.767 3.592 142.385 3.984 141.004 4.768C139.66 5.552 138.54 6.52266 137.644 7.68C136.748 8.8 136.3 9.82667 136.3 10.76C136.3 11.992 136.617 12.608 137.252 12.608C137.476 12.608 137.775 12.496 138.148 12.272C138.671 12.0107 139.119 11.88 139.492 11.88C140.313 11.88 140.929 12.1227 141.34 12.608C141.751 13.0933 141.956 13.7093 141.956 14.456C141.956 15.4267 141.601 16.2667 140.892 16.976C140.183 17.6853 139.268 18.04 138.148 18.04C137.14 18.04 136.207 17.592 135.348 16.696C134.527 15.7627 134.116 14.5493 134.116 13.056C134.116 10.928 134.676 9.00533 135.796 7.288C136.953 5.57067 138.409 4.22667 140.164 3.256C141.956 2.28533 143.785 1.8 145.652 1.8C149.161 1.8 151.943 2.73333 153.996 4.6C156.049 6.42933 157.076 8.81867 157.076 11.768C157.076 14.0453 156.367 16.0613 154.948 17.816C153.529 19.5707 151.905 20.9893 150.076 22.072C148.284 23.1547 146.231 24.2373 143.916 25.32L137.476 28.288C135.647 29.1093 134.247 29.968 133.276 30.864C132.343 31.7227 131.876 32.432 131.876 32.992C132.921 32.992 134.433 33.4213 136.412 34.28C137.831 34.84 139.119 35.288 140.276 35.624C141.433 35.96 142.609 36.128 143.804 36.128C145.26 36.128 146.567 35.8107 147.724 35.176C148.919 34.5413 149.777 33.5893 150.3 32.32L151.364 29.744H152.428C151.831 32.9173 150.711 35.7547 149.068 38.256C147.425 40.72 145.223 41.952 142.46 41.952Z" fill="url(#paint0_linear_1_3516)"/>
<path d="M107.904 41.896C104.917 41.896 102.714 40.5333 101.296 37.808C99.877 35.0827 99.1676 31.368 99.1676 26.664C99.1676 22.856 99.9516 19.0293 101.52 15.184C103.125 11.3013 105.346 8.10933 108.184 5.608C111.021 3.06933 114.176 1.8 117.648 1.8C120.634 1.8 122.837 3.16266 124.256 5.888C125.674 8.61333 126.384 12.328 126.384 17.032C126.384 20.84 125.581 24.6853 123.976 28.568C122.408 32.4133 120.205 35.6053 117.368 38.144C114.53 40.6453 111.376 41.896 107.904 41.896ZM107.792 40.104C110.256 40.104 112.272 39.0213 113.84 36.856C115.445 34.6533 116.901 31.592 118.208 27.672C119.29 24.424 120.168 21.3067 120.84 18.32C121.549 15.3333 121.904 12.8133 121.904 10.76C121.904 5.98133 120.522 3.592 117.76 3.592C115.37 3.592 113.354 4.712 111.712 6.952C110.069 9.15466 108.613 12.1787 107.344 16.024C104.88 23.416 103.648 29.072 103.648 32.992C103.648 37.7333 105.029 40.104 107.792 40.104ZM142.46 41.952C140.929 41.952 139.641 41.56 138.596 40.776C137.588 39.992 136.599 38.928 135.628 37.584C134.881 36.576 134.209 35.8293 133.612 35.344C133.052 34.8587 132.436 34.616 131.764 34.616C130.98 34.616 130.401 34.784 130.028 35.12C129.692 35.456 129.524 36.1093 129.524 37.08C129.524 37.5653 129.655 37.9013 129.916 38.088C130.252 38.3867 130.495 38.6667 130.644 38.928C130.793 39.152 130.868 39.4133 130.868 39.712C130.868 40.16 130.737 40.5707 130.476 40.944C130.215 41.28 129.785 41.448 129.188 41.448C128.553 41.448 128.049 41.28 127.676 40.944C127.34 40.5707 127.172 40.104 127.172 39.544C127.172 37.1547 127.844 34.952 129.188 32.936C130.532 30.8827 132.511 29.184 135.124 27.84L142.74 23.36C145.092 21.9787 147.164 20.1307 148.956 17.816C150.785 15.5013 151.7 13.1493 151.7 10.76C151.7 8.78133 151.196 7.10133 150.188 5.72C149.18 4.30133 147.5 3.592 145.148 3.592C143.767 3.592 142.385 3.984 141.004 4.768C139.66 5.552 138.54 6.52266 137.644 7.68C136.748 8.8 136.3 9.82667 136.3 10.76C136.3 11.992 136.617 12.608 137.252 12.608C137.476 12.608 137.775 12.496 138.148 12.272C138.671 12.0107 139.119 11.88 139.492 11.88C140.313 11.88 140.929 12.1227 141.34 12.608C141.751 13.0933 141.956 13.7093 141.956 14.456C141.956 15.4267 141.601 16.2667 140.892 16.976C140.183 17.6853 139.268 18.04 138.148 18.04C137.14 18.04 136.207 17.592 135.348 16.696C134.527 15.7627 134.116 14.5493 134.116 13.056C134.116 10.928 134.676 9.00533 135.796 7.288C136.953 5.57067 138.409 4.22667 140.164 3.256C141.956 2.28533 143.785 1.8 145.652 1.8C149.161 1.8 151.943 2.73333 153.996 4.6C156.049 6.42933 157.076 8.81867 157.076 11.768C157.076 14.0453 156.367 16.0613 154.948 17.816C153.529 19.5707 151.905 20.9893 150.076 22.072C148.284 23.1547 146.231 24.2373 143.916 25.32L137.476 28.288C135.647 29.1093 134.247 29.968 133.276 30.864C132.343 31.7227 131.876 32.432 131.876 32.992C132.921 32.992 134.433 33.4213 136.412 34.28C137.831 34.84 139.119 35.288 140.276 35.624C141.433 35.96 142.609 36.128 143.804 36.128C145.26 36.128 146.567 35.8107 147.724 35.176C148.919 34.5413 149.777 33.5893 150.3 32.32L151.364 29.744H152.428C151.831 32.9173 150.711 35.7547 149.068 38.256C147.425 40.72 145.223 41.952 142.46 41.952Z" fill="url(#paint1_linear_1_3516)"/>
<path d="M2.7209 43.7622C1.82675 43.3287 1.14893 42.7604 0.692242 42.062C0.230747 41.3637 0 40.622 0 39.8321C0 38.8062 0.307663 37.9827 0.927797 37.3662C1.54793 36.7497 2.24979 36.4366 3.03817 36.4366C3.53813 36.4366 3.97559 36.5763 4.36017 36.8508C4.73994 37.1254 4.93223 37.424 4.93223 37.7418C4.93223 37.8189 4.89858 37.8911 4.83608 37.9586L4.61976 38.1753C4.35536 38.4643 4.15345 38.7533 4.00924 39.0422C3.86502 39.3312 3.79291 39.7117 3.79291 40.1885C3.79291 40.9013 4.01404 41.4985 4.46112 41.985C4.90819 42.4714 5.55236 42.7171 6.39363 42.7171C7.57621 42.7171 8.58092 42.2306 9.40777 41.2577C10.2346 40.2848 10.9317 39.0808 11.4989 37.6455C12.0614 36.2103 12.7248 34.2452 13.4891 31.7408C14.2006 29.4 14.8351 27.4639 15.4024 25.9371C15.9696 24.4104 16.6763 22.9799 17.532 21.6507C18.3877 20.3214 19.3924 19.3292 20.5461 18.6694C20.8105 18.5104 21.099 18.3852 21.4114 18.2937C21.7287 18.2022 22.0172 18.154 22.2767 18.154C22.4883 18.154 22.6565 18.1829 22.7911 18.2311C22.9209 18.2841 22.9882 18.3611 22.9882 18.4671C22.9882 18.5971 22.8969 18.7561 22.7142 18.9391C22.2431 19.44 21.7816 20.0468 21.3345 20.7548C20.7048 21.7807 20.1471 22.9559 19.6568 24.2707C19.1713 25.5856 18.6136 27.3628 17.9839 29.6023C17.0369 32.8148 16.1523 35.3963 15.3207 37.3421C14.4938 39.2927 13.3112 40.9543 11.7729 42.3366C10.2346 43.7188 8.25883 44.4124 5.84079 44.4124C4.65821 44.4124 3.61985 44.1957 2.7257 43.7622H2.7209ZM32.146 27.7866C31.0019 29.4193 29.2569 30.7534 26.9013 31.7937C24.5506 32.8341 21.6374 33.3542 18.1714 33.3542C17.7243 33.3542 17.1811 33.3205 16.5369 33.2531C15.8927 33.1856 15.388 33.1134 15.0178 33.0363L15.412 31.4566C15.6476 31.5626 16.0369 31.6348 16.5754 31.6733C17.1138 31.7119 17.5416 31.7311 17.8589 31.7311C20.3298 31.7311 22.4835 31.3362 24.3246 30.5463C26.1658 29.7565 27.5791 28.668 28.5598 27.2905C29.5453 25.9082 30.0404 24.3237 30.0404 22.532C30.0404 21.1112 29.627 19.859 28.8002 18.7801C27.9733 17.7013 26.8004 16.8729 25.2909 16.2901C23.7814 15.7122 22.0268 15.4232 20.027 15.4232C17.6089 15.4232 15.4264 15.823 13.4843 16.6273C11.5374 17.4316 10.0135 18.4623 8.91262 19.729C7.81176 20.9956 7.25893 22.3105 7.25893 23.6783C7.25893 24.5741 7.49929 25.2629 7.98963 25.7493C8.47516 26.2358 9.08568 26.4814 9.82119 26.4814C10.2683 26.4814 10.7009 26.3899 11.1239 26.2069C11.5422 26.0238 11.8739 25.8504 12.1094 25.6915C12.2681 25.5856 12.3594 25.5326 12.3834 25.5326C12.619 25.5326 12.7392 25.73 12.7392 26.125C12.7392 26.6259 12.5613 27.1605 12.2056 27.724C11.8498 28.2923 11.3403 28.7643 10.6673 29.1448C9.99906 29.5253 9.18663 29.7179 8.24441 29.7179C6.95607 29.7179 5.88406 29.323 5.03318 28.5331C4.17749 27.7432 3.74965 26.6114 3.74965 25.1376C3.74965 23.2689 4.46592 21.4628 5.89848 19.729C7.33104 17.9903 9.34046 16.5695 11.9316 15.4617C14.5179 14.354 17.431 13.8049 20.6615 13.8049C23.2622 13.8049 25.5601 14.1806 27.5599 14.9319C29.5549 15.6833 31.1076 16.7284 32.2133 18.0722C33.319 19.4159 33.867 20.9427 33.867 22.6524C33.867 24.3622 33.2949 26.1539 32.1508 27.7866H32.146Z" fill="url(#paint2_linear_1_3516)"/>
<path d="M2.7209 43.7622C1.82675 43.3287 1.14893 42.7604 0.692242 42.062C0.230747 41.3637 0 40.622 0 39.8321C0 38.8062 0.307663 37.9827 0.927797 37.3662C1.54793 36.7497 2.24979 36.4366 3.03817 36.4366C3.53813 36.4366 3.97559 36.5763 4.36017 36.8508C4.73994 37.1254 4.93223 37.424 4.93223 37.7418C4.93223 37.8189 4.89858 37.8911 4.83608 37.9586L4.61976 38.1753C4.35536 38.4643 4.15345 38.7533 4.00924 39.0422C3.86502 39.3312 3.79291 39.7117 3.79291 40.1885C3.79291 40.9013 4.01404 41.4985 4.46112 41.985C4.90819 42.4714 5.55236 42.7171 6.39363 42.7171C7.57621 42.7171 8.58092 42.2306 9.40777 41.2577C10.2346 40.2848 10.9317 39.0808 11.4989 37.6455C12.0614 36.2103 12.7248 34.2452 13.4891 31.7408C14.2006 29.4 14.8351 27.4639 15.4024 25.9371C15.9696 24.4104 16.6763 22.9799 17.532 21.6507C18.3877 20.3214 19.3924 19.3292 20.5461 18.6694C20.8105 18.5104 21.099 18.3852 21.4114 18.2937C21.7287 18.2022 22.0172 18.154 22.2767 18.154C22.4883 18.154 22.6565 18.1829 22.7911 18.2311C22.9209 18.2841 22.9882 18.3611 22.9882 18.4671C22.9882 18.5971 22.8969 18.7561 22.7142 18.9391C22.2431 19.44 21.7816 20.0468 21.3345 20.7548C20.7048 21.7807 20.1471 22.9559 19.6568 24.2707C19.1713 25.5856 18.6136 27.3628 17.9839 29.6023C17.0369 32.8148 16.1523 35.3963 15.3207 37.3421C14.4938 39.2927 13.3112 40.9543 11.7729 42.3366C10.2346 43.7188 8.25883 44.4124 5.84079 44.4124C4.65821 44.4124 3.61985 44.1957 2.7257 43.7622H2.7209ZM32.146 27.7866C31.0019 29.4193 29.2569 30.7534 26.9013 31.7937C24.5506 32.8341 21.6374 33.3542 18.1714 33.3542C17.7243 33.3542 17.1811 33.3205 16.5369 33.2531C15.8927 33.1856 15.388 33.1134 15.0178 33.0363L15.412 31.4566C15.6476 31.5626 16.0369 31.6348 16.5754 31.6733C17.1138 31.7119 17.5416 31.7311 17.8589 31.7311C20.3298 31.7311 22.4835 31.3362 24.3246 30.5463C26.1658 29.7565 27.5791 28.668 28.5598 27.2905C29.5453 25.9082 30.0404 24.3237 30.0404 22.532C30.0404 21.1112 29.627 19.859 28.8002 18.7801C27.9733 17.7013 26.8004 16.8729 25.2909 16.2901C23.7814 15.7122 22.0268 15.4232 20.027 15.4232C17.6089 15.4232 15.4264 15.823 13.4843 16.6273C11.5374 17.4316 10.0135 18.4623 8.91262 19.729C7.81176 20.9956 7.25893 22.3105 7.25893 23.6783C7.25893 24.5741 7.49929 25.2629 7.98963 25.7493C8.47516 26.2358 9.08568 26.4814 9.82119 26.4814C10.2683 26.4814 10.7009 26.3899 11.1239 26.2069C11.5422 26.0238 11.8739 25.8504 12.1094 25.6915C12.2681 25.5856 12.3594 25.5326 12.3834 25.5326C12.619 25.5326 12.7392 25.73 12.7392 26.125C12.7392 26.6259 12.5613 27.1605 12.2056 27.724C11.8498 28.2923 11.3403 28.7643 10.6673 29.1448C9.99906 29.5253 9.18663 29.7179 8.24441 29.7179C6.95607 29.7179 5.88406 29.323 5.03318 28.5331C4.17749 27.7432 3.74965 26.6114 3.74965 25.1376C3.74965 23.2689 4.46592 21.4628 5.89848 19.729C7.33104 17.9903 9.34046 16.5695 11.9316 15.4617C14.5179 14.354 17.431 13.8049 20.6615 13.8049C23.2622 13.8049 25.5601 14.1806 27.5599 14.9319C29.5549 15.6833 31.1076 16.7284 32.2133 18.0722C33.319 19.4159 33.867 20.9427 33.867 22.6524C33.867 24.3622 33.2949 26.1539 32.1508 27.7866H32.146Z" fill="url(#paint3_linear_1_3516)"/>
<path d="M40.0774 33.807C39.1592 33.3976 38.4429 32.839 37.9285 32.131C37.4141 31.423 37.1594 30.6283 37.1594 29.7614C37.1594 28.7066 37.5055 27.8397 38.2025 27.1558C38.8996 26.4718 39.7312 26.1299 40.7071 26.1299C41.4955 26.1299 42.2262 26.3803 42.8944 26.8812C43.5626 27.3821 44.0962 28.0997 44.4904 29.0341C44.8846 29.9685 45.0817 31.0569 45.0817 32.2947C45.0817 33.8985 44.7404 35.4735 44.0578 37.0147C43.3751 38.5559 42.4137 39.8129 41.1782 40.7858C39.9428 41.7587 38.539 42.2452 36.9623 42.2452C35.3855 42.2452 34.1885 41.7394 33.2943 40.7232C32.4002 39.7118 31.9531 38.4403 31.9531 36.9135C31.9531 35.4927 32.3233 34.1105 33.0588 32.7667C33.7943 31.423 34.674 30.3249 35.698 29.4676C36.7219 28.6103 37.5632 28.1816 38.2218 28.1816C38.5871 28.1816 38.7746 28.3646 38.7746 28.7355C38.7746 29.0004 38.5006 29.3038 37.9478 29.6458C37.4238 29.9107 36.9238 30.3827 36.4479 31.0666C35.9768 31.7505 35.5922 32.5404 35.3038 33.4362C35.0153 34.332 34.8711 35.1989 34.8711 36.0418C34.8711 37.2555 35.1355 38.2717 35.6595 39.1049C36.1835 39.9333 36.9478 40.3475 37.9478 40.3475C38.8659 40.3475 39.7024 40.0008 40.4523 39.3024C41.2023 38.604 41.7791 37.6841 42.1877 36.5379C42.5964 35.3916 42.7983 34.1345 42.7983 32.7667C42.7983 31.5289 42.5819 30.4934 42.1493 29.665C41.7166 28.8366 41.183 28.4224 40.5533 28.4224C40.1831 28.4224 39.8851 28.5669 39.6447 28.8559C39.4092 29.1449 39.289 29.5398 39.289 30.0407C39.289 30.9365 39.6495 31.6734 40.3706 32.2514C41.0917 32.8293 42.0579 33.1183 43.2694 33.1183C44.2693 33.1183 45.1923 32.8486 46.0479 32.3092C46.9036 31.7697 47.7497 31.0377 48.591 30.1178C48.7737 29.9347 48.9515 29.7373 49.1246 29.5254C49.2928 29.3134 49.4611 29.1304 49.6149 28.9715C49.8264 28.7596 50.0091 28.6536 50.1678 28.6536C50.2447 28.6536 50.3264 28.6921 50.4033 28.774C50.4802 28.8559 50.5235 28.9715 50.5235 29.1304C50.5235 29.3134 50.4466 29.5398 50.2879 29.7999C49.4755 31.0377 48.4131 32.1165 47.1152 33.0364C45.8124 33.9563 44.4952 34.4187 43.154 34.4187C42.0243 34.4187 41.0003 34.2164 40.0774 33.807Z" fill="url(#paint4_linear_1_3516)"/>
<path d="M40.0774 33.807C39.1592 33.3976 38.4429 32.839 37.9285 32.131C37.4141 31.423 37.1594 30.6283 37.1594 29.7614C37.1594 28.7066 37.5055 27.8397 38.2025 27.1558C38.8996 26.4718 39.7312 26.1299 40.7071 26.1299C41.4955 26.1299 42.2262 26.3803 42.8944 26.8812C43.5626 27.3821 44.0962 28.0997 44.4904 29.0341C44.8846 29.9685 45.0817 31.0569 45.0817 32.2947C45.0817 33.8985 44.7404 35.4735 44.0578 37.0147C43.3751 38.5559 42.4137 39.8129 41.1782 40.7858C39.9428 41.7587 38.539 42.2452 36.9623 42.2452C35.3855 42.2452 34.1885 41.7394 33.2943 40.7232C32.4002 39.7118 31.9531 38.4403 31.9531 36.9135C31.9531 35.4927 32.3233 34.1105 33.0588 32.7667C33.7943 31.423 34.674 30.3249 35.698 29.4676C36.7219 28.6103 37.5632 28.1816 38.2218 28.1816C38.5871 28.1816 38.7746 28.3646 38.7746 28.7355C38.7746 29.0004 38.5006 29.3038 37.9478 29.6458C37.4238 29.9107 36.9238 30.3827 36.4479 31.0666C35.9768 31.7505 35.5922 32.5404 35.3038 33.4362C35.0153 34.332 34.8711 35.1989 34.8711 36.0418C34.8711 37.2555 35.1355 38.2717 35.6595 39.1049C36.1835 39.9333 36.9478 40.3475 37.9478 40.3475C38.8659 40.3475 39.7024 40.0008 40.4523 39.3024C41.2023 38.604 41.7791 37.6841 42.1877 36.5379C42.5964 35.3916 42.7983 34.1345 42.7983 32.7667C42.7983 31.5289 42.5819 30.4934 42.1493 29.665C41.7166 28.8366 41.183 28.4224 40.5533 28.4224C40.1831 28.4224 39.8851 28.5669 39.6447 28.8559C39.4092 29.1449 39.289 29.5398 39.289 30.0407C39.289 30.9365 39.6495 31.6734 40.3706 32.2514C41.0917 32.8293 42.0579 33.1183 43.2694 33.1183C44.2693 33.1183 45.1923 32.8486 46.0479 32.3092C46.9036 31.7697 47.7497 31.0377 48.591 30.1178C48.7737 29.9347 48.9515 29.7373 49.1246 29.5254C49.2928 29.3134 49.4611 29.1304 49.6149 28.9715C49.8264 28.7596 50.0091 28.6536 50.1678 28.6536C50.2447 28.6536 50.3264 28.6921 50.4033 28.774C50.4802 28.8559 50.5235 28.9715 50.5235 29.1304C50.5235 29.3134 50.4466 29.5398 50.2879 29.7999C49.4755 31.0377 48.4131 32.1165 47.1152 33.0364C45.8124 33.9563 44.4952 34.4187 43.154 34.4187C42.0243 34.4187 41.0003 34.2164 40.0774 33.807Z" fill="url(#paint5_linear_1_3516)"/>
<path d="M54.5569 27.4108C54.8597 27.7142 55.0088 28.061 55.0088 28.4559C55.0088 28.6148 54.9799 28.7593 54.9319 28.8894C54.879 29.0194 54.7876 29.1928 54.6578 29.4047C54.4223 29.7467 54.2108 30.1175 54.0281 30.5125C53.4512 31.6973 53.0186 32.911 52.7253 34.1439C52.4369 35.3817 52.2927 36.4606 52.2927 37.3805C52.2927 38.3004 52.4321 39.0084 52.7061 39.4129C52.9801 39.8223 53.3166 40.0246 53.7108 40.0246C54.3935 40.0246 55.1963 39.5526 56.1144 38.6038C57.0326 37.655 58.0085 36.3402 59.0324 34.6545C59.1622 34.4714 59.3209 34.3799 59.5035 34.3799C59.6093 34.3799 59.7006 34.4185 59.7776 34.5003C59.8545 34.5822 59.8977 34.6978 59.8977 34.8567C59.8977 35.0157 59.8449 35.1842 59.7391 35.3721C58.5806 37.5587 57.3691 39.2492 56.0952 40.4484C54.8213 41.6477 53.5762 42.2449 52.3696 42.2449C51.3457 42.2449 50.5765 41.8114 50.0621 40.9397C49.5478 40.0728 49.293 39.0036 49.293 37.7417C49.293 36.7158 49.4372 35.4973 49.7256 34.091C50.0141 32.6846 50.3938 31.3986 50.8697 30.2379C51.288 29.2361 51.711 28.4415 52.1292 27.8491C52.5475 27.2566 52.9945 26.958 53.4705 26.958C53.8887 26.958 54.254 27.1122 54.5521 27.4108H54.5569ZM54.6338 23.5192C54.2781 23.2013 54.1002 22.7968 54.1002 22.2959C54.1002 21.636 54.3502 21.0774 54.8501 20.615C55.3501 20.1526 55.9414 19.9263 56.624 19.9263C57.3066 19.9263 57.7729 20.1093 58.1046 20.4801C58.4315 20.851 58.595 21.2845 58.595 21.7854C58.595 22.4163 58.3306 22.9461 57.8066 23.3651C57.2826 23.7889 56.6769 23.996 55.9943 23.996C55.4414 23.996 54.9895 23.8371 54.6338 23.524V23.5192Z" fill="url(#paint6_linear_1_3516)"/>
<path d="M54.5569 27.4108C54.8597 27.7142 55.0088 28.061 55.0088 28.4559C55.0088 28.6148 54.9799 28.7593 54.9319 28.8894C54.879 29.0194 54.7876 29.1928 54.6578 29.4047C54.4223 29.7467 54.2108 30.1175 54.0281 30.5125C53.4512 31.6973 53.0186 32.911 52.7253 34.1439C52.4369 35.3817 52.2927 36.4606 52.2927 37.3805C52.2927 38.3004 52.4321 39.0084 52.7061 39.4129C52.9801 39.8223 53.3166 40.0246 53.7108 40.0246C54.3935 40.0246 55.1963 39.5526 56.1144 38.6038C57.0326 37.655 58.0085 36.3402 59.0324 34.6545C59.1622 34.4714 59.3209 34.3799 59.5035 34.3799C59.6093 34.3799 59.7006 34.4185 59.7776 34.5003C59.8545 34.5822 59.8977 34.6978 59.8977 34.8567C59.8977 35.0157 59.8449 35.1842 59.7391 35.3721C58.5806 37.5587 57.3691 39.2492 56.0952 40.4484C54.8213 41.6477 53.5762 42.2449 52.3696 42.2449C51.3457 42.2449 50.5765 41.8114 50.0621 40.9397C49.5478 40.0728 49.293 39.0036 49.293 37.7417C49.293 36.7158 49.4372 35.4973 49.7256 34.091C50.0141 32.6846 50.3938 31.3986 50.8697 30.2379C51.288 29.2361 51.711 28.4415 52.1292 27.8491C52.5475 27.2566 52.9945 26.958 53.4705 26.958C53.8887 26.958 54.254 27.1122 54.5521 27.4108H54.5569ZM54.6338 23.5192C54.2781 23.2013 54.1002 22.7968 54.1002 22.2959C54.1002 21.636 54.3502 21.0774 54.8501 20.615C55.3501 20.1526 55.9414 19.9263 56.624 19.9263C57.3066 19.9263 57.7729 20.1093 58.1046 20.4801C58.4315 20.851 58.595 21.2845 58.595 21.7854C58.595 22.4163 58.3306 22.9461 57.8066 23.3651C57.2826 23.7889 56.6769 23.996 55.9943 23.996C55.4414 23.996 54.9895 23.8371 54.6338 23.524V23.5192Z" fill="url(#paint7_linear_1_3516)"/>
<path d="M64.3498 30.3923C64.2729 30.6042 64.1911 30.7824 64.1142 30.9269C64.0373 31.0714 63.9412 31.2785 63.8402 31.5385C63.3403 32.6463 62.9124 33.9611 62.5567 35.4879C62.201 37.0146 62.0231 38.5799 62.0231 40.1886L61.826 39.6347C62.3788 38.055 63.2105 36.2729 64.3306 34.2838C65.4458 32.2947 66.6669 30.5801 67.9985 29.1304C69.3253 27.6807 70.5655 26.9583 71.7241 26.9583C72.2769 26.9583 72.7336 27.1605 73.1038 27.5699C73.4691 27.9793 73.6566 28.5765 73.6566 29.3664C73.6566 29.9973 73.5364 30.6716 73.3009 31.3796C73.0653 32.0924 72.6952 32.9979 72.1952 34.1056C71.7241 35.2134 71.3684 36.114 71.1328 36.8124C70.8973 37.5107 70.7771 38.1513 70.7771 38.7292C70.7771 39.0471 70.8444 39.2976 70.9742 39.4806C71.104 39.6636 71.277 39.7551 71.4885 39.7551C72.0414 39.7551 72.748 39.3987 73.6181 38.6907C74.4883 37.9827 75.5218 36.639 76.7332 34.6643C76.839 34.4813 76.9976 34.3898 77.2043 34.3898C77.3101 34.3898 77.4062 34.4379 77.5024 34.5294C77.5937 34.621 77.6418 34.7317 77.6418 34.8666C77.6418 35.0255 77.5745 35.2085 77.4447 35.4205C76.2333 37.66 75.0122 39.3457 73.7768 40.4776C72.5413 41.6094 71.4116 42.1777 70.3877 42.1777C69.5224 42.1777 68.8686 41.8935 68.4359 41.33C68.0033 40.7665 67.787 40.02 67.787 39.1001C67.787 38.4403 67.912 37.7178 68.1619 36.928C68.4119 36.1381 68.7965 35.0978 69.3253 33.807C69.6666 32.9931 69.931 32.314 70.1137 31.7745C70.2963 31.2351 70.3877 30.8065 70.3877 30.4886C70.3877 30.2767 70.3492 30.1129 70.2675 29.9973C70.1906 29.8769 70.0848 29.8191 69.9502 29.8191C69.4791 29.8191 68.859 30.243 68.0994 31.081C67.3351 31.9238 66.5563 33.0219 65.7535 34.3801C64.9507 35.7383 64.2344 37.1639 63.6047 38.6666C63.3931 39.1675 63.172 39.7599 62.9365 40.4438C62.7249 41.1037 62.5471 41.5564 62.4029 41.8068C62.2586 42.0573 62.0279 42.1825 61.7106 42.1825C61.3164 42.1825 60.9703 42.0525 60.6674 41.7876C60.3646 41.5227 60.1098 41.1711 59.8983 40.7232C59.7925 40.5113 59.7156 40.1597 59.6627 39.6588C59.6099 39.1579 59.5858 38.6714 59.5858 38.1995C59.5858 37.7275 59.6435 37.0339 59.7637 36.1236C59.8839 35.2134 60.0185 34.3946 60.1771 33.6577C60.5713 31.8131 60.9847 30.4741 61.4174 29.6313C61.85 28.7884 62.3836 28.3694 63.0134 28.3694C63.4316 28.3694 63.8018 28.5091 64.119 28.7836C64.4363 29.0582 64.5902 29.3712 64.5902 29.7132C64.5902 29.8432 64.5132 30.084 64.3546 30.426L64.3498 30.3923Z" fill="url(#paint8_linear_1_3516)"/>
<path d="M64.3498 30.3923C64.2729 30.6042 64.1911 30.7824 64.1142 30.9269C64.0373 31.0714 63.9412 31.2785 63.8402 31.5385C63.3403 32.6463 62.9124 33.9611 62.5567 35.4879C62.201 37.0146 62.0231 38.5799 62.0231 40.1886L61.826 39.6347C62.3788 38.055 63.2105 36.2729 64.3306 34.2838C65.4458 32.2947 66.6669 30.5801 67.9985 29.1304C69.3253 27.6807 70.5655 26.9583 71.7241 26.9583C72.2769 26.9583 72.7336 27.1605 73.1038 27.5699C73.4691 27.9793 73.6566 28.5765 73.6566 29.3664C73.6566 29.9973 73.5364 30.6716 73.3009 31.3796C73.0653 32.0924 72.6952 32.9979 72.1952 34.1056C71.7241 35.2134 71.3684 36.114 71.1328 36.8124C70.8973 37.5107 70.7771 38.1513 70.7771 38.7292C70.7771 39.0471 70.8444 39.2976 70.9742 39.4806C71.104 39.6636 71.277 39.7551 71.4885 39.7551C72.0414 39.7551 72.748 39.3987 73.6181 38.6907C74.4883 37.9827 75.5218 36.639 76.7332 34.6643C76.839 34.4813 76.9976 34.3898 77.2043 34.3898C77.3101 34.3898 77.4062 34.4379 77.5024 34.5294C77.5937 34.621 77.6418 34.7317 77.6418 34.8666C77.6418 35.0255 77.5745 35.2085 77.4447 35.4205C76.2333 37.66 75.0122 39.3457 73.7768 40.4776C72.5413 41.6094 71.4116 42.1777 70.3877 42.1777C69.5224 42.1777 68.8686 41.8935 68.4359 41.33C68.0033 40.7665 67.787 40.02 67.787 39.1001C67.787 38.4403 67.912 37.7178 68.1619 36.928C68.4119 36.1381 68.7965 35.0978 69.3253 33.807C69.6666 32.9931 69.931 32.314 70.1137 31.7745C70.2963 31.2351 70.3877 30.8065 70.3877 30.4886C70.3877 30.2767 70.3492 30.1129 70.2675 29.9973C70.1906 29.8769 70.0848 29.8191 69.9502 29.8191C69.4791 29.8191 68.859 30.243 68.0994 31.081C67.3351 31.9238 66.5563 33.0219 65.7535 34.3801C64.9507 35.7383 64.2344 37.1639 63.6047 38.6666C63.3931 39.1675 63.172 39.7599 62.9365 40.4438C62.7249 41.1037 62.5471 41.5564 62.4029 41.8068C62.2586 42.0573 62.0279 42.1825 61.7106 42.1825C61.3164 42.1825 60.9703 42.0525 60.6674 41.7876C60.3646 41.5227 60.1098 41.1711 59.8983 40.7232C59.7925 40.5113 59.7156 40.1597 59.6627 39.6588C59.6099 39.1579 59.5858 38.6714 59.5858 38.1995C59.5858 37.7275 59.6435 37.0339 59.7637 36.1236C59.8839 35.2134 60.0185 34.3946 60.1771 33.6577C60.5713 31.8131 60.9847 30.4741 61.4174 29.6313C61.85 28.7884 62.3836 28.3694 63.0134 28.3694C63.4316 28.3694 63.8018 28.5091 64.119 28.7836C64.4363 29.0582 64.5902 29.3712 64.5902 29.7132C64.5902 29.8432 64.5132 30.084 64.3546 30.426L64.3498 30.3923Z" fill="url(#paint9_linear_1_3516)"/>
<path d="M78.7187 30.0358C78.1033 29.6939 77.7909 29.2845 77.7909 28.8125C77.7909 28.7065 77.8101 28.615 77.8486 28.538C77.887 28.4609 77.9591 28.4176 78.0649 28.4176L78.3389 28.4946C78.7331 28.6247 79.233 28.6921 79.8388 28.6921C80.8387 28.6921 81.9299 28.6006 83.1125 28.4176C84.2951 28.2345 85.3334 27.9311 86.2276 27.5073C86.8862 27.1894 87.3861 26.8619 87.7274 26.5199C87.8044 26.467 87.8668 26.414 87.9053 26.361C87.9438 26.308 88.0014 26.2839 88.0832 26.2839C88.2658 26.2839 88.4533 26.414 88.636 26.6789C88.8187 26.9438 88.91 27.2713 88.91 27.6662C88.91 28.5332 88.2899 29.246 87.0592 29.7998C85.8238 30.3537 84.1701 30.6282 82.0934 30.6282H81.3819C81.2232 30.6042 81.0261 30.5897 80.7906 30.5897C80.0262 30.5656 79.3388 30.3778 78.7235 30.0358H78.7187ZM82.2664 39.259C82.5404 39.7455 82.9442 39.9911 83.4682 39.9911C83.8624 39.9911 84.2374 39.8466 84.5931 39.5576C84.9489 39.2686 85.3238 38.8207 85.718 38.2139L85.9151 38.0164C86.0449 37.8575 86.1651 37.7804 86.2708 37.7804C86.4535 37.7804 86.5449 37.9104 86.5449 38.1753C86.5449 38.3054 86.5064 38.4932 86.4247 38.7292C86.3478 38.9652 86.266 39.1627 86.1891 39.3216C85.742 40.1404 85.1988 40.8147 84.5547 41.3541C83.9105 41.8935 83.1029 42.1632 82.1318 42.1632C81.1608 42.1632 80.3387 41.7731 79.7474 40.9977C79.1561 40.2223 78.8581 39.0953 78.8581 37.6215C78.8581 35.2808 79.3052 32.574 80.1993 29.506C81.0934 26.4381 82.1558 23.7361 83.3913 21.3906C83.8095 20.5767 84.223 19.9505 84.6316 19.5123C85.0402 19.0788 85.4632 18.8621 85.9151 18.8621C86.3333 18.8621 86.7179 19.0065 87.0592 19.2955C87.4005 19.5845 87.5736 19.9265 87.5736 20.3214C87.5736 20.3744 87.54 20.4514 87.4727 20.5574C87.4054 20.6633 87.3332 20.7789 87.2563 20.9138C86.8621 21.3376 86.4535 21.9156 86.0353 22.6525C84.9825 24.5212 84.0259 26.8041 83.1558 29.506C82.2904 32.2032 81.853 34.698 81.853 36.9905C81.853 38.0164 81.9924 38.7726 82.2664 39.259Z" fill="url(#paint10_linear_1_3516)"/>
<path d="M78.7187 30.0358C78.1033 29.6939 77.7909 29.2845 77.7909 28.8125C77.7909 28.7065 77.8101 28.615 77.8486 28.538C77.887 28.4609 77.9591 28.4176 78.0649 28.4176L78.3389 28.4946C78.7331 28.6247 79.233 28.6921 79.8388 28.6921C80.8387 28.6921 81.9299 28.6006 83.1125 28.4176C84.2951 28.2345 85.3334 27.9311 86.2276 27.5073C86.8862 27.1894 87.3861 26.8619 87.7274 26.5199C87.8044 26.467 87.8668 26.414 87.9053 26.361C87.9438 26.308 88.0014 26.2839 88.0832 26.2839C88.2658 26.2839 88.4533 26.414 88.636 26.6789C88.8187 26.9438 88.91 27.2713 88.91 27.6662C88.91 28.5332 88.2899 29.246 87.0592 29.7998C85.8238 30.3537 84.1701 30.6282 82.0934 30.6282H81.3819C81.2232 30.6042 81.0261 30.5897 80.7906 30.5897C80.0262 30.5656 79.3388 30.3778 78.7235 30.0358H78.7187ZM82.2664 39.259C82.5404 39.7455 82.9442 39.9911 83.4682 39.9911C83.8624 39.9911 84.2374 39.8466 84.5931 39.5576C84.9489 39.2686 85.3238 38.8207 85.718 38.2139L85.9151 38.0164C86.0449 37.8575 86.1651 37.7804 86.2708 37.7804C86.4535 37.7804 86.5449 37.9104 86.5449 38.1753C86.5449 38.3054 86.5064 38.4932 86.4247 38.7292C86.3478 38.9652 86.266 39.1627 86.1891 39.3216C85.742 40.1404 85.1988 40.8147 84.5547 41.3541C83.9105 41.8935 83.1029 42.1632 82.1318 42.1632C81.1608 42.1632 80.3387 41.7731 79.7474 40.9977C79.1561 40.2223 78.8581 39.0953 78.8581 37.6215C78.8581 35.2808 79.3052 32.574 80.1993 29.506C81.0934 26.4381 82.1558 23.7361 83.3913 21.3906C83.8095 20.5767 84.223 19.9505 84.6316 19.5123C85.0402 19.0788 85.4632 18.8621 85.9151 18.8621C86.3333 18.8621 86.7179 19.0065 87.0592 19.2955C87.4005 19.5845 87.5736 19.9265 87.5736 20.3214C87.5736 20.3744 87.54 20.4514 87.4727 20.5574C87.4054 20.6633 87.3332 20.7789 87.2563 20.9138C86.8621 21.3376 86.4535 21.9156 86.0353 22.6525C84.9825 24.5212 84.0259 26.8041 83.1558 29.506C82.2904 32.2032 81.853 34.698 81.853 36.9905C81.853 38.0164 81.9924 38.7726 82.2664 39.259Z" fill="url(#paint11_linear_1_3516)"/>
</g>
<defs>
<linearGradient id="paint0_linear_1_3516" x1="126.5" y1="26.6341" x2="126.5" y2="52" gradientUnits="userSpaceOnUse">
<stop stop-color="#FF820D"/>
<stop offset="1" stop-color="#F25608"/>
</linearGradient>
<linearGradient id="paint1_linear_1_3516" x1="126.5" y1="10" x2="126.5" y2="52" gradientUnits="userSpaceOnUse">
<stop stop-color="#FB6E71"/>
<stop offset="1" stop-color="#EE4548"/>
</linearGradient>
<linearGradient id="paint2_linear_1_3516" x1="16.9335" y1="29.4819" x2="16.9335" y2="44.4124" gradientUnits="userSpaceOnUse">
<stop stop-color="#FF820D"/>
<stop offset="1" stop-color="#F25608"/>
</linearGradient>
<linearGradient id="paint3_linear_1_3516" x1="16.9335" y1="19.691" x2="16.9335" y2="44.4124" gradientUnits="userSpaceOnUse">
<stop stop-color="#FB6E71"/>
<stop offset="1" stop-color="#EE4548"/>
</linearGradient>
<linearGradient id="paint4_linear_1_3516" x1="41.2383" y1="34.384" x2="41.2383" y2="42.2452" gradientUnits="userSpaceOnUse">
<stop stop-color="#FF820D"/>
<stop offset="1" stop-color="#F25608"/>
</linearGradient>
<linearGradient id="paint5_linear_1_3516" x1="41.2383" y1="29.229" x2="41.2383" y2="42.2452" gradientUnits="userSpaceOnUse">
<stop stop-color="#FB6E71"/>
<stop offset="1" stop-color="#EE4548"/>
</linearGradient>
<linearGradient id="paint6_linear_1_3516" x1="54.5954" y1="31.3578" x2="54.5954" y2="42.2449" gradientUnits="userSpaceOnUse">
<stop stop-color="#FF820D"/>
<stop offset="1" stop-color="#F25608"/>
</linearGradient>
<linearGradient id="paint7_linear_1_3516" x1="54.5954" y1="24.2183" x2="54.5954" y2="42.2449" gradientUnits="userSpaceOnUse">
<stop stop-color="#FB6E71"/>
<stop offset="1" stop-color="#EE4548"/>
</linearGradient>
<linearGradient id="paint8_linear_1_3516" x1="68.6138" y1="34.756" x2="68.6138" y2="42.1825" gradientUnits="userSpaceOnUse">
<stop stop-color="#FF820D"/>
<stop offset="1" stop-color="#F25608"/>
</linearGradient>
<linearGradient id="paint9_linear_1_3516" x1="68.6138" y1="29.886" x2="68.6138" y2="42.1825" gradientUnits="userSpaceOnUse">
<stop stop-color="#FB6E71"/>
<stop offset="1" stop-color="#EE4548"/>
</linearGradient>
<linearGradient id="paint10_linear_1_3516" x1="83.3504" y1="30.7968" x2="83.3504" y2="42.1632" gradientUnits="userSpaceOnUse">
<stop stop-color="#FF820D"/>
<stop offset="1" stop-color="#F25608"/>
</linearGradient>
<linearGradient id="paint11_linear_1_3516" x1="83.3504" y1="23.3431" x2="83.3504" y2="42.1632" gradientUnits="userSpaceOnUse">
<stop stop-color="#FB6E71"/>
<stop offset="1" stop-color="#EE4548"/>
</linearGradient>
</defs>
</svg>
