<svg width="36" height="36" viewBox="0 0 36 36" fill="none" xmlns="http://www.w3.org/2000/svg">
<circle cx="18" cy="18" r="18" fill="black"/>
<g clip-path="url(#clip0_1_3383)">
<path d="M15.7876 15.6839V14.8045C15.4848 14.7645 15.1767 14.7393 14.8628 14.7393C11.0785 14.7393 8 17.7318 8 21.41C8 23.6669 9.16023 25.664 10.9298 26.8716C9.78742 25.6798 9.10981 24.083 9.10981 22.3298C9.10981 18.7046 12.0782 15.7682 15.788 15.6839H15.7876Z" fill="#8CF3ED"/>
<path d="M15.9488 25.3947C17.6373 25.3947 19.0344 24.0706 19.097 22.4439L19.1111 7.94048L21.8171 7.94156L21.813 7.91995C21.7563 7.62163 21.7248 7.31466 21.7248 7.00049H17.9961L17.9902 21.5248C17.9275 23.1512 16.5501 24.4565 14.862 24.4565C14.3371 24.4565 13.843 24.329 13.4082 24.1063C13.9779 24.8737 14.9032 25.3947 15.9488 25.3947Z" fill="#8CF3ED"/>
<path d="M26.9128 12.893V12.042C25.8712 12.042 24.9015 11.7412 24.0879 11.2256C24.8122 12.0341 25.796 12.6606 26.9128 12.893Z" fill="#8CF3ED"/>
<path d="M24.0888 11.2255C23.2952 10.3395 22.8129 9.18369 22.8129 7.91943H21.7969C22.0601 9.30042 22.92 10.4851 24.0884 11.2255H24.0888Z" fill="#DA3055"/>
<path d="M14.8623 18.3355C13.1341 18.3355 11.707 19.7298 11.707 21.4095C11.707 22.5794 12.4106 23.5957 13.4081 24.1059C13.0363 23.6051 12.8146 22.9926 12.8146 22.329C12.8146 20.6489 14.2206 19.2824 15.9491 19.2824C16.2716 19.2824 16.5811 19.3342 16.8739 19.4232V15.7234C16.5711 15.6834 16.2631 15.6582 15.9491 15.6582C15.8946 15.6582 15.8412 15.6611 15.7871 15.6622L15.7726 15.6629L15.7626 18.4634C15.4698 18.3744 15.1847 18.3352 14.8623 18.3352V18.3355Z" fill="#DA3055"/>
<path d="M26.9132 12.8494L26.8957 12.8462L26.895 15.6446C24.9615 15.6446 23.1652 15.0259 21.7029 14.006L21.704 21.4099C21.704 25.0881 18.647 28.0619 14.8627 28.0619C13.4004 28.0619 12.0445 27.6321 10.9298 26.8715C12.1835 28.1798 13.9694 29.0001 15.9496 29.0001C19.7338 29.0001 22.8123 26.0079 22.8123 22.3297V14.9647C24.2747 15.985 26.0665 16.586 27.9996 16.586V12.9618C27.6267 12.9618 27.2635 12.9226 26.9128 12.8498L26.9132 12.8494Z" fill="#DA3055"/>
<path d="M21.7262 21.4098V14.0447C23.1885 15.0651 24.9804 15.666 26.9135 15.666V12.8493C25.7966 12.6169 24.8128 12.0339 24.0885 11.2255C22.9202 10.4851 22.0772 9.30042 21.8141 7.91943H19.0844L19.0784 22.4438C19.0158 24.0701 17.6387 25.3755 15.9503 25.3755C14.9046 25.3755 13.9794 24.8732 13.4096 24.1058C12.4121 23.5956 11.7294 22.5793 11.7294 21.4094C11.7294 19.7294 13.1353 18.3628 14.8638 18.3628C15.1863 18.3628 15.4958 18.4147 15.7887 18.5037V15.6624C12.0793 15.7467 9.08789 18.7036 9.08789 22.3292C9.08789 24.0827 9.78885 25.6792 10.9309 26.871C12.0455 27.6316 13.4015 28.0802 14.8638 28.0802C18.6481 28.0802 21.7266 25.088 21.7266 21.4098H21.7262Z" fill="white"/>
</g>
<defs>
<clipPath id="clip0_1_3383">
<rect width="20" height="22" fill="white" transform="translate(8 7)"/>
</clipPath>
</defs>
</svg>
