<svg width="36" height="36" viewBox="0 0 36 36" fill="none" xmlns="http://www.w3.org/2000/svg">
<circle cx="18" cy="18" r="18" fill="#FF0000"/>
<g clip-path="url(#clip0_1_3397)">
<path d="M28.5418 13.3424C28.2883 12.4199 27.544 11.695 26.5968 11.448C24.88 11 18 11 18 11C18 11 11.12 11 9.405 11.448C8.45785 11.695 7.71353 12.4199 7.45999 13.3424C7 15.0128 7 18.5 7 18.5C7 18.5 7 21.9872 7.45999 23.6576C7.71353 24.5801 8.45785 25.305 9.405 25.552C11.12 26 18 26 18 26C18 26 24.88 26 26.595 25.552C27.5421 25.305 28.2865 24.5801 28.54 23.6576C29 21.9872 29 18.5 29 18.5C29 18.5 29 15.0128 28.54 13.3424H28.5418ZM15.7996 21.7138V15.2862L21.5151 18.5L15.7996 21.7138Z" fill="white"/>
</g>
<defs>
<clipPath id="clip0_1_3397">
<rect width="22" height="15" fill="white" transform="translate(7 11)"/>
</clipPath>
</defs>
</svg>
