<svg width="40" height="40" viewBox="0 0 40 40" fill="none" xmlns="http://www.w3.org/2000/svg">
<rect width="40" height="40" rx="20" fill="#DA964D"/>
<rect width="40" height="40" rx="20" fill="url(#paint0_radial_101_338)" fill-opacity="0.5" style="mix-blend-mode:overlay"/>
<path d="M22.1688 14.375C23.0234 14.5417 23.8088 14.9597 24.4246 15.5754C25.0403 16.1912 25.4583 16.9766 25.625 17.8312M22.1688 10.875C23.9444 11.0723 25.6001 11.8674 26.8642 13.1299C28.1283 14.3924 28.9255 16.0471 29.125 17.8225M28.25 24.805V27.43C28.251 27.6737 28.2011 27.9149 28.1034 28.1382C28.0058 28.3615 27.8626 28.5619 27.6831 28.7266C27.5035 28.8914 27.2915 29.0168 27.0607 29.0949C26.8298 29.1729 26.5852 29.2019 26.3425 29.18C23.65 28.8874 21.0636 27.9674 18.7913 26.4938C16.6771 25.1503 14.8847 23.3579 13.5413 21.2438C12.0625 18.9611 11.1422 16.3621 10.855 13.6575C10.8331 13.4155 10.8619 13.1717 10.9394 12.9414C11.017 12.7112 11.1416 12.4996 11.3054 12.3202C11.4692 12.1407 11.6686 11.9974 11.8908 11.8992C12.1131 11.801 12.3533 11.7502 12.5963 11.75H15.2213C15.6459 11.7458 16.0576 11.8962 16.3795 12.1731C16.7015 12.45 16.9118 12.8345 16.9713 13.255C17.082 14.0951 17.2875 14.9199 17.5838 15.7138C17.7015 16.0269 17.727 16.3673 17.6572 16.6945C17.5874 17.0217 17.4253 17.3221 17.19 17.56L16.0788 18.6712C17.3244 20.8619 19.1381 22.6756 21.3288 23.9212L22.44 22.81C22.6779 22.5747 22.9783 22.4126 23.3055 22.3428C23.6327 22.273 23.9731 22.2985 24.2863 22.4162C25.0801 22.7125 25.9049 22.918 26.745 23.0288C27.17 23.0887 27.5582 23.3028 27.8357 23.6303C28.1132 23.9578 28.2606 24.3759 28.25 24.805Z" stroke="white" stroke-width="1.4" stroke-linecap="round" stroke-linejoin="round"/>
<defs>
<radialGradient id="paint0_radial_101_338" cx="0" cy="0" r="1" gradientUnits="userSpaceOnUse" gradientTransform="translate(1.07097e-06 3.5) rotate(63.6429) scale(41.2194)">
<stop stop-color="#FFE791"/>
<stop offset="1" stop-color="#FFE791" stop-opacity="0"/>
</radialGradient>
</defs>
</svg>
